<?xml version="1.0" standalone="no"?>
<!DOCTYPE svg PUBLIC "-//W3C//DTD SVG 20010904//EN"
 "http://www.w3.org/TR/2001/REC-SVG-20010904/DTD/svg10.dtd">
<svg version="1.0" xmlns="http://www.w3.org/2000/svg"
 width="700.000000pt" height="700.000000pt" viewBox="0 0 700.000000 700.000000"
 preserveAspectRatio="xMidYMid meet">
<metadata>
Created by potrace 1.14, written by Peter Selinger 2001-2017
</metadata>
<g transform="translate(0.000000,700.000000) scale(0.100000,-0.100000)"
fill="#000000" stroke="none">
<path d="M0 3500 l0 -3500 3500 0 3500 0 0 3500 0 3500 -3500 0 -3500 0 0
-3500z m1502 2698 c48 -45 59 -63 77 -122 12 -38 31 -85 43 -104 21 -34 21
-36 4 -101 -24 -92 -24 -141 -1 -157 27 -20 48 -17 118 15 59 28 157 104 147
114 -14 14 -176 74 -180 67 -7 -12 -54 32 -59 55 -3 19 -2 19 16 2 11 -9 33
-17 49 -17 54 0 134 -30 173 -66 21 -19 42 -34 47 -34 5 -1 33 -23 63 -49 53
-47 54 -50 42 -78 -22 -53 -302 -243 -404 -275 -32 -10 -82 -18 -110 -18 -89
0 -192 63 -233 142 -18 35 -33 209 -34 389 0 115 2 129 26 177 32 64 87 112
129 112 24 0 45 -13 87 -52z m2147 -39 c47 -11 93 -27 101 -35 21 -21 3 -45
-48 -64 l-41 -15 19 -25 c11 -14 20 -28 20 -32 0 -19 56 -88 71 -88 24 0 32
-16 19 -40 -9 -17 -8 -20 11 -20 12 0 23 -8 26 -20 7 -27 23 -25 23 3 0 29 8
38 55 70 31 22 51 27 97 27 50 0 62 -4 92 -31 33 -28 38 -30 94 -23 110 12
227 -33 247 -95 5 -16 12 -17 66 -9 68 9 85 3 139 -47 19 -18 49 -39 65 -46
22 -10 30 -21 30 -39 0 -22 -4 -25 -36 -23 -42 2 -157 46 -211 80 -44 27 -48
28 -48 8 0 -9 -6 -18 -14 -21 -11 -4 -7 -16 20 -51 38 -50 39 -52 23 -87 -18
-38 -59 -51 -116 -37 -62 16 -173 78 -173 96 0 8 -4 15 -8 15 -21 0 -52 43
-52 71 0 25 6 33 36 45 38 16 83 12 144 -14 34 -14 35 -14 17 5 -9 11 -43 26
-75 33 -31 7 -65 16 -74 21 -12 7 -18 4 -23 -11 -8 -24 -56 -28 -74 -6 -16 19
-84 2 -137 -36 -33 -23 -54 -30 -108 -33 -43 -3 -76 0 -89 7 -22 13 -203 39
-266 38 -19 0 -42 -7 -50 -14 -9 -8 -28 -17 -42 -21 -20 -5 -25 -11 -22 -26 8
-29 -24 -69 -70 -89 -25 -11 -102 -25 -194 -34 -83 -9 -186 -25 -227 -36 l-76
-19 -40 26 c-58 38 -55 65 12 99 53 27 242 77 333 89 85 11 105 16 105 29 0 6
-13 17 -30 23 -34 13 -47 37 -31 57 16 19 179 40 242 32 29 -4 65 -14 80 -22
25 -12 34 -12 84 3 41 14 53 22 49 33 -35 83 -42 128 -25 173 7 19 5 28 -11
42 -31 26 -75 36 -82 19 -3 -8 -14 -14 -25 -14 -17 0 -18 -3 -8 -25 7 -14 15
-25 20 -25 4 0 16 -9 27 -20 19 -19 19 -23 6 -49 -18 -34 -33 -41 -92 -41 -86
0 -145 42 -147 106 -2 35 -4 38 -48 50 -52 15 -64 33 -44 61 12 16 29 18 152
18 99 0 140 3 146 13 12 18 88 15 186 -9z m371 -103 c59 -24 69 -40 46 -71
-14 -19 -15 -19 -62 3 -43 20 -62 23 -154 20 l-105 -3 0 30 c0 37 19 43 135
44 66 0 97 -5 140 -23z m-1249 -36 c32 -18 24 -54 -18 -77 -51 -29 -135 -59
-213 -78 -88 -20 -99 -19 -112 10 -16 35 3 52 78 70 32 8 97 30 144 49 96 40
94 40 121 26z m397 -36 c24 -17 27 -36 11 -81 -8 -23 -19 -33 -47 -41 -20 -6
-82 -27 -137 -46 -128 -46 -155 -46 -202 -2 -34 31 -37 37 -28 62 8 22 19 30
48 36 20 4 48 15 62 24 41 27 167 63 220 64 30 0 60 -6 73 -16z m2701 -84 c46
-23 96 -71 117 -112 17 -34 46 -230 34 -238 -4 -3 -11 -29 -15 -59 l-7 -55
-13 40 c-7 21 -15 68 -18 104 -12 169 -109 222 -311 170 -95 -24 -131 -43 -66
-34 l45 6 -60 -41 c-68 -45 -215 -115 -215 -102 0 5 11 23 25 40 l26 30 -43
-17 c-25 -9 -73 -44 -113 -82 -118 -113 -185 -132 -287 -81 l-38 18 0 -46 c0
-52 -13 -71 -46 -71 -57 0 -136 188 -91 217 13 9 62 13 139 13 93 -1 221 54
395 167 45 29 109 67 142 83 131 65 324 89 400 50z m-4684 -112 c8 -43 -4 -73
-16 -42 -11 29 -11 112 1 94 5 -8 12 -31 15 -52z m-92 0 c11 -27 74 -116 130
-186 8 -10 4 -10 -19 -2 -78 30 -133 106 -134 183 0 46 6 47 23 5z m3 -160
c31 -44 53 -82 50 -85 -7 -7 -66 30 -93 59 -33 35 -53 91 -52 145 l0 48 20
-44 c11 -24 44 -80 75 -123z m1169 82 c16 -18 16 -24 5 -66 -13 -45 -77 -155
-99 -168 -8 -5 -7 -14 3 -29 8 -13 13 -46 12 -79 -1 -45 -7 -62 -26 -82 -13
-15 -31 -26 -40 -26 -13 0 -16 -6 -13 -24 8 -42 -60 -74 -87 -41 -11 13 -10
21 8 44 l21 28 -28 21 c-16 11 -31 29 -33 40 -7 27 18 77 55 108 24 20 28 30
24 53 -8 38 52 163 99 208 40 38 73 42 99 13z m407 -11 c23 -27 15 -43 -45
-80 -29 -18 -77 -56 -107 -84 -78 -73 -108 -87 -183 -83 l-62 3 -2 54 c-2 42
3 64 24 103 51 93 114 120 258 112 82 -5 103 -9 117 -25z m965 -59 c17 -10 37
-29 44 -41 11 -21 12 -22 22 -3 15 27 27 34 69 34 42 0 98 -40 98 -71 0 -55
-99 -96 -153 -65 -39 22 -43 16 -18 -25 42 -68 20 -116 -47 -105 -21 3 -65 1
-97 -4 -120 -20 -182 30 -112 89 13 10 10 16 -15 42 -25 25 -29 35 -24 61 18
89 150 139 233 88z m412 -63 c7 -17 27 -28 82 -46 70 -22 109 -44 109 -62 0
-18 -33 -39 -52 -33 -13 4 -26 -1 -39 -15 -13 -14 -32 -21 -55 -21 -35 0 -82
-23 -97 -47 -12 -20 -35 -16 -48 8 -12 23 -28 23 -110 -4 -41 -14 -49 -14 -68
-1 -50 36 -13 99 86 147 25 12 43 28 43 38 0 30 51 56 113 58 20 1 30 -5 36
-22z m1650 -21 c-2 -2 -61 -29 -131 -61 -99 -44 -142 -70 -200 -120 -40 -35
-74 -62 -76 -60 -7 7 45 110 72 142 38 45 99 71 202 87 92 15 140 19 133 12z
m-1003 -37 c79 -49 123 -199 58 -199 -33 0 -112 48 -156 94 -51 52 -62 92 -30
102 9 3 24 9 32 14 26 15 61 11 96 -11z m-1312 -10 c17 -13 26 -30 26 -49 0
-67 -161 -148 -271 -138 -53 5 -99 37 -99 68 0 34 40 70 97 86 31 9 70 25 87
35 43 27 125 26 160 -2z m-2212 -182 c29 -18 79 -46 111 -61 32 -16 57 -30 55
-32 -8 -7 -179 36 -215 55 -59 30 -119 101 -137 162 -9 29 -16 54 -16 55 0 2
33 -30 74 -71 41 -41 98 -89 128 -108z m17 79 c38 -39 25 -49 -23 -17 -27 18
-66 67 -66 84 0 12 49 -25 89 -67z m38 12 c12 -14 13 -18 3 -18 -17 0 -80 48
-80 61 0 12 55 -19 77 -43z m1711 26 c33 -22 27 -55 -13 -67 -11 -3 -89 -31
-172 -61 -187 -69 -243 -72 -243 -14 0 22 67 91 112 114 89 47 262 62 316 28z
m2868 -11 c-18 -35 -62 -76 -101 -96 -37 -18 -125 -32 -125 -19 0 5 36 28 80
52 44 24 95 53 113 66 43 30 50 30 33 -3z m-1191 -85 c41 -40 75 -79 75 -87 0
-18 -29 -51 -46 -51 -19 0 -107 73 -143 119 -42 52 -38 91 9 91 23 0 46 -16
105 -72z m1371 -27 c-11 -80 -33 -142 -78 -216 -23 -39 -54 -105 -69 -148 -28
-80 -39 -82 -39 -3 0 73 24 138 103 279 43 75 81 137 84 137 3 0 3 -22 -1 -49z
m-3654 22 c10 -9 18 -24 18 -35 0 -16 5 -17 39 -12 31 5 43 2 60 -15 17 -17
19 -26 11 -41 -14 -26 -160 -153 -207 -181 -37 -21 -38 -23 -39 -84 -1 -72
-29 -138 -61 -143 -10 -2 -27 -16 -37 -33 -20 -35 -51 -56 -86 -61 -14 -2 -35
-10 -48 -17 -35 -19 -76 -11 -80 17 -4 30 14 51 37 45 15 -4 21 2 26 26 6 29
65 91 85 91 6 0 10 8 10 18 0 24 33 54 94 83 45 22 47 24 23 27 -46 6 -52 26
-23 76 14 25 26 51 26 59 0 8 17 31 37 51 21 20 31 36 23 36 -20 0 -50 31 -50
52 0 13 14 25 43 38 53 23 76 24 99 3z m2000 -58 c15 -27 28 -61 28 -75 1 -14
15 -52 33 -85 24 -45 38 -61 57 -64 33 -4 64 -28 128 -94 60 -64 69 -101 26
-117 -43 -17 -71 -11 -116 23 -71 55 -113 131 -90 167 9 14 3 24 -28 55 l-39
38 -20 -24 c-16 -20 -23 -22 -47 -14 -15 6 -44 30 -62 55 -19 25 -32 36 -29
25 3 -11 9 -45 12 -75 6 -46 4 -60 -13 -80 l-19 -24 39 -62 c35 -55 39 -68 36
-116 -3 -47 -6 -53 -26 -56 -34 -5 -93 62 -138 155 -39 82 -38 105 5 111 17 3
21 8 15 20 -45 104 -57 198 -28 226 8 9 19 16 22 16 15 0 54 -33 70 -60 l17
-27 0 43 c0 61 30 90 92 89 47 0 48 -1 75 -50z m120 32 c39 -24 84 -74 74 -84
-3 -3 8 -24 24 -46 17 -23 30 -47 30 -54 0 -8 9 -32 20 -54 25 -47 19 -79 -14
-79 -17 0 -38 19 -75 68 -29 37 -74 95 -102 130 -54 70 -68 105 -49 127 18 21
49 19 92 -8z m-1448 -3 c9 -8 16 -22 16 -29 0 -18 -169 -166 -228 -201 -49
-29 -108 -30 -126 -2 -15 24 14 76 80 143 80 81 219 129 258 89z m895 -18 c33
-18 87 -76 96 -106 10 -30 -13 -79 -40 -86 -13 -3 -39 2 -59 11 -75 36 -115
120 -82 170 19 28 44 32 85 11z m-609 -11 c60 -31 63 -132 4 -191 -92 -91
-274 -61 -274 46 0 41 23 67 105 117 78 48 115 54 165 28z m2330 -15 c-58 -31
-158 -65 -166 -57 -9 8 63 58 103 73 21 7 56 13 78 13 l40 0 -55 -29z m-766
-1 c27 -21 53 -64 67 -109 7 -23 7 -23 8 -3 2 55 58 22 93 -55 16 -35 17 -46
7 -58 -21 -26 -52 -12 -75 34 l-22 42 -12 -51 c-14 -56 -44 -78 -81 -59 -16 9
-19 7 -19 -9 0 -14 -9 -23 -27 -27 -23 -6 -33 0 -74 44 -64 70 -80 152 -29
152 13 0 27 -14 39 -38 16 -32 81 -93 70 -65 -2 4 -17 34 -33 66 -25 51 -27
61 -17 85 35 76 58 88 105 51z m-1123 4 c0 -5 3 -17 6 -28 19 -74 16 -92 -22
-121 -34 -26 -39 -27 -63 -13 -14 7 -29 25 -32 39 -9 35 7 88 29 95 11 3 22
12 25 20 5 15 55 21 57 8z m-2566 -36 c22 -8 92 -35 155 -59 101 -38 111 -43
81 -46 -79 -8 -213 31 -264 77 -27 23 -44 56 -26 49 8 -3 32 -13 54 -21z
m2397 -8 c25 -13 38 -72 27 -114 -14 -49 -80 -97 -129 -93 -31 3 -37 7 -49 45
-18 50 -5 105 36 153 23 28 30 31 62 25 20 -4 43 -11 53 -16z m2142 0 c-24
-27 -72 -51 -159 -79 -134 -43 -200 -90 -226 -158 -13 -34 -7 -37 43 -19 44
16 178 32 178 22 0 -11 -86 -44 -178 -69 -90 -24 -113 -22 -71 5 18 12 19 18
9 43 -25 67 25 158 112 199 37 18 83 29 150 36 53 5 109 17 125 25 37 20 39
20 17 -5z m-4538 -71 c105 -42 225 -118 186 -118 -29 0 -152 46 -187 70 -39
27 -94 80 -83 80 3 0 41 -14 84 -32z m924 -40 c0 -27 -37 -68 -62 -68 -11 0
-18 -7 -18 -20 0 -25 -35 -44 -66 -36 -18 5 -24 13 -24 35 0 36 34 69 54 52
11 -9 15 -7 19 8 5 20 76 63 90 54 4 -2 7 -14 7 -25z m1704 6 c20 -19 17 12
22 -256 4 -220 3 -229 -17 -249 -18 -18 -23 -19 -42 -6 -19 12 -23 28 -30 103
-11 119 0 385 17 412 10 17 32 15 50 -4z m-2494 -104 c117 -8 223 -36 310 -80
43 -22 64 -45 34 -37 -11 3 -46 8 -79 12 -33 4 -125 20 -205 36 -150 30 -218
57 -280 110 l-35 29 70 -31 c58 -26 89 -32 185 -39z m2378 -15 c20 -83 27
-182 12 -200 -20 -24 -47 -18 -85 19 -25 25 -35 44 -36 68 -5 115 17 171 66
166 27 -3 31 -8 43 -53z m282 40 l30 -16 -1 -97 c0 -118 -20 -182 -62 -196
-21 -8 -31 -6 -43 6 -46 46 -44 247 4 301 19 21 34 21 72 2z m-1420 -46 c27
-49 -1 -101 -79 -150 -81 -52 -171 -33 -171 36 0 45 44 81 142 116 78 28 93
27 108 -2z m364 5 c8 -21 -60 -90 -97 -99 -56 -15 -77 23 -34 62 52 48 119 67
131 37z m560 -34 c59 -22 33 -109 -44 -147 -26 -13 -74 -25 -115 -29 -63 -6
-72 -4 -89 15 -16 18 -17 24 -6 51 34 82 171 142 254 110z m-367 -39 c28 -41
29 -91 4 -146 -19 -43 -73 -95 -97 -95 -21 0 -17 -18 6 -25 29 -9 68 -61 76
-100 13 -73 -55 -149 -147 -161 -32 -4 -50 -12 -54 -23 -3 -9 -18 -23 -33 -32
-25 -14 -30 -24 -35 -73 -4 -38 -1 -71 9 -98 33 -96 -5 -161 -79 -135 -22 7
-32 6 -45 -6 -48 -43 -131 -58 -181 -32 -31 15 -41 12 -41 -16 0 -39 -68 -51
-100 -19 -20 20 -20 20 -34 -14 -17 -42 -30 -50 -56 -36 -17 9 -20 21 -20 73
0 84 15 132 54 174 27 30 37 35 59 29 38 -9 41 -37 12 -108 -38 -93 -39 -95
-22 -73 10 14 27 20 56 20 33 0 41 3 46 22 7 29 90 72 153 80 l47 5 -3 82 c-3
71 -1 85 20 115 19 28 74 66 122 84 5 2 1 15 -8 29 -13 20 -15 37 -10 76 7 58
28 93 73 126 l31 23 -30 13 c-32 13 -60 55 -60 88 0 26 51 102 91 136 47 40
87 56 134 53 32 -2 43 -8 62 -36z m1968 3 c48 -52 71 -108 57 -139 -16 -35
-44 -31 -81 10 -50 58 -75 114 -62 141 15 34 48 30 86 -12z m-3648 -149 c-8
-86 -13 -108 -31 -143 -16 -31 -93 -112 -107 -112 -4 0 13 50 38 111 25 62 52
148 61 192 l16 81 14 -34 c9 -23 12 -55 9 -95z m1311 84 c2 -19 -4 -33 -23
-47 -50 -39 -77 8 -33 55 28 30 52 26 56 -8z m2852 16 c0 -14 -65 -35 -107
-35 -70 0 -88 17 -27 25 27 3 56 8 64 9 25 6 70 6 70 1z m-1184 -43 c17 -9 57
-40 88 -68 43 -38 60 -62 67 -90 14 -61 11 -82 -12 -95 -17 -9 -32 -5 -84 20
-70 35 -158 121 -149 145 3 9 10 16 15 16 5 0 6 13 3 30 -7 31 8 60 30 60 6
-1 25 -9 42 -18z m547 -12 c38 -30 83 -91 91 -123 5 -22 1 -32 -20 -52 -36
-33 -57 -31 -90 8 -57 68 -81 156 -46 176 25 15 36 13 65 -9z m-2174 -39 c21
-13 5 -60 -25 -73 -49 -23 -82 24 -45 61 22 22 47 26 70 12z m811 -11 c17 -32
24 -114 11 -138 -6 -12 -24 -25 -39 -28 -15 -4 -38 -15 -52 -24 -38 -26 -61
-31 -76 -19 -31 26 -9 106 45 161 14 15 34 37 44 48 22 26 53 26 67 0z m2170
-4 c-6 -16 -5 -48 1 -86 16 -99 -16 -180 -71 -180 l-29 0 24 25 c21 20 25 34
25 80 l0 57 -34 -21 c-36 -23 -76 -27 -107 -11 -31 17 -22 28 19 23 20 -2 55
2 77 10 35 12 41 19 46 50 6 35 33 77 50 77 5 0 4 -11 -1 -24z m-1610 -35 c49
-36 32 -112 -21 -93 -13 5 -37 12 -53 16 l-29 7 30 -25 c61 -52 44 -98 -28
-79 -36 9 -39 9 -33 -6 23 -53 38 -132 28 -149 -25 -40 -56 -27 -106 46 -28
41 -30 47 -19 83 9 28 19 41 37 45 l25 6 -20 20 c-39 36 -16 85 34 75 l26 -4
-21 19 c-25 24 -26 43 0 61 26 18 112 5 150 -22z m1470 14 c0 -2 -13 -11 -30
-20 -36 -19 -79 -19 -104 0 -17 13 -12 14 50 18 38 1 72 4 77 5 4 1 7 0 7 -3z
m-3204 -32 c14 -15 24 -36 22 -47 -3 -23 -101 -80 -163 -95 -22 -5 -55 -15
-73 -22 -36 -15 -64 -5 -70 25 -5 22 102 130 149 150 56 25 106 20 135 -11z
m2775 -24 c12 -12 32 -45 45 -75 55 -125 8 -194 -70 -103 -54 64 -66 164 -23
191 18 12 25 10 48 -13z m-3057 -31 c-2 -67 -71 -129 -109 -98 -20 17 -19 39
5 78 19 32 74 65 95 58 6 -2 10 -19 9 -38z m-488 -7 c-16 -11 -47 -27 -68 -37
-30 -13 -36 -19 -23 -24 13 -5 6 -15 -34 -48 -51 -43 -68 -39 -31 8 11 14 20
30 20 36 0 15 51 61 80 73 14 5 39 10 55 10 l30 1 -29 -19z m314 -20 c21 -41
12 -68 -41 -115 -35 -31 -60 -46 -79 -46 -55 0 -64 53 -18 98 84 82 119 98
138 63z m707 11 c7 -4 15 -21 19 -37 4 -25 -4 -43 -55 -112 -62 -84 -82 -98
-137 -91 -83 9 -4 169 111 226 48 24 47 24 62 14z m-1232 -24 c-8 -27 -75
-132 -80 -126 -11 10 19 82 47 113 35 41 42 43 33 13z m3245 -38 c34 -18 120
-158 120 -195 0 -49 -32 -65 -71 -36 -28 21 -30 21 -53 4 -34 -26 -46 -68 -46
-159 0 -93 -16 -127 -58 -122 -20 2 -29 11 -36 36 -6 22 -20 39 -40 49 -63 32
-76 51 -76 117 0 117 54 181 153 181 53 0 57 2 52 20 -17 61 -17 73 4 94 24
24 26 24 51 11z m304 -43 c18 -43 19 -53 7 -110 -7 -34 -19 -67 -26 -73 -22
-17 -73 -4 -95 24 -51 64 -1 218 68 210 21 -2 31 -13 46 -51z m-1306 27 c25
-17 30 -65 8 -87 -12 -11 -11 -15 5 -25 39 -25 12 -102 -36 -102 -47 0 -60 48
-23 87 l21 23 -21 0 c-24 0 -62 32 -62 53 0 22 43 67 65 67 11 0 31 -7 43 -16z
m1699 -101 c3 -32 1 -53 -4 -48 -4 6 -15 10 -23 10 -20 0 -60 63 -60 96 0 42
29 54 59 24 19 -18 25 -37 28 -82z m-1975 40 c20 -18 23 -54 8 -84 -16 -28
-68 -52 -102 -45 -28 6 -28 5 -13 -16 17 -25 20 -69 5 -84 -5 -5 -5 -15 -1
-23 7 -11 13 -9 30 8 41 41 72 24 86 -50 7 -39 -3 -53 -46 -64 -18 -5 -31 -1
-44 12 -10 10 -28 16 -41 15 -26 -4 -83 43 -115 94 -17 29 -20 44 -15 82 8 58
26 85 68 102 18 8 48 26 66 42 37 32 85 37 114 11z m-1304 -10 c13 -25 0 -54
-42 -91 -57 -50 -103 -55 -125 -14 -13 24 16 67 52 78 12 4 33 15 46 25 30 24
58 24 69 2z m1440 1 c40 -28 17 -91 -40 -110 -12 -3 -18 -15 -18 -33 0 -16 -7
-34 -15 -41 -13 -11 -19 -9 -36 9 -19 20 -20 26 -9 74 15 63 34 95 63 107 30
12 30 12 55 -6z m1598 -10 c46 -22 95 -79 87 -101 -10 -27 -23 -32 -56 -22
-34 10 -94 63 -103 91 -6 20 11 48 28 48 6 0 25 -7 44 -16z m-1316 -9 c17 -21
25 -137 11 -163 -13 -24 -36 -29 -47 -10 -12 20 -32 130 -27 147 15 42 41 52
63 26z m1790 -44 c22 -21 40 -44 40 -51 0 -10 -3 -10 -15 0 -12 10 -15 9 -15
-6 0 -14 -16 -2 -54 41 -33 37 -50 63 -43 67 15 9 39 -5 87 -51z m-3866 33
c30 -30 13 -117 -32 -166 -30 -33 -55 -35 -82 -8 -41 41 -17 134 43 170 39 24
51 25 71 4z m604 -58 c17 -18 32 -42 32 -53 0 -36 -75 -137 -156 -208 -76 -68
-79 -70 -132 -70 -48 0 -57 3 -84 34 -24 27 -29 39 -24 64 8 40 32 75 59 88
12 5 33 17 47 25 14 8 42 13 62 12 35 -3 38 -1 55 37 23 51 70 105 92 105 9 0
31 -15 49 -34z m1876 14 c56 -21 59 -96 5 -129 -54 -33 -156 3 -175 61 -8 27
21 66 53 71 53 8 92 7 117 -3z m1123 -64 c13 -61 12 -71 -1 -84 -13 -13 -17
-13 -32 -1 -22 18 -44 71 -44 107 0 34 18 54 44 50 15 -2 22 -17 33 -72z
m-1381 -61 c47 -108 50 -125 32 -143 -31 -31 -73 1 -108 83 -25 57 -34 133
-18 153 27 32 50 9 94 -93z m-897 47 c7 -13 6 -27 -4 -45 -7 -15 -15 -39 -17
-54 -2 -23 -7 -28 -29 -26 -23 1 -28 -3 -31 -29 -8 -51 7 -104 51 -179 44 -78
49 -100 26 -119 -28 -23 -58 4 -119 110 -71 123 -79 166 -46 253 12 32 39 76
60 98 38 40 38 40 69 25 17 -9 35 -24 40 -34z m1310 22 c28 -36 29 -109 2
-124 -30 -16 -69 -12 -79 8 -17 31 -24 100 -12 121 16 31 63 28 89 -5z m-635
0 c3 -9 6 -33 6 -54 0 -21 5 -42 10 -45 14 -8 13 -78 -2 -110 -6 -14 -18 -24
-27 -23 -12 2 -15 22 -17 93 -2 97 4 155 16 155 4 0 11 -7 14 -16z m1861 -25
c21 -23 48 -66 62 -95 22 -49 25 -69 27 -210 2 -134 1 -153 -10 -132 -26 44
-52 144 -63 238 -10 80 -25 132 -68 228 -11 26 16 10 52 -29z m-2981 -18 c16
-54 -8 -151 -44 -183 -57 -52 -100 -29 -100 55 1 131 114 231 144 128z m2873
14 c30 -21 87 -173 72 -191 -24 -29 -45 -14 -87 59 -52 90 -56 140 -12 146 3
1 15 -6 27 -14z m-3589 -7 c27 -27 0 -158 -40 -195 -37 -34 -99 -32 -112 4
-13 33 25 113 82 176 28 29 51 34 70 15z m3269 -20 c35 -32 50 -77 58 -164 6
-68 4 -83 -10 -97 -27 -27 -43 -20 -70 33 -9 19 -31 46 -47 59 -51 41 -89 140
-72 186 9 23 110 11 141 -17z m-1567 7 c15 -19 4 -71 -21 -96 -18 -18 -18 -21
-3 -51 10 -20 14 -45 11 -69 -4 -31 -1 -38 14 -42 27 -7 23 -33 -11 -75 -26
-33 -31 -49 -36 -117 -8 -110 -20 -145 -48 -145 -16 0 -27 11 -41 42 -16 38
-17 46 -4 81 8 22 23 45 34 51 30 17 33 25 21 57 -9 25 -7 36 9 66 l20 37 -32
32 c-37 36 -43 75 -18 111 8 12 13 27 10 35 -7 16 52 98 70 98 7 0 18 -7 25
-15z m1170 -54 c17 -33 11 -78 -15 -109 -51 -60 -125 -46 -125 24 0 73 110
140 140 85z m-1080 -11 c11 -21 5 -59 -17 -103 -10 -20 -20 -27 -36 -25 -19 3
-22 9 -20 51 2 78 47 125 73 77z m1253 -70 c34 -88 46 -182 27 -205 -7 -8 -27
-22 -44 -30 -27 -13 -45 -13 -138 -1 -59 8 -112 17 -117 20 -15 10 -23 76 -11
91 19 22 64 27 110 11 66 -23 75 -11 74 87 -1 90 7 109 45 105 21 -3 29 -14
54 -78z m-1103 21 c5 -11 10 -33 10 -50 0 -26 3 -30 27 -28 19 1 30 -5 38 -20
7 -13 14 -20 18 -17 3 3 14 3 25 -1 37 -11 70 -153 40 -171 -11 -7 -51 31 -60
58 -4 11 -8 11 -20 0 -14 -11 -14 -18 -3 -50 49 -143 53 -173 21 -185 -23 -9
-36 8 -71 93 -36 86 -42 119 -26 135 10 11 3 105 -8 105 -25 -1 -31 -19 -22
-61 15 -62 13 -89 -5 -96 -22 -8 -35 9 -45 62 -6 33 -5 53 3 68 7 12 11 47 9
79 -1 31 2 66 8 77 15 26 47 27 61 2z m373 -43 c76 -75 86 -105 50 -149 -31
-36 -53 -37 -88 -2 -36 36 -54 73 -65 133 -19 100 12 105 103 18z m1177 2 c26
-14 40 -63 40 -146 0 -64 -3 -75 -20 -84 -12 -6 -30 -8 -41 -5 -50 16 -103
159 -80 218 9 22 16 27 46 27 20 0 45 -4 55 -10z m-3745 -20 c15 -6 32 -24 40
-45 29 -69 11 -210 -33 -259 -11 -11 -25 -37 -31 -57 -16 -51 -53 -83 -85 -75
-15 3 -26 11 -26 16 0 6 -7 10 -15 10 -8 0 -21 10 -30 23 -12 19 -13 38 -4
116 13 117 38 186 88 240 40 43 53 47 96 31z m1663 -19 c8 -4 13 -11 12 -15 0
-4 10 -20 23 -35 23 -28 24 -28 46 -10 39 32 81 19 81 -26 0 -28 -44 -119 -69
-144 -41 -41 -91 -19 -72 30 6 17 -3 37 -36 87 -45 69 -51 90 -31 110 14 14
28 15 46 3z m1788 -52 c24 -50 37 -95 38 -129 1 -31 -2 -35 -24 -35 -30 0 -60
53 -68 121 -7 69 29 98 54 43z m-3259 -61 c-41 -88 -56 -104 -83 -83 -18 13
-18 16 16 82 27 52 40 68 57 68 12 0 25 4 29 8 19 19 12 -8 -19 -75z m1877 50
c14 -41 -3 -102 -30 -106 -45 -6 -68 51 -44 113 14 37 60 32 74 -7z m1901 -74
c6 -10 18 -30 27 -44 19 -30 48 -184 48 -257 0 -52 -17 -83 -44 -83 -22 0 -33
21 -52 105 -16 68 -20 76 -25 50 -3 -17 -4 -42 -1 -56 2 -15 -3 -37 -11 -50
-8 -13 -18 -37 -21 -53 -6 -26 -5 -28 9 -16 12 10 21 10 40 2 23 -11 25 -17
25 -82 0 -75 -11 -110 -35 -110 -7 0 -15 -5 -17 -12 -2 -6 -12 5 -22 26 -13
27 -16 48 -11 78 5 29 4 39 -4 34 -6 -4 -11 -16 -11 -27 0 -44 -51 -109 -86
-109 -72 0 -111 175 -46 205 17 8 22 18 22 49 0 36 27 99 58 138 8 9 21 32 30
50 12 23 25 34 45 36 26 3 27 5 27 66 0 80 28 111 55 60z m-1459 -31 c15 -27
43 -61 61 -76 32 -28 69 -94 58 -105 -8 -8 -47 -11 -67 -5 -11 2 -18 14 -18
28 0 20 -6 24 -37 27 -35 3 -40 7 -65 58 -40 80 -34 120 19 120 16 0 30 -13
49 -47z m-2173 25 c9 -7 27 -44 41 -82 34 -89 36 -204 6 -253 -22 -36 -58 -50
-88 -34 -12 6 -22 11 -24 11 -2 0 -3 -30 -4 -68 -1 -79 -21 -125 -64 -147 -39
-20 -55 -19 -101 7 -97 54 -113 177 -33 248 34 29 41 31 99 28 l62 -3 -15 35
c-20 44 -21 176 -3 210 8 14 20 33 29 43 18 20 71 23 95 5z m265 -30 c17 -17
16 -244 -1 -278 -18 -36 -56 -33 -79 6 -25 43 -32 110 -19 177 18 86 64 130
99 95z m1437 -31 c11 -16 17 -18 28 -9 10 9 19 7 35 -8 25 -24 35 -55 30 -96
-4 -39 -44 -46 -69 -13 l-17 23 -19 -23 c-40 -49 -91 9 -80 91 9 66 58 84 92
35z m-1238 -38 c18 -6 35 -14 38 -19 4 -6 23 -10 43 -11 42 -1 95 -16 72 -19
-25 -4 88 -19 190 -25 130 -8 137 -10 183 -56 72 -74 107 -220 107 -448 0
-107 -3 -141 -16 -159 -18 -27 -41 -28 -73 -3 -23 18 -24 21 -13 59 12 40 17
188 6 215 -4 11 -14 12 -47 6 -23 -4 -80 -8 -127 -9 -74 0 -93 4 -147 29 -104
49 -179 141 -197 242 -5 28 -14 39 -41 52 -22 10 -42 32 -56 58 -20 40 -20 44
-5 77 13 26 21 32 34 27 9 -4 31 -11 49 -16z m2753 -62 c12 -56 0 -97 -30 -97
-13 0 -22 9 -26 26 -7 26 2 129 12 146 9 15 32 -25 44 -75z m-1146 45 c50 -45
56 -112 11 -112 -37 0 -106 103 -89 132 8 13 54 1 78 -20z m-2308 -54 c7 -22
-3 -83 -18 -111 -6 -12 -18 -17 -36 -15 -25 3 -27 7 -30 55 -3 45 1 56 22 78
27 27 52 25 62 -7z m1619 21 c20 -31 -56 -129 -99 -129 -56 0 -32 73 36 114
48 29 54 30 63 15z m1661 -23 c-1 -8 -8 -22 -16 -32 -8 -10 -10 -15 -4 -12 15
9 69 -36 60 -50 -4 -7 -17 -12 -29 -12 -32 -1 -68 -38 -101 -104 -32 -63 -87
-115 -168 -158 -54 -30 -97 -34 -177 -19 -53 11 -91 -1 -91 -28 0 -10 -7 -24
-15 -31 -26 -22 -45 5 -45 64 0 56 32 213 50 247 15 28 100 65 180 79 129 22
352 65 357 69 1 0 0 -5 -1 -13z m254 -16 c25 -13 39 -61 42 -148 2 -56 -1 -75
-12 -82 -23 -15 -52 12 -67 61 -7 24 -17 55 -21 69 -10 31 1 90 20 101 16 11
16 11 38 -1z m-1244 -86 c52 -55 42 -104 -21 -104 -34 0 -53 16 -79 67 -16 31
-15 34 4 53 29 29 58 25 96 -16z m-326 2 c0 -14 -10 -32 -22 -41 -18 -12 -23
-25 -23 -58 0 -36 -3 -42 -23 -45 -18 -3 -26 4 -37 32 -20 48 -19 78 6 110 16
20 29 26 60 26 35 0 39 -3 39 -24z m618 5 c18 -11 12 -41 -10 -55 -13 -8 -23
-8 -35 0 -36 22 -24 64 17 64 8 0 21 -4 28 -9z m-465 -30 c14 -14 12 -78 -3
-96 -8 -9 -28 -13 -63 -11 -46 2 -53 5 -61 28 -10 29 -1 63 14 53 5 -3 10 -17
10 -31 0 -16 4 -23 11 -18 7 4 9 22 6 45 -3 21 -2 40 1 43 8 9 74 -2 85 -13z
m-503 -30 c26 -49 -1 -121 -45 -121 -43 0 -61 73 -29 118 19 27 60 29 74 3z
m198 -14 c2 -20 -5 -36 -27 -57 -39 -40 -48 -38 -47 9 2 68 67 111 74 48z
m713 6 c8 -20 8 -40 0 -72 -9 -32 -9 -47 0 -57 14 -18 3 -67 -21 -89 -16 -15
-22 -15 -35 -5 -8 7 -15 23 -15 36 0 12 -4 25 -9 29 -5 3 -10 32 -10 65 0 50
4 65 25 90 32 37 51 38 65 3z m-1927 -21 c13 -20 31 -44 40 -51 62 -51 59
-166 -3 -146 -27 8 -70 60 -77 93 -3 15 -12 43 -21 63 -12 29 -12 41 -4 58 17
31 38 26 65 -17z m2796 -22 c32 -40 32 -41 14 -63 -37 -43 -54 -42 -59 6 -2
14 -8 34 -15 46 -9 17 -9 26 1 37 17 21 24 18 59 -26z m-2963 0 c7 -14 13 -60
13 -103 0 -69 -3 -81 -25 -102 -13 -14 -30 -25 -38 -25 -51 0 -76 82 -51 171
24 86 73 114 101 59z m-547 -5 c9 -10 11 -40 8 -94 -6 -99 -29 -145 -76 -149
-27 -3 -34 1 -42 23 -14 36 -13 68 6 130 25 89 72 129 104 90z m3438 -62 c2
-24 -4 -55 -12 -72 -9 -16 -16 -39 -16 -49 0 -24 -27 -37 -46 -21 -22 18 -26
65 -9 116 20 60 33 75 59 71 17 -2 22 -11 24 -45z m-3605 11 c34 -22 37 -29
32 -55 -4 -15 1 -87 11 -157 l17 -129 26 10 c20 7 34 28 57 80 55 127 93 123
119 -11 20 -99 14 -145 -25 -184 -35 -35 -77 -36 -142 -4 -32 15 -48 19 -48
11 0 -23 -52 -65 -81 -65 -67 0 -88 64 -69 210 11 86 11 103 -4 145 -24 71
-21 121 9 150 31 32 51 31 98 -1z m1084 -119 c40 -40 41 -69 0 -73 -31 -4 -92
30 -107 58 -8 15 -5 22 17 33 42 22 52 20 90 -18z m2681 6 c16 -10 27 -80 18
-115 -4 -17 -15 -26 -36 -31 -39 -9 -54 4 -70 60 -12 42 -11 46 11 70 24 25
53 31 77 16z m-265 -26 c-1 -5 3 -15 8 -21 5 -6 8 -22 8 -35 -1 -13 2 -32 5
-41 5 -11 0 -21 -17 -33 -21 -13 -33 -14 -63 -6 -45 13 -57 7 -20 -10 26 -12
37 -49 14 -49 -21 1 -104 49 -86 50 24 0 32 18 17 37 -11 13 -10 18 8 32 11
10 24 27 27 39 4 12 19 29 34 37 29 16 68 16 65 0z m694 -35 c28 -56 7 -256
-34 -319 -12 -19 -21 -22 -48 -18 -30 5 -35 2 -43 -23 -11 -31 -68 -64 -99
-58 -16 3 -18 15 -17 123 1 99 5 132 25 190 23 66 26 70 54 70 29 0 30 -2 33
-47 3 -39 7 -48 22 -48 15 0 20 11 25 68 4 37 12 73 18 80 16 20 50 10 64 -18z
m-3393 -2 c35 -49 9 -128 -41 -128 -40 0 -73 36 -73 81 0 38 11 53 45 62 40
10 54 7 69 -15z m-166 -140 c-1 -15 -6 -24 -10 -22 -4 3 -8 -3 -8 -13 -1 -26
-74 -75 -107 -71 -41 5 -66 48 -71 121 -3 49 -1 64 9 65 8 0 28 3 45 7 25 5
38 0 63 -20 l31 -27 0 34 1 33 24 -40 c14 -22 24 -52 23 -67z m3236 60 c8 -24
-1 -65 -28 -130 -6 -13 -2 -19 18 -24 35 -8 34 -43 -2 -109 -72 -131 -156 -77
-88 56 15 30 21 50 14 57 -6 6 -5 34 3 77 16 96 61 135 83 73z m-826 -72 c33
-63 32 -89 -2 -84 -14 2 -30 21 -48 58 -32 65 -34 87 -10 93 22 5 24 3 60 -67z
m594 62 c42 -35 65 -116 37 -133 -24 -15 -80 -9 -100 12 -28 28 -36 94 -14
116 19 20 55 22 77 5z m-2583 -62 c13 -7 33 -11 44 -8 11 3 25 -1 31 -10 6 -8
19 -17 29 -21 16 -6 16 -7 0 -27 -19 -22 -53 -27 -53 -8 0 6 -7 4 -18 -5 -22
-20 -49 -22 -54 -5 -4 10 -14 9 -46 -1 -28 -10 -62 -12 -104 -7 -70 7 -99 26
-82 54 13 19 48 29 114 31 25 1 52 6 60 11 21 13 50 12 79 -4z m2211 -1 c8 -9
8 -15 2 -15 -18 0 -42 12 -42 21 0 14 26 10 40 -6z m116 -40 c19 -29 12 -45
-16 -38 -23 6 -52 42 -44 55 10 16 44 7 60 -17z m102 -27 c25 -13 38 -15 53
-8 13 8 24 7 39 -2 21 -13 27 -38 10 -38 -5 0 -10 -9 -10 -20 0 -11 -8 -23
-17 -26 -10 -3 -28 -11 -40 -16 -16 -8 -30 -7 -53 2 -37 15 -83 67 -73 83 14
24 48 55 53 49 3 -4 20 -15 38 -24z m-2510 -47 c10 -6 6 -15 -18 -35 -17 -14
-38 -26 -46 -26 -23 0 -16 27 12 49 30 23 33 24 52 12z m243 -22 c13 -25 6
-35 -48 -59 -72 -32 -87 2 -20 48 51 37 54 37 68 11z m174 -10 c8 -12 -23 -49
-42 -49 -17 0 -17 10 3 38 17 24 29 28 39 11z m1980 -21 c41 -48 50 -74 35
-93 -18 -22 -25 -19 -70 21 -36 33 -40 34 -40 15 0 -37 -30 -38 -62 -3 -30 34
-37 58 -14 49 10 -4 12 0 9 14 -8 29 22 24 46 -8 18 -25 20 -26 21 -7 0 22 18
44 36 44 7 0 24 -15 39 -32z m319 -4 c9 -4 16 -18 16 -35 0 -38 -90 -146 -139
-166 -46 -19 -44 -16 -24 -51 14 -25 15 -32 4 -46 -21 -25 -47 -19 -90 19 -42
38 -67 86 -57 110 8 22 46 18 73 -6 19 -19 25 -20 38 -9 9 7 22 27 30 44 12
28 116 146 128 146 3 0 12 -3 21 -6z m-2847 -30 c18 -14 33 -31 33 -39 0 -13
36 -31 54 -27 4 2 14 -2 22 -9 10 -8 19 -7 36 5 29 21 68 21 68 1 0 -13 4 -14
20 -5 32 17 74 9 78 -16 2 -15 -8 -29 -36 -48 -33 -22 -43 -25 -66 -17 -14 6
-26 16 -26 23 0 9 -3 9 -12 0 -16 -16 -43 -15 -58 2 -8 10 -18 12 -33 7 -24
-9 -67 3 -67 18 0 5 -10 13 -22 16 -40 13 -68 46 -68 82 0 27 4 33 22 33 11 0
36 -11 55 -26z m-262 -49 c28 -35 36 -51 31 -70 -12 -49 -63 -22 -101 53 -36
73 14 85 70 17z m2621 1 c42 -75 -6 -94 -56 -22 -16 25 -30 48 -30 53 0 5 14
9 32 8 27 0 36 -6 54 -39z m-1877 20 c10 -11 9 -21 -3 -44 -20 -38 -82 -92
-106 -92 -29 0 -25 26 11 82 43 66 74 83 98 54z m-847 -56 c53 -54 58 -63 58
-103 0 -47 -13 -67 -45 -67 -56 0 -158 175 -125 215 23 28 53 16 112 -45z
m-213 11 c15 -16 40 -60 55 -97 16 -38 39 -87 51 -109 12 -22 28 -58 35 -80 7
-22 17 -45 22 -52 15 -19 5 -67 -15 -71 -22 -4 -90 55 -135 117 -34 47 -75
162 -86 244 -12 78 24 101 73 48z m456 0 c3 -5 28 -17 55 -26 48 -16 91 -57
76 -72 -3 -4 3 -17 15 -29 12 -13 19 -30 16 -38 -10 -25 -56 -19 -127 17 -57
28 -67 38 -84 79 -10 25 -16 53 -13 62 7 17 52 22 62 7z m2602 -36 c28 -28 34
-41 31 -67 -4 -47 -39 -50 -78 -8 -32 34 -37 59 -20 91 15 27 27 24 67 -16z
m541 -22 c4 -28 -40 -92 -110 -159 -61 -60 -89 -72 -112 -49 -26 26 -19 46 30
89 26 23 71 65 100 94 56 56 86 65 92 25z m-3884 -146 c47 -110 59 -196 31
-227 -45 -50 -80 -11 -100 112 -8 46 -19 101 -24 122 -5 22 -7 45 -4 50 13 22
38 43 48 39 6 -2 28 -45 49 -96z m3694 76 c6 -40 -86 -112 -110 -87 -4 3 7 25
23 50 45 65 81 80 87 37z m276 21 c23 -9 20 -42 -10 -126 -31 -84 -76 -159
-136 -224 l-41 -45 -56 7 c-66 8 -95 35 -53 48 10 4 28 24 41 46 29 51 69 84
87 69 14 -12 43 32 90 136 23 51 50 95 60 95 1 0 9 -3 18 -6z m-2430 -23 c9
-13 -50 -98 -73 -106 -54 -17 -54 26 -1 77 40 37 63 47 74 29z m-334 -15 c0
-13 -60 -49 -69 -40 -7 7 41 54 56 54 7 0 13 -6 13 -14z m187 3 c14 -14 8 -32
-30 -87 -48 -72 -87 -111 -103 -105 -23 9 -16 36 27 104 65 101 80 114 106 88z
m1860 -21 c53 -59 64 -108 24 -108 -13 0 -12 -4 5 -18 32 -25 48 -62 35 -75
-16 -16 -40 1 -64 43 -12 21 -15 36 -8 43 6 6 -1 27 -20 59 -23 39 -27 53 -18
64 16 19 22 18 46 -8z m-3106 -35 c56 -52 153 -177 163 -210 4 -11 13 -27 21
-33 8 -7 15 -25 15 -40 0 -70 -119 -42 -181 43 -34 45 -71 121 -100 204 -16
47 -16 54 -3 68 23 22 30 19 85 -32z m808 -27 c29 -46 28 -102 -1 -112 -47
-15 -83 89 -46 134 16 19 25 15 47 -22z m-206 -22 c4 -1 11 -2 16 -3 5 0 13
-10 16 -21 3 -11 12 -20 20 -20 7 0 15 -9 18 -21 7 -28 -12 -69 -29 -62 -7 3
-21 -2 -30 -12 -27 -27 -56 -14 -82 35 -13 25 -31 53 -39 62 -17 19 -10 53 10
45 7 -3 21 1 31 9 15 10 23 11 40 1 11 -6 24 -12 29 -13z m364 -5 c15 -15 -1
-46 -50 -103 -25 -29 -38 -38 -52 -33 -14 6 -17 15 -12 48 9 70 79 123 114 88z
m2394 -79 c10 -6 19 -19 19 -30 0 -26 -123 -68 -145 -50 -35 29 -9 64 60 81
43 10 44 10 66 -1z m-2367 -71 c-15 -16 -34 -29 -41 -29 -26 0 -12 39 25 68
35 29 37 29 40 10 2 -12 -8 -32 -24 -49z m-519 -12 c25 -21 36 -38 31 -46 -9
-14 -35 5 -68 52 -26 37 -10 34 37 -6z m2713 14 c27 -23 29 -41 4 -41 -23 0
-56 35 -47 49 9 15 16 13 43 -8z m-2420 -13 c5 -7 18 -38 27 -69 17 -54 17
-57 -1 -77 -27 -32 -53 -28 -70 13 -14 35 -19 126 -7 138 11 11 40 8 51 -5z
m2708 -44 c-10 -37 -68 -94 -98 -94 -27 0 -48 17 -48 38 0 27 43 74 84 93 50
22 73 9 62 -37z m-3013 -14 c77 -57 99 -92 75 -116 -14 -14 -19 -14 -55 4 -70
36 -153 110 -153 138 0 20 5 24 33 24 23 0 52 -15 100 -50z m691 -53 c8 -21 6
-31 -7 -44 -13 -13 -19 -14 -31 -3 -19 15 -19 20 -6 55 12 32 32 28 44 -8z
m2074 -10 c15 -30 2 -67 -23 -67 -36 0 -61 84 -27 93 27 7 36 2 50 -26z
m-2560 -41 c30 -35 49 -87 37 -106 -3 -5 -22 -10 -41 -10 -31 0 -37 4 -54 43
-23 49 -25 78 -8 95 19 19 34 14 66 -22z m121 -154 c13 -48 12 -55 -2 -69 -23
-23 -44 -2 -53 53 -8 53 0 77 23 72 12 -2 23 -21 32 -56z m211 28 c14 -16 33
-29 43 -30 25 0 66 -85 48 -103 -10 -10 -16 -7 -32 13 -35 46 -39 49 -53 44
-19 -7 -56 43 -56 77 0 37 19 37 50 -1z m1652 -3 l97 -12 -35 -70 c-42 -85
-125 -172 -206 -215 -70 -38 -105 -71 -188 -180 -33 -44 -63 -80 -65 -80 -11
0 49 148 99 245 66 127 95 162 151 176 74 18 122 39 171 75 45 33 47 35 19 30
-16 -3 -52 -8 -80 -12 -88 -11 -128 -25 -227 -81 -132 -74 -149 -74 -268 6
-50 33 -112 67 -138 74 l-46 14 36 7 c45 8 115 -8 192 -45 32 -16 67 -29 79
-29 11 0 57 20 102 45 122 66 151 71 307 52z m-931 -49 c20 -9 59 -22 85 -28
164 -36 234 -82 288 -191 30 -62 51 -171 38 -196 -8 -13 -10 -11 -16 11 -3 14
-10 25 -14 23 -4 -1 -39 31 -77 72 -45 47 -112 102 -185 150 -107 71 -161 123
-202 196 -11 19 -11 19 18 0 16 -10 45 -27 65 -37z m-1211 1 c126 -62 230
-168 216 -223 -2 -11 2 -30 10 -40 28 -39 12 -96 -27 -96 -28 0 -113 84 -137
136 -18 37 -35 56 -74 79 -61 37 -118 98 -118 127 0 20 26 58 40 58 3 0 44
-18 90 -41z m662 -26 c23 -27 28 -51 18 -78 -13 -34 -36 -32 -55 5 -18 35 -19
62 -3 78 16 16 22 15 40 -5z m2066 -22 c4 -37 -16 -70 -29 -49 -10 16 -12 72
-2 82 14 13 28 -1 31 -33z m202 -7 c0 -43 -35 -81 -82 -90 -45 -7 -57 10 -38
56 22 52 52 78 88 72 29 -4 32 -8 32 -38z m-2135 -22 c13 -43 9 -72 -10 -72
-35 0 -56 91 -25 110 18 11 22 7 35 -38z m1875 -5 c0 -34 -25 -65 -41 -50 -9
9 -9 19 1 42 15 36 40 41 40 8z m-95 -27 c4 -6 1 -9 -6 -8 -7 2 -15 -8 -19
-22 -7 -29 -40 -41 -40 -14 0 36 50 69 65 44z m-1662 -40 c3 -14 1 -20 -6 -17
-7 2 -14 14 -15 26 -4 28 13 20 21 -9z m1565 5 c2 -27 -15 -42 -30 -27 -7 7
-6 17 1 31 15 28 26 27 29 -4z m-1982 -25 c7 0 25 -18 38 -39 14 -22 34 -42
45 -46 23 -7 34 -31 26 -56 -5 -14 -13 -17 -43 -12 -20 3 -52 12 -71 19 -19 8
-36 12 -39 10 -9 -10 20 -74 46 -98 15 -14 52 -38 82 -53 30 -15 74 -45 97
-66 23 -21 73 -54 111 -73 79 -40 102 -65 102 -113 0 -24 12 -46 51 -90 28
-32 56 -70 61 -85 9 -25 15 -28 55 -28 29 0 79 14 141 39 54 21 149 55 212 76
63 21 136 48 163 62 55 27 59 21 16 -23 l-30 -31 53 -7 c29 -4 64 -9 78 -12
17 -3 13 2 -15 16 -22 11 -35 20 -29 20 7 0 9 24 6 74 -5 76 22 266 38 266 26
0 26 -168 0 -252 -26 -83 -25 -88 8 -88 41 0 125 -31 228 -83 113 -58 192 -81
244 -72 33 6 40 11 40 29 0 15 20 42 55 75 l55 53 -25 30 c-32 38 -32 53 3 84
41 39 81 56 116 51 17 -3 50 -9 74 -13 34 -5 46 -3 62 11 11 10 20 24 20 30 0
20 56 75 77 75 11 0 23 11 30 28 7 15 21 43 32 62 11 19 26 57 34 85 8 27 21
54 30 59 26 17 70 -5 91 -45 18 -34 19 -41 6 -93 -7 -31 -21 -69 -31 -86 -22
-35 -74 -70 -106 -70 -13 0 -23 -6 -23 -14 0 -17 -200 -261 -240 -294 -50 -39
-141 -75 -215 -84 -245 -29 -282 -23 -423 66 -87 56 -90 57 -133 47 -24 -6
-88 -11 -142 -11 -66 0 -110 -5 -135 -16 -88 -37 -241 -92 -289 -103 -29 -7
-50 -17 -47 -22 3 -5 -12 -9 -33 -10 l-38 -1 30 -13 c25 -11 26 -13 10 -17
-16 -4 -12 -7 15 -16 34 -10 35 -11 10 -18 -24 -8 -24 -9 10 -14 l35 -5 -55
-27 c-30 -15 -74 -32 -98 -37 -38 -8 -41 -7 -30 7 7 8 27 24 43 34 l30 20 -57
-7 c-32 -4 -58 -4 -58 -1 0 3 17 14 38 25 29 16 33 20 15 21 -12 0 -29 3 -39
7 -14 5 -6 11 32 24 l49 18 -39 -2 c-32 -1 -43 4 -67 31 l-29 33 -88 -7 c-111
-8 -160 12 -186 76 -9 22 -16 45 -16 51 0 6 -14 27 -31 47 -29 33 -31 39 -25
89 l6 54 -64 28 c-78 35 -98 56 -125 130 -25 69 -27 124 -5 197 21 72 37 88
86 80 31 -5 38 -3 38 10 0 11 5 14 16 10 9 -3 22 -6 30 -6z m1244 -75 c0 -22
-3 -51 -7 -64 -6 -23 -7 -23 -14 -5 -9 24 -11 81 -2 112 9 34 23 7 23 -43z
m999 3 c-2 -51 -12 -80 -36 -95 -21 -14 -22 -13 -28 20 -9 46 17 107 44 107
17 0 21 -6 20 -32z m-2050 -55 c9 -17 14 -54 12 -80 -2 -20 -39 -15 -51 6 -11
22 -14 74 -3 84 12 12 32 7 42 -10z m1969 -59 c4 -30 -45 -86 -72 -82 -52 7
-10 112 43 106 18 -2 27 -10 29 -24z m-1838 -3 c15 -28 12 -61 -5 -61 -17 0
-35 30 -35 59 0 26 26 27 40 2z m123 -19 c25 -27 34 -82 14 -82 -32 0 -71 73
-50 93 10 11 19 8 36 -11z m1565 -29 c4 -28 -40 -78 -61 -70 -24 9 -21 31 9
67 29 34 47 35 52 3z m-1444 8 c8 -13 -4 -42 -15 -35 -12 7 -12 44 0 44 6 0
12 -4 15 -9z m1326 -50 c-13 -25 -38 -27 -47 -4 -4 11 3 25 23 41 29 25 29 25
32 4 2 -11 -2 -30 -8 -41z m-83 32 c5 -13 -43 -30 -54 -20 -3 4 -3 13 1 22 7
19 47 17 53 -2z m99 -548 c-11 -8 -25 -15 -32 -15 -7 0 -20 -7 -28 -15 -22
-22 -103 -30 -156 -14 l-45 13 50 12 c28 7 46 13 40 14 -21 5 63 17 125 18 59
1 63 0 46 -13z m-188 -91 c12 -4 22 -10 22 -15 0 -13 -41 -10 -75 6 l-30 13
30 1 c17 0 40 -2 53 -5z m-38 -46 c32 -15 40 -22 27 -25 -23 -6 -82 14 -97 33
-19 22 16 18 70 -8z m-1022 -7 c-29 -41 -100 -89 -158 -106 -47 -14 39 64 105
96 71 34 70 34 53 10z m915 -45 c30 -12 79 -56 63 -56 -14 0 -83 39 -95 54
-16 20 -10 20 32 2z m-922 -25 c-17 -32 -99 -116 -106 -109 -11 10 21 63 60
97 41 35 61 41 46 12z m880 -13 c21 -12 50 -39 64 -60 24 -37 22 -51 -3 -26
-10 10 -14 10 -21 0 -6 -10 -19 0 -48 35 -67 81 -65 92 8 51z m-851 -26 c0
-13 -55 -96 -74 -112 -17 -13 -17 -12 -2 24 27 64 76 121 76 88z m54 -62 c-30
-55 -64 -92 -64 -70 0 31 63 117 88 120 2 0 -9 -22 -24 -50z m96 43 c0 -13
-59 -111 -70 -118 -26 -16 3 68 38 108 16 18 32 23 32 10z m617 -35 c28 -31
53 -69 53 -83 0 -3 -9 -1 -20 5 -17 9 -80 91 -80 104 0 14 18 4 47 -26z m-571
-50 c-17 -56 -55 -116 -56 -87 0 26 27 108 46 137 24 37 29 13 10 -50z m570
-30 c20 -38 18 -51 -4 -39 -17 9 -72 99 -72 117 0 13 61 -49 76 -78z m-470 1
c-3 -33 -10 -68 -15 -77 -15 -27 -24 48 -11 96 17 65 34 53 26 -19z m255 0
c24 -47 25 -67 3 -48 -17 14 -37 51 -49 89 -7 23 -6 24 9 11 10 -8 26 -32 37
-52z m84 -14 l7 -30 -21 25 c-11 14 -25 39 -31 55 l-11 30 25 -25 c14 -14 28
-38 31 -55z m81 -2 c16 -37 18 -57 5 -49 -16 10 -71 99 -71 114 0 23 50 -26
66 -65z m-337 -3 c0 -19 -4 -44 -8 -55 -7 -16 -9 -13 -15 19 -9 46 2 106 15
85 5 -8 8 -30 8 -49z m70 -45 l-1 -40 -13 30 c-8 17 -14 48 -14 70 l1 40 13
-30 c8 -16 14 -48 14 -70z"/>
<path d="M2610 3745 c0 -106 74 -178 206 -200 35 -5 45 -2 72 20 43 36 68 73
75 113 6 27 2 38 -18 58 -31 31 -65 32 -65 2 0 -23 -72 -98 -94 -98 -23 0 -50
40 -55 83 -5 38 -9 42 -36 45 -16 2 -34 8 -39 13 -6 5 -18 9 -28 9 -15 0 -18
-8 -18 -45z"/>
<path d="M2950 3470 c0 -5 5 -10 10 -10 6 0 10 5 10 10 0 6 -4 10 -10 10 -5 0
-10 -4 -10 -10z"/>
<path d="M4783 3710 c-15 -6 -23 -18 -23 -34 0 -46 -30 -106 -56 -112 -31 -8
-50 8 -65 54 -6 20 -13 40 -15 44 -8 13 -77 -17 -92 -40 -16 -24 -15 -26 23
-59 38 -33 43 -35 93 -29 30 4 71 15 91 26 44 22 91 73 91 98 0 9 3 27 6 40 7
24 -12 29 -53 12z"/>
<path d="M4505 3460 c-8 -13 5 -13 25 0 13 8 13 10 -2 10 -9 0 -20 -4 -23 -10z"/>
<path d="M2465 3210 c-3 -5 -1 -10 4 -10 6 0 11 5 11 10 0 6 -2 10 -4 10 -3 0
-8 -4 -11 -10z"/>
<path d="M3128 1123 c7 -3 16 -2 19 1 4 3 -2 6 -13 5 -11 0 -14 -3 -6 -6z"/>
</g>
</svg>
