<svg width="115" height="150" viewBox="0 0 115 150" fill="none" xmlns="http://www.w3.org/2000/svg">
<path fill-rule="evenodd" clip-rule="evenodd" d="M57.4319 2.70344e-06C45.8311 -0.0038553 34.6076 4.12164 25.771 11.6379C16.9344 19.1541 11.0616 29.5702 9.2042 41.0214C7.34676 52.4726 9.62591 64.211 15.6336 74.1351C21.6413 84.0591 30.9853 91.5208 41.9925 95.1841C44.4188 95.637 45.3246 94.1246 45.3246 92.8305C45.3246 91.6659 45.2842 87.8243 45.2599 83.74C31.6726 86.692 28.8096 77.9815 28.8096 77.9815C26.5854 72.3202 23.3827 70.832 23.3827 70.832C18.9507 67.7991 23.7143 67.8638 23.7143 67.8638C28.6235 68.2116 31.2035 72.8944 31.2035 72.8944C35.5628 80.3593 42.6314 78.208 45.4136 76.9382C45.8584 73.784 47.1201 71.6327 48.5193 70.4115C37.706 69.1902 26.2619 65.0008 26.2619 46.2859C26.1893 41.425 27.9941 36.7234 31.3006 33.1595C30.791 31.9302 29.1169 26.9644 31.7697 20.2192C31.7697 20.2192 35.8701 18.909 45.2033 25.2255C53.2115 23.0364 61.6604 23.0364 69.6686 25.2255C78.9533 18.9414 83.0861 20.2192 83.0861 20.2192C85.7388 26.9482 84.0728 31.914 83.5632 33.1595C86.8606 36.7214 88.6593 41.4165 88.5857 46.2697C88.5857 65.0331 77.1659 69.1579 66.2879 70.371C68.0349 71.8834 69.5958 74.8597 69.5958 79.4131C69.5958 85.9479 69.5473 91.213 69.5473 92.8144C69.5473 94.1165 70.4207 95.637 72.8956 95.1598C83.8869 91.4826 93.2123 84.0167 99.2053 74.0962C105.198 64.1758 107.468 52.4475 105.609 41.0075C103.75 29.5675 97.8832 19.1613 89.0574 11.649C80.2317 4.13662 69.022 0.00763995 57.4319 2.70344e-06Z" fill="#A8B6BF"/>
<path d="M27.0868 70.1203C26.9817 70.3629 26.6015 70.4357 26.278 70.274C25.9545 70.1122 25.72 69.7806 25.8332 69.538C25.9464 69.2954 26.3266 69.2226 26.642 69.3843C26.9574 69.5461 27.2 69.8777 27.0787 70.1203H27.0868Z" fill="#A8B6BF"/>
<path d="M29.0683 72.3282C28.8338 72.5466 28.3809 72.4415 28.0655 72.1018C27.918 71.9825 27.8217 71.8115 27.7962 71.6236C27.7706 71.4357 27.8178 71.2451 27.928 71.0908C28.1706 70.8725 28.6073 70.9776 28.9308 71.3173C29.2544 71.657 29.311 72.126 29.0683 72.3282Z" fill="#A8B6BF"/>
<path d="M30.9932 75.1428C30.694 75.353 30.1845 75.1428 29.9014 74.7222C29.6183 74.3016 29.6021 73.7678 29.9014 73.5576C30.2006 73.3473 30.7102 73.5576 30.9932 73.97C31.2763 74.3825 31.2925 74.9325 30.9932 75.1428Z" fill="#A8B6BF"/>
<path d="M33.6621 77.8602C33.5638 77.9314 33.4522 77.9823 33.3339 78.0099C33.2157 78.0375 33.0931 78.0412 32.9734 78.0209C32.8536 78.0005 32.7392 77.9565 32.6366 77.8915C32.5341 77.8264 32.4456 77.7415 32.3762 77.6419C31.9475 77.2456 31.8262 76.6875 32.1012 76.3964C32.3762 76.1052 32.91 76.178 33.3629 76.5824C33.8158 76.9868 33.9129 77.5367 33.6298 77.8279L33.6621 77.8602Z" fill="#A8B6BF"/>
<path d="M37.2693 79.4373C37.148 79.8175 36.6061 79.9954 36.048 79.8336C35.49 79.6719 35.1341 79.219 35.2393 78.8308C35.3444 78.4425 35.9025 78.2646 36.4605 78.4345C37.0186 78.6043 37.3744 79.0491 37.2693 79.4373Z" fill="#A8B6BF"/>
<path d="M41.2646 79.7285C41.2646 80.1329 40.8116 80.4645 40.2293 80.4726C39.647 80.4807 39.1779 80.1652 39.1698 79.7609C39.1618 79.3565 39.6228 79.0249 40.2132 79.0168C40.8036 79.0087 41.2646 79.3322 41.2646 79.7285Z" fill="#A8B6BF"/>
<path d="M44.9849 79.0977C45.0577 79.4939 44.6533 79.9064 44.0791 80.0035C43.5049 80.1005 42.9873 79.866 42.9145 79.4697C42.8417 79.0734 43.2541 78.6609 43.8203 78.5639C44.3864 78.4668 44.9121 78.7014 44.9849 79.0977Z" fill="#A8B6BF"/>
<path d="M22.0177 132.315H12.4133C12.354 132.314 12.2952 132.326 12.2403 132.348C12.1855 132.371 12.1356 132.404 12.0937 132.446C12.0517 132.488 12.0186 132.538 11.9961 132.592C11.9736 132.647 11.9622 132.706 11.9626 132.765V137.46C11.9626 137.519 11.9743 137.578 11.9969 137.632C12.0196 137.687 12.0528 137.737 12.0946 137.778C12.1365 137.82 12.1862 137.853 12.2408 137.876C12.2955 137.899 12.3541 137.91 12.4133 137.91H16.1586V143.747C16.1586 143.747 15.3175 144.033 12.9846 144.033C10.2392 144.033 6.40503 143.03 6.40503 134.6C6.40503 126.17 10.4042 125.056 14.1526 125.056C17.3996 125.056 18.7961 125.627 19.6848 125.903C19.7501 125.916 19.8174 125.914 19.8818 125.898C19.9463 125.881 20.0064 125.851 20.0578 125.809C20.1093 125.767 20.1509 125.714 20.1797 125.654C20.2085 125.594 20.2237 125.529 20.2244 125.462L21.294 120.923C21.2961 120.856 21.2815 120.788 21.2517 120.728C21.2218 120.667 21.1775 120.614 21.1226 120.574C20.7608 120.314 18.5581 119.083 12.991 119.083C6.5796 119.083 0 121.812 0 134.927C0 148.042 7.53178 150 13.8797 150C19.1326 150 22.3224 147.753 22.3224 147.753C22.3729 147.713 22.4126 147.661 22.4381 147.601C22.4636 147.542 22.474 147.478 22.4684 147.413V132.765C22.4684 132.646 22.4209 132.531 22.3364 132.447C22.2519 132.362 22.1372 132.315 22.0177 132.315Z" fill="#A8B6BF"/>
<path d="M71.5281 120.67C71.5306 120.61 71.5215 120.552 71.5011 120.496C71.4808 120.441 71.4496 120.39 71.4095 120.346C71.3694 120.303 71.321 120.268 71.2673 120.243C71.2136 120.219 71.1555 120.205 71.0964 120.203H65.7007C65.638 120.199 65.575 120.208 65.5161 120.23C65.4571 120.252 65.4034 120.286 65.3585 120.33C65.3136 120.374 65.2784 120.427 65.2554 120.485C65.2323 120.544 65.2218 120.607 65.2246 120.67V131.109H56.7946V120.67C56.795 120.611 56.7838 120.552 56.7615 120.497C56.7392 120.443 56.7063 120.393 56.6647 120.351C56.6231 120.309 56.5736 120.276 56.5191 120.253C56.4646 120.231 56.4061 120.219 56.3471 120.219H50.9514C50.8913 120.217 50.8315 120.228 50.7755 120.249C50.7195 120.271 50.6685 120.304 50.6256 120.346C50.5826 120.389 50.5486 120.439 50.5255 120.494C50.5024 120.55 50.4907 120.609 50.4912 120.67V148.959C50.4907 149.018 50.502 149.077 50.5243 149.132C50.5465 149.187 50.5794 149.236 50.6209 149.279C50.6625 149.321 50.7119 149.354 50.7665 149.377C50.821 149.4 50.8795 149.412 50.9387 149.413H56.3344C56.3936 149.412 56.4521 149.4 56.5066 149.377C56.5612 149.354 56.6106 149.321 56.6522 149.279C56.6937 149.236 56.7266 149.187 56.7488 149.132C56.7711 149.077 56.7823 149.018 56.7819 148.959V136.857H65.2246V148.965C65.2242 149.024 65.2355 149.083 65.2577 149.138C65.28 149.193 65.3128 149.243 65.3544 149.285C65.3959 149.327 65.4454 149.361 65.4999 149.384C65.5544 149.407 65.613 149.419 65.6722 149.419H71.0964C71.2157 149.417 71.3295 149.369 71.4133 149.284C71.497 149.199 71.544 149.085 71.544 148.965L71.5281 120.67Z" fill="#A8B6BF"/>
<path d="M32.2251 124.367C32.2182 123.678 32.0076 123.007 31.6198 122.437C31.232 121.868 30.6844 121.426 30.0458 121.167C29.4073 120.908 28.7064 120.844 28.0315 120.982C27.3566 121.121 26.7377 121.456 26.253 121.946C25.7682 122.435 25.4391 123.057 25.3072 123.734C25.1753 124.41 25.2464 125.11 25.5117 125.746C25.7769 126.382 26.2244 126.925 26.7978 127.307C27.3711 127.69 28.0448 127.893 28.7338 127.893C29.1952 127.893 29.6521 127.802 30.078 127.624C30.5039 127.447 30.8903 127.186 31.215 126.859C31.5396 126.531 31.7961 126.142 31.9695 125.714C32.1428 125.286 32.2297 124.829 32.2251 124.367Z" fill="#A8B6BF"/>
<path d="M31.8379 142.989V129.922C31.8379 129.803 31.7908 129.688 31.707 129.604C31.6232 129.52 31.5093 129.472 31.3904 129.471H25.9946C25.8686 129.483 25.7514 129.542 25.6654 129.635C25.5795 129.728 25.5306 129.849 25.5281 129.976V148.702C25.5281 149.254 25.8709 149.416 26.3152 149.416H31.1714C31.7046 149.416 31.8347 149.156 31.8347 148.696L31.8379 142.989Z" fill="#A8B6BF"/>
<path d="M92.0826 129.515H86.7154C86.6567 129.516 86.5986 129.528 86.5444 129.551C86.4903 129.574 86.4412 129.607 86.3999 129.649C86.3587 129.691 86.326 129.74 86.3039 129.795C86.2818 129.849 86.2707 129.907 86.2711 129.966V143.839C85.2901 144.483 84.1437 144.83 82.9702 144.836C81.0341 144.836 80.5199 143.96 80.5199 142.062V129.966C80.5203 129.907 80.5092 129.849 80.4871 129.795C80.465 129.74 80.4323 129.691 80.3911 129.649C80.3498 129.607 80.3007 129.574 80.2466 129.551C80.1924 129.528 80.1343 129.516 80.0756 129.515H74.6259C74.5671 129.516 74.509 129.528 74.4549 129.551C74.4007 129.574 74.3516 129.607 74.3104 129.649C74.2691 129.691 74.2365 129.74 74.2144 129.795C74.1923 129.849 74.1811 129.907 74.1815 129.966V142.979C74.1815 148.61 77.3174 149.987 81.634 149.987C85.1729 149.987 88.0295 148.029 88.0295 148.029C88.0743 148.417 88.14 148.803 88.2263 149.184C88.2654 149.255 88.3221 149.315 88.3911 149.358C88.46 149.401 88.5388 149.425 88.6198 149.429H92.0858C92.2048 149.428 92.3186 149.38 92.4024 149.296C92.4863 149.211 92.5333 149.097 92.5333 148.978V129.966C92.5325 129.847 92.4847 129.733 92.4004 129.648C92.316 129.564 92.2019 129.516 92.0826 129.515Z" fill="#A8B6BF"/>
<path d="M106.756 128.877C104.957 128.866 103.189 129.336 101.633 130.239V120.67C101.633 120.611 101.622 120.552 101.6 120.497C101.578 120.443 101.545 120.393 101.503 120.351C101.461 120.309 101.412 120.276 101.357 120.253C101.303 120.231 101.245 120.219 101.185 120.219H95.7612C95.7022 120.219 95.6437 120.231 95.5892 120.253C95.5347 120.276 95.4852 120.309 95.4436 120.351C95.402 120.393 95.3691 120.443 95.3468 120.497C95.3245 120.552 95.3133 120.611 95.3137 120.67V148.959C95.3133 149.018 95.3245 149.077 95.3468 149.132C95.369 149.187 95.4019 149.236 95.4434 149.279C95.485 149.321 95.5344 149.354 95.589 149.377C95.6435 149.4 95.702 149.412 95.7612 149.413H99.5255C99.6067 149.411 99.686 149.388 99.7552 149.346C99.8245 149.304 99.881 149.243 99.9191 149.172C100.027 148.743 100.104 148.307 100.148 147.867C100.148 147.867 102.369 149.968 106.565 149.968C111.494 149.968 114.319 147.467 114.319 138.742C114.319 130.017 109.819 128.877 106.756 128.877ZM104.639 144.826C103.537 144.798 102.46 144.488 101.512 143.925V134.952C102.365 134.465 103.31 134.158 104.286 134.051C106.219 133.88 108.095 134.464 108.095 139.072C108.082 143.944 107.241 144.906 104.639 144.826Z" fill="#A8B6BF"/>
<path d="M47.3839 129.468H43.3276V124.11C43.3276 123.907 43.2228 123.793 42.988 123.793H37.4526C37.2368 123.793 37.1352 123.888 37.1352 124.094V129.645C37.1352 129.645 34.3644 130.315 34.1771 130.369C34.0847 130.397 34.0039 130.454 33.9467 130.532C33.8895 130.61 33.8589 130.704 33.8597 130.801V134.292C33.8618 134.405 33.906 134.512 33.9835 134.594C34.061 134.676 34.1663 134.725 34.2787 134.733H37.1352V143.106C37.1352 149.327 41.4994 149.937 44.4353 149.937C45.5279 149.903 46.6112 149.725 47.6568 149.406C47.7356 149.373 47.8022 149.316 47.8476 149.243C47.893 149.171 47.915 149.086 47.9108 149V145.172C47.9099 145.054 47.8626 144.94 47.779 144.856C47.6953 144.771 47.582 144.723 47.4632 144.722C47.2252 144.722 46.6221 144.817 46 144.817C44.0068 144.817 43.3308 143.89 43.3308 142.69V134.733H47.3871C47.4462 134.733 47.5048 134.721 47.5593 134.698C47.6138 134.675 47.6633 134.641 47.7048 134.599C47.7464 134.557 47.7792 134.507 47.8015 134.452C47.8238 134.397 47.835 134.339 47.8346 134.279V129.922C47.835 129.862 47.8237 129.803 47.8012 129.748C47.7787 129.693 47.7456 129.643 47.7037 129.601C47.6618 129.559 47.612 129.525 47.5571 129.502C47.5022 129.479 47.4433 129.468 47.3839 129.468Z" fill="#A8B6BF"/>
</svg>
