<svg width="184" height="130" viewBox="0 0 184 130" fill="none" xmlns="http://www.w3.org/2000/svg">
<path d="M18.3031 114.847V99.7244H20.3467H22.3903V113.213V126.701H29.7474C36.5594 126.701 37.1043 126.853 37.1043 128.335C37.1043 129.876 36.5594 129.97 27.7036 129.97H18.3031V114.847ZM42.009 118.526C42.009 107.626 42.0854 107.081 43.6439 107.081C45.2009 107.081 45.2787 107.631 45.2787 118.526C45.2787 129.425 45.2024 129.97 43.6439 129.97C42.0869 129.97 42.009 129.421 42.009 118.526ZM53.8816 128.021C49.6934 123.833 49.3324 114.095 53.1948 109.504C55.3438 106.95 59.422 105.74 62.9183 106.616C65.4561 107.257 68.9842 110.593 68.9842 112.358C68.9842 114.371 65.4135 113.915 64.4777 111.778C63.6245 109.833 61.0647 109.084 57.9471 109.865C52.7544 111.163 53.3382 125.815 58.6355 127.145C61.0139 127.74 63.6915 126.489 64.9065 124.225C65.9413 122.293 68.9837 122.049 68.9837 123.905C68.9837 124.607 67.9092 126.269 66.5943 127.583C64.5752 129.601 63.5556 129.972 60.0175 129.972C56.6948 129.972 55.4276 129.575 53.8805 128.023L53.8816 128.021ZM75.5314 127.655C71.245 123.367 71.2296 114.078 75.5009 109.298C77.5962 106.952 78.3128 106.677 82.3195 106.677C85.6404 106.677 87.2701 107.104 88.6302 108.312C90.8138 110.258 92.6904 114.402 92.6904 117.277V119.347H84.4137H76.1372L76.65 122.003C77.6467 127.162 83.0426 129.149 87.1909 125.886C89.7353 123.885 92.2641 123.686 91.5512 125.55C91.2779 126.267 91.0551 126.985 91.0551 127.165C91.0551 128.264 85.5721 129.979 82.0411 129.979C78.5279 129.979 77.4752 129.598 75.5308 127.661L75.5314 127.655ZM88.6035 115.206C88.6035 113.97 86.8959 110.879 85.8244 110.163C85.3298 109.827 83.8214 109.568 82.4725 109.568C79.5666 109.568 78.5439 110.163 77.2816 112.555C75.5973 115.755 76.0804 116.084 82.4725 116.084C86.267 116.084 88.6035 115.748 88.6035 115.214V115.206ZM97.5953 118.529C97.5953 107.629 97.6716 107.084 99.2303 107.084C100.343 107.084 100.865 107.634 100.865 108.792C100.865 110.436 100.957 110.421 103.38 108.38C106.706 105.582 110.839 105.538 113.573 108.228C115.481 110.137 115.579 110.717 115.579 120.081C115.579 129.383 115.488 129.927 113.944 129.927C112.419 129.927 112.309 129.378 112.309 121.806C112.309 111.129 111.676 109.491 107.552 109.491C102.448 109.491 101.481 111.251 101.032 121.353C100.69 129.047 100.493 129.927 99.1231 129.927C97.7037 129.927 97.5953 129.118 97.5953 118.483V118.529ZM123.234 129.018C122.274 128.545 121.086 127.29 120.595 126.212C119.816 124.503 119.908 124.251 121.318 124.251C122.208 124.251 123.671 124.984 124.57 125.886C125.633 126.954 127.295 127.52 129.319 127.52C133.306 127.52 135.438 125.99 135.071 123.389C134.848 121.81 134.016 121.165 131.11 120.319C124.762 118.471 122.109 116.977 121.274 114.78C118.723 108.07 129.882 103.72 136.43 108.872C138.81 110.743 138.983 111.616 137.117 112.332C136.295 112.652 135.165 112.179 134.224 111.187C132.379 109.207 126.916 108.916 125.42 110.714C123.451 113.086 124.822 114.655 130.462 116.484C137.411 118.736 138.47 119.641 138.454 123.318C138.44 126.743 137.925 127.723 135.455 129.022C133.27 130.167 125.621 130.167 123.233 129.022L123.234 129.018ZM146.819 128.697C142.69 125.805 141.221 117.582 143.752 111.524C146.039 106.051 155.151 104.596 159.557 109.001C161.447 110.891 163.384 117.863 162.316 118.932C162.088 119.161 158.468 119.344 154.272 119.344C146.642 119.344 146.642 119.344 146.642 121.424C146.642 126.38 153.778 129.373 157.269 125.883C158.168 124.982 159.456 124.248 160.13 124.248C162.063 124.248 161.563 126.42 159.202 128.276C156.533 130.375 149.555 130.611 146.819 128.688L146.819 128.697ZM158.583 114.783C158.309 114.066 158.087 113.179 158.087 112.799C158.087 111.129 155.288 109.537 152.352 109.537C149.01 109.537 146.642 111.647 146.642 114.624C146.642 115.891 147.447 116.074 152.861 116.074C158.195 116.074 159.008 115.891 158.583 114.777L158.583 114.783ZM42.009 100.137C42.009 98.6407 42.4456 98.0928 43.6439 98.0928C44.8436 98.0928 45.2787 98.6422 45.2787 100.137C45.2787 101.632 44.8422 102.18 43.6439 102.18C42.4442 102.18 42.009 101.631 42.009 100.137ZM10.1287 83.788V79.2914H5.22399H0.319275V74.7963V70.2998H5.22399H10.1287V65.8032V61.3082H5.22399H0.319275V30.6533V0H39.1479H77.9766V30.6136V61.2257L73.2764 61.4699L68.5761 61.7142L68.3288 66.0047L68.0815 70.2967H73.029H77.9763V74.7933V79.2883H73.0717H68.167V83.7849V88.28H63.2623H58.3576V83.7849V79.2883H63.2623H68.167V74.7933V70.2967H63.2196H58.2723L58.5195 66.0047L58.7668 61.7142L63.4671 61.4699L68.1675 61.2257V57.2206V53.2155L63.4671 52.9713L58.7668 52.7271L58.5455 36.1741L58.3241 19.621H52.6189H46.9137V53.9543V88.2861H39.5567H32.1996V53.9543V19.621H26.0688H19.938V36.3786V53.1362H15.0333H10.1287V57.2237V61.3112H15.0333H19.938V65.8063V70.3028H15.0333H10.1287V74.7994V79.2944H15.0333H19.938V83.791V88.2861H15.0333H10.1287V83.791V83.788ZM89.4209 44.1415V0H99.2303H109.04V44.1415V88.283H99.2303H89.4209V44.1415ZM151.547 83.788V79.2914H147.051H142.555V74.7963V70.2998H147.051H151.547V65.8032V61.3082H146.846L142.146 61.3097L142.378 40.4631L142.61 19.6179H131.548H120.485V9.80821V0H151.983H183.481L183.25 9.6052L183.02 19.2089L172.188 19.4378L161.357 19.6668V36.4015V53.1346H156.408H151.458L151.707 57.0176L151.956 60.9006L156.656 61.1448L161.357 61.389V65.8032V70.2189L156.656 70.4631L151.956 70.7073V74.7948V78.8808L156.656 79.125L161.357 79.3692V83.8246V88.2784H156.452H151.547V83.7834L151.547 83.788Z" fill="#A8B6BF"/>
</svg>
