<svg width="145" height="200" viewBox="0 0 145 200" fill="none" xmlns="http://www.w3.org/2000/svg">
<path d="M47.2921 67.618C51.9967 68.018 55.5149 69.018 60.2399 67.7453C61.0581 67.5271 61.5899 68.2907 61.099 68.9089C58.4194 72.1453 50.0739 70.218 46.9648 68.4907C46.4535 68.1998 46.6989 67.5634 47.2921 67.618ZM143.899 169.728C142.958 177.728 142.222 189.837 131.913 192.746C125.367 194.582 117.901 194.473 111.09 194.855C107.306 195.073 103.542 195.273 99.7787 195.619C96.465 195.928 92.9264 196.782 89.5718 196.4C88.4673 196.273 87.2195 195.928 86.0536 195.4C85.9718 195.509 85.8491 195.582 85.7059 195.637C83.415 196.419 80.5718 196.419 78.5672 195.346C77.6059 196.182 76.0513 195.637 74.9468 194.909C74.4763 196.6 73.5354 198.182 71.8786 199.2C69.4854 200.673 66.5195 199.982 64.7399 198.182C62.674 199.437 59.974 199.109 57.6217 198.819C56.2512 198.655 54.799 198.346 53.5717 197.728C53.5103 197.782 53.4285 197.837 53.3262 197.891C50.2376 199.328 45.1853 198.855 43.1603 196.091C39.4989 196.219 37.1466 193.073 38.0671 189.946C38.7421 187.618 40.7057 185.946 43.1194 184.673C41.8921 180.237 48.9489 177.4 53.1012 175.909C53.4694 169.891 54.083 163.837 54.6967 157.818C51.4649 155.6 49.4603 152.146 47.7626 148.927C45.3898 144.455 42.833 140.382 39.3353 136.527C39.4171 140.618 39.3148 144.727 38.8648 148.782C38.3534 153.437 37.3716 158.037 36.7784 162.691C36.1239 167.8 36.3284 172.728 37.0034 177.818C37.5557 181.982 38.3944 186.709 37.6171 190.891C37.0239 194.128 33.4852 195.437 30.3966 196.455C27.3079 197.473 23.6875 197.855 20.8034 196.237C18.3079 197.164 15.0965 196.782 12.8056 195.4C9.12378 197.073 5.17603 194.709 3.88739 191.582C0.0214687 190.873 -1.18535 185.746 1.28966 183.182C4.23512 180.146 9.94196 179.728 14.3193 179.837C13.5624 168.8 12.9283 157.818 11.292 146.855C10.5556 141.909 10.8829 137 10.9033 132.036C10.9238 127.309 10.4942 122.582 9.63515 117.909C8.73514 113.055 7.46695 108.345 6.85331 103.455C6.28059 98.8545 5.97376 94.2545 5.9124 89.6363C5.78967 80.0181 5.6874 70.1998 7.56923 60.7089C9.24651 52.2361 12.7647 44.1088 17.4284 36.5997C17.4693 36.5451 17.4897 36.5088 17.5511 36.4542C17.6738 34.6724 17.817 32.927 17.817 31.3451C17.7965 28.1997 17.817 25.3269 16.1193 22.5451C14.7897 20.3633 13.0511 18.236 13.3579 15.6542C13.5829 13.7087 14.3397 12.0541 13.9306 10.0723C13.5829 8.36322 12.7647 6.8723 12.8261 5.10866C12.9079 2.79956 14.4624 1.12682 16.917 0.454095C22.2147 -0.982274 27.5329 1.21773 32.1148 3.85411C32.1966 3.7632 32.3193 3.69047 32.4625 3.65411C42.2603 1.16319 53.6535 1.83592 62.7149 6.25412C67.4808 4.50866 80.1013 -3.05501 80.8582 4.83593C81.2059 8.43594 78.5877 12.5996 77.0741 15.8178C76.1945 17.6723 76.0104 19.5633 75.3763 21.4542C75.1309 22.1451 74.824 22.636 74.2718 23.0724C75.4377 27.7451 76.0513 32.436 75.4172 37.2179C75.3354 37.7633 75.2536 38.2906 75.1309 38.7997C76.3991 40.927 78.465 42.4543 79.2422 44.8906C79.8968 46.9816 79.9582 49.1997 80.0809 51.3634C94.3173 58.4725 106.447 68.8907 114.629 81.4544C119.252 88.5635 122.606 96.3272 126.083 103.909C129.54 111.491 133.12 119.091 135.902 126.873C135.922 126.909 135.922 126.946 135.922 126.982C137.845 129.091 139.44 131.473 140.565 134.164C145.188 145.236 145.27 158.127 143.899 169.728ZM138.786 138.764C139.42 140.436 139.89 142.164 140.197 143.909C140.606 143.964 140.974 144.073 141.322 144.218C141.24 143.782 141.158 143.327 141.077 142.891C140.79 141.418 140.463 139.946 140.033 138.491C139.645 138.673 139.236 138.764 138.786 138.764ZM140.299 153C141.199 153 142.058 153.309 142.549 153.927C142.447 152.455 142.304 151 142.12 149.527C141.997 149.6 141.854 149.673 141.711 149.727C141.383 149.855 140.995 149.927 140.586 149.964C140.545 150.964 140.443 151.982 140.299 153ZM109.311 78.4362C108.226 76.9453 107.061 75.4726 105.854 74.018C105.895 74.9089 105.833 75.7089 105.731 76.2362C106.365 76.9817 106.979 77.7635 107.551 78.5453C108.124 78.4362 108.717 78.3999 109.311 78.4362ZM13.0102 135.709C13.0102 136.146 12.9897 136.582 12.9692 137C12.9692 137.382 12.9692 137.782 12.9692 138.164C13.2761 138.273 13.542 138.509 13.6238 138.855C13.8283 138.982 14.1352 139.036 14.4829 139.073C14.442 138.2 14.3806 137.346 14.3397 136.473C14.1761 136.418 14.0124 136.364 13.8693 136.291C13.5215 136.146 13.2352 135.946 13.0102 135.709ZM14.892 145.836C14.3806 145.746 13.8897 145.6 13.4806 145.418C13.4397 145.4 13.4193 145.382 13.3988 145.364C13.542 146.727 13.7261 148.091 13.9102 149.473C14.2988 149.237 14.7079 149.091 15.1579 149C15.0556 147.946 14.9738 146.891 14.892 145.836ZM44.7353 183.928C47.4558 182.728 50.5035 181.909 52.8762 181.146C52.9171 179.909 52.958 178.691 53.0194 177.455C51.3217 178.328 49.6444 179.237 48.008 180.2C46.3512 181.164 45.0012 182.273 44.7353 183.928ZM74.415 181.909C75.2127 181.528 76.0309 181.291 77.0127 181.218C78.2604 181.109 79.365 180.909 80.49 180.637C79.9582 179.764 79.4468 179.182 78.4241 178.673C77.4218 178.164 76.4195 177.655 75.4786 177.073C75.3968 177.4 75.315 177.709 75.2331 178.037C74.8445 179.382 74.5581 180.637 74.415 181.909ZM126.922 191.8C127.842 191.691 128.702 191.528 129.52 191.346C129.09 191.091 128.742 190.746 128.497 190.346C126.902 190.818 125.142 191.091 123.383 191.255C123.445 191.564 123.424 191.891 123.302 192.182C124.508 192.091 125.715 191.964 126.922 191.8ZM136.842 187.255C134.654 187.364 132.752 184.582 132.22 183.055C131.831 181.946 131.524 180.4 132.629 179.528C133.856 178.564 135.554 179.037 136.72 179.8C137.967 180.618 138.847 181.928 139.031 183.309C139.583 181.891 140.013 180.473 140.361 179.018C140.279 179.037 140.177 179.055 140.095 179.055C138.704 179.109 138.213 178.091 137.661 177.164C136.556 175.291 132.179 173.782 134.449 171.146C135.083 170.418 136.065 170.091 137.088 170.109C137.579 170.128 138.008 170.273 138.499 170.327C139.052 170.4 139.583 170.309 140.095 170.564C140.586 170.8 140.954 171.2 141.158 171.655C141.302 171.746 141.445 171.837 141.588 171.909C141.915 169.4 142.222 166.873 142.406 164.327C140.974 164.855 139.399 163.964 138.867 162.727C138.622 162.164 138.52 161.546 138.683 160.927C138.806 160.437 139.174 159.564 139.808 159.418C139.972 159.382 140.156 159.4 140.34 159.4C141.118 159.418 141.874 158.946 142.672 159.255C142.672 158.6 142.693 157.946 142.672 157.291C142.672 156.837 142.652 156.382 142.631 155.927C142.222 156.546 141.445 157 140.667 157.237C139.277 157.691 137.558 157.473 137.006 156.073C136.802 155.546 137.006 154.964 137.313 154.491C137.456 154.273 137.64 154.055 137.845 153.873C137.947 153.782 138.581 153.437 138.581 153.364C138.765 152.182 138.888 151 138.929 149.818C137.988 149.637 137.067 149.273 136.454 148.764C136.454 148.891 136.433 149 136.392 149.055C135.595 149.927 134.654 149.146 135.042 148.709C135.063 148.691 135.063 148.673 135.083 148.655C135.063 148.655 135.042 148.673 135.022 148.673C135.124 148.418 135.165 148.091 135.186 147.709C134.981 147.655 134.695 147.636 134.265 147.673C133.467 147.727 132.69 147.764 131.933 147.473C130.522 146.946 129.642 145.491 130.277 144.2C130.89 142.946 132.711 142.382 134.163 142.455C134.388 142.473 134.633 142.491 134.858 142.546C134.838 141.982 134.797 141.418 134.756 140.855C134.715 140.291 135.697 139.982 135.779 140.618C135.881 141.382 135.963 142.146 136.065 142.891C136.086 143.073 136.945 143.255 137.088 143.291C137.252 143.346 138.54 143.618 138.54 143.636C138.233 141.873 137.763 140.146 137.129 138.455C136.188 138.2 135.247 137.818 134.449 137.618C133.304 137.327 132.015 136.8 131.463 135.782C130.87 134.673 131.483 133.436 132.711 132.946C133.181 132.746 133.692 132.636 134.224 132.582C133.795 131.909 133.345 131.255 132.874 130.618C132.527 130.164 133.263 129.418 133.652 129.909C134.347 130.782 135.002 131.673 135.615 132.582C136.433 132.655 137.231 132.836 138.008 133.109C137.415 131.927 136.74 130.782 135.942 129.673C135.431 128.982 134.899 128.346 134.347 127.727C134.224 127.655 134.102 127.546 134.02 127.382C133.222 126.527 132.363 125.745 131.463 125.036C131.34 125.2 131.197 125.364 131.013 125.491C130.256 126.036 129.09 126.273 128.149 126.127C125.899 125.782 125.122 123.473 127.147 122.145C124.427 120.636 121.502 119.455 118.474 118.364C118.249 119.455 116.879 120.491 115.815 120.909C114.22 121.545 111.642 122.2 110.599 120.473C109.392 118.509 111.663 117.291 113.708 116.727C112.317 116.273 110.926 115.8 109.556 115.327C110.006 115.836 110.17 116.509 109.924 117.164C109.617 117.945 108.799 118.491 108.022 118.891C106.488 119.691 103.788 120.255 102.622 118.655C101.947 117.709 102.336 116.618 103.317 115.982C103.645 115.782 103.972 115.636 104.32 115.527C105.076 114.909 106.242 114.509 107.306 114.473C106.672 114.236 107.081 113.564 107.674 113.673C109.679 114.018 111.683 114.455 113.688 114.964C113.831 114.236 113.483 113.509 113.79 112.782C114.117 112 114.936 111.255 115.713 110.836C117.165 110.036 119.088 110.073 120.07 111.455C120.847 112.527 120.642 113.927 119.763 114.891C119.252 115.455 118.556 115.855 117.799 116.145C118.576 116.4 119.333 116.655 120.09 116.927C119.927 116.091 120.008 115.273 120.54 114.527C121.174 113.636 122.811 112.727 124.079 112.873C125.92 113.073 127.147 115.109 126.574 116.6C126.267 117.4 125.572 118.018 124.774 118.436C124.631 118.509 124.467 118.6 124.283 118.673C125.122 119.073 125.961 119.473 126.758 119.909C126.738 119.873 126.717 119.818 126.697 119.782C125.981 118.182 127.802 117.309 129.131 116.636C127.352 112.6 125.613 108.527 123.792 104.527C123.486 104.6 123.138 104.6 122.811 104.545C121.665 104.327 120.417 103.509 119.742 102.673C118.658 101.327 119.313 99.8727 120.377 98.709C120.54 98.5272 120.704 98.4181 120.888 98.3454C119.824 96.1272 118.74 93.9272 117.595 91.7635C117.451 91.7817 117.288 91.7817 117.124 91.7635C115.754 91.5272 114.506 90.9272 113.545 90.0181C112.154 88.6908 113.115 87.1817 114.465 86.1635C113.667 84.7999 112.829 83.4544 111.949 82.1271C111.929 82.1453 111.929 82.1453 111.908 82.1635C111.458 82.5635 110.886 82.7635 110.272 82.8362C110.129 83.2544 109.515 83.509 109.167 82.9999C109.126 82.9453 109.086 82.8908 109.065 82.8544C107.776 82.7453 106.324 82.1999 105.772 81.109C105.424 80.418 105.629 79.5635 106.242 79.0544C105.874 78.5999 105.506 78.1453 105.138 77.6908C104.831 78.218 104.442 78.7271 103.972 79.1635C103.931 79.5089 103.542 79.7999 103.133 79.7817C102.254 80.2726 101.231 80.3453 100.249 79.5453C98.9196 78.4726 98.531 77.0726 98.6332 75.5817C97.8355 74.7998 96.9969 74.0362 96.1173 73.2907C95.34 73.7453 94.3582 73.8907 93.4582 73.5998C92.1082 73.1453 91.74 72.0726 91.4741 70.9271C91.1059 69.2725 90.2468 66.7271 91.29 65.0907C90.2059 64.3271 89.1423 63.5453 88.5491 62.418C88.3855 62.1089 88.8968 61.8907 89.1627 62.0725C90.2264 62.7452 91.2696 63.4362 92.2923 64.1634C92.3741 64.1271 92.4355 64.0725 92.5173 64.0362C94.5832 63.0362 95.9128 64.6362 96.4446 66.2907C96.8128 66.7998 97.1196 67.3816 97.3651 67.9998C98.306 68.7635 99.2264 69.5453 100.106 70.3635C100.29 69.8544 100.474 69.3816 100.617 68.9453C100.658 68.7998 100.74 68.6907 100.842 68.5998C100.576 68.3453 100.331 68.0907 100.065 67.8544C96.3423 64.3634 92.2309 61.1816 87.8741 58.3452C87.8536 58.5271 87.8127 58.7089 87.7514 58.8907C87.015 60.9089 84.5809 61.2361 82.5968 60.4361C81.6354 60.0361 80.8377 59.3634 80.5923 58.418C80.4082 57.6907 80.5513 56.7634 81.0014 56.127C81.3491 55.618 81.84 55.3089 82.3718 55.0179C82.1263 54.8725 81.8809 54.727 81.615 54.5998C81.2673 54.4179 80.7968 54.2179 80.3059 53.9998C80.265 54.3998 80.1218 54.7998 79.8968 55.1816C79.5491 55.7816 79.0991 56.4179 78.3627 56.7089C77.4627 57.0725 76.399 56.8543 75.8059 56.1452C74.8854 55.0543 75.54 53.5998 76.5218 52.5998C76.5627 52.0725 76.9309 51.5998 77.4627 51.3634C77.299 50.2179 77.524 48.7452 77.4627 47.7816C77.3195 46.0361 77.0331 44.2906 76.0513 42.7452C75.5809 41.9997 75.049 41.327 74.5581 40.6361C74.2104 41.5634 73.7809 42.4361 73.2899 43.2906C74.7422 43.5088 75.9081 44.727 76.1536 45.9997C76.44 47.4906 75.4786 49.3816 73.6786 49.727C72.5536 49.927 71.3877 49.2543 70.7127 48.4907C70.5081 48.2543 70.324 47.9452 70.2013 47.6361C70.0172 47.8543 69.8331 48.0725 69.649 48.2906C69.8536 49.2543 70.0377 50.2179 70.2013 51.1816C70.2217 51.1816 70.2217 51.1816 70.2422 51.1816C72.4104 51.6907 73.6581 52.727 74.2104 54.6907C74.64 56.218 74.9263 58.2543 73.3104 59.3271C72.2468 60.018 70.999 59.8543 70.1399 59.1998C69.9967 59.5816 69.8331 59.9634 69.6286 60.3271C68.1558 62.8907 64.6581 66.0362 61.3649 66.4362C59.8717 66.9634 59.2581 65.5453 58.6035 64.6362C57.8058 63.5452 57.1717 62.5271 56.8649 61.3452C56.0876 62.3452 55.0444 63.0362 53.6535 63.5998C52.058 64.2543 49.8694 65.3634 48.233 64.3816C47.9671 64.218 47.8853 63.8907 48.1103 63.6725C49.133 62.7271 50.8717 62.5998 52.2217 62.1089C53.6331 61.5816 55.4331 60.8725 56.3331 59.7089C54.6967 59.1816 55.699 57.0543 54.574 56.3998C53.9603 56.0361 53.1217 56.3452 52.4671 55.8361C52.4467 55.8179 52.4467 55.8179 52.4262 55.7998C51.8126 55.6725 51.3217 55.4543 50.933 54.8543C50.708 54.527 50.7285 54.1089 50.9126 53.7816C49.6853 52.3998 49.6853 49.9816 49.8694 48.4179C49.9512 47.8361 50.933 47.727 50.9944 48.3634C51.1171 49.6543 51.3217 52.6361 52.8967 53.2725C53.4899 53.0907 54.1444 53.0725 54.8194 53.1088C58.1535 52.927 61.5285 53.327 64.8626 53.5816C65.3945 53.6179 65.6604 53.927 65.7217 54.2907C65.9876 54.5452 65.9467 54.9816 65.6195 55.2361C63.8808 56.5816 61.2831 56.1998 59.8308 57.6361C59.2581 58.1998 58.7058 59.1271 57.8876 59.5634C57.9285 59.5998 57.949 59.6543 57.9694 59.7089C58.3785 61.5089 59.5854 63.7634 61.1604 65.0725C61.6104 64.6725 62.1013 64.3089 62.6126 63.9816C61.7126 63.0362 60.8126 61.9089 60.4853 60.7089C60.3217 60.1271 61.2013 59.7271 61.4876 60.3271C61.7535 60.8907 62.3876 61.2907 62.7967 61.7816C63.1649 62.218 63.5535 62.6543 63.9013 63.1089C64.1672 62.9271 64.4126 62.7453 64.6581 62.5634C65.0467 62.2543 65.4149 61.9089 65.7626 61.5452C65.7217 61.5271 65.6808 61.4907 65.6604 61.4543C65.2717 61.0543 64.699 60.7452 64.249 60.3998C63.6763 59.9452 63.2263 59.3816 62.8581 58.7816C62.4695 58.1271 63.6149 57.6361 64.0649 58.1998C64.7808 59.1089 65.9263 59.5634 66.7854 60.3271C67.174 59.7816 67.5013 59.218 67.7467 58.618C67.6445 58.5816 67.5422 58.5452 67.4604 58.4907C66.9081 58.1089 66.3558 57.7634 65.7831 57.418C65.2104 57.0907 65.6808 56.0907 66.3354 56.3998C66.9286 56.6907 67.5627 56.927 68.1763 57.1998C68.2172 56.9816 68.2581 56.7816 68.2786 56.5634C68.4831 54.2361 67.8899 51.8725 67.6649 49.5634C67.4808 47.5452 67.3581 45.527 67.2149 43.5088C67.174 42.927 68.4217 42.6906 68.5649 43.2906C68.749 44.1088 68.9331 44.927 69.1377 45.7452C71.449 42.3088 72.9627 38.7997 73.2695 34.6724C73.5763 30.7451 73.515 26.7633 72.7786 22.8724V22.8542C72.6559 22.5451 72.6559 22.1451 72.9218 21.8905C73.9036 20.8724 73.7399 19.5814 74.0263 18.3633C74.3536 16.9269 75.0286 15.5996 75.6627 14.2542C76.8491 11.745 78.015 9.1814 78.69 6.52685C80.1013 0.945006 72.9013 3.81774 69.9763 5.10866C67.9717 5.99957 65.9876 6.74503 63.8399 7.18139C63.8604 7.79958 63.2876 8.41776 62.5104 8.12685C53.0399 4.81775 43.733 3.47229 33.7102 4.81775C34.6307 5.38139 35.5307 5.96321 36.3693 6.50866C37.1262 6.99957 36.1034 8.09049 35.3466 7.63594C30.5193 4.74502 24.2193 0.79955 18.042 2.21774C13.8488 3.18138 15.3215 6.72685 16.0579 9.45413C16.7534 12.036 15.5465 14.0723 15.6488 16.5814C15.7102 18.236 16.9784 20.0724 18.0829 21.7087C19.392 20.3269 21.9284 20.036 23.2988 21.5269C24.3829 22.7087 23.7079 24.5087 22.1125 24.9451C21.4579 25.1269 20.5375 25.1633 19.7193 25.0178C20.0261 26.5451 19.9443 28.236 19.9852 29.6906C20.0056 30.5997 19.9647 31.5451 19.9034 32.4906C20.517 32.1451 21.2125 31.9269 21.9693 31.9997C23.442 32.1633 24.792 32.3815 26.3057 32.2179C27.6557 32.0724 29.0875 32.1997 30.1307 33.0542C32.9125 35.3088 29.967 38.127 26.9398 37.8179C25.4261 37.6542 24.7716 37.6361 23.2988 38.1452C22.2966 38.5088 21.2738 38.927 20.1897 38.9997C19.9443 39.0179 19.6784 38.9997 19.4534 38.9633C19.3306 42.7815 19.8625 46.4725 22.9511 49.3634C24.4443 49.927 25.5284 51.4179 24.9557 52.8543C24.1375 54.8907 20.967 54.9452 19.5761 53.3452C19.3715 53.127 19.2079 52.8543 19.1875 52.5634C19.167 52.3998 19.1875 52.2361 19.2079 52.0907C19.2284 51.3634 19.0852 50.7634 19.5352 50.1088C19.7806 49.7634 20.1488 49.5088 20.5579 49.3452C19.842 48.6361 19.2897 47.8543 18.8806 46.9997C17.4488 47.6906 15.4443 46.8179 14.5443 45.7088C14.2988 46.2725 14.0738 46.8543 13.8488 47.4361C13.9511 47.4725 14.0533 47.527 14.1556 47.6179C15.9147 49.0543 17.5306 51.0543 16.3852 53.2179C15.6079 54.7089 13.8283 55.4543 12.0897 55.7816C11.7215 55.8543 11.4147 55.8543 11.1079 55.8179C10.8624 56.727 10.6579 57.618 10.4533 58.5271C13.1329 59.5089 14.6261 62.6543 12.3352 64.7453C11.517 65.4907 10.2283 65.7271 9.26696 65.2543C9.2056 65.6907 9.16469 66.1089 9.10332 66.5453C10.5556 67.1816 11.8033 67.9998 12.0283 69.5271C12.2329 70.9089 11.4761 72.3635 9.98288 72.8907C9.49197 73.0726 9.00105 73.0726 8.5306 72.9817C8.44878 74.1635 8.38741 75.3453 8.32605 76.5271C9.45106 77.0544 10.5761 78.1635 10.6579 79.2726C10.7601 80.509 9.75787 81.3635 8.87832 82.1999C8.65332 82.3999 8.40787 82.509 8.16241 82.5635C8.14196 84.1453 8.16241 85.709 8.18287 87.2726C8.42832 87.2544 8.69423 87.309 8.93969 87.4363C9.57378 87.7635 10.1874 87.9999 10.7397 88.4544C11.3329 88.9272 11.7624 89.5272 11.742 90.2363C11.7215 90.8908 11.2511 91.4545 10.617 91.7454C10.3101 91.8908 9.96242 91.9636 9.61469 91.9999C9.47151 92.0181 8.28514 91.9817 8.28514 91.8181C8.32605 92.6908 8.36696 93.5454 8.40787 94.4181C8.63287 94.3272 8.87833 94.2545 9.16469 94.1999C10.2692 93.9817 11.4352 94.0181 12.5192 94.3636C14.1556 94.8908 15.4033 96.3272 14.9329 97.909C14.4829 99.4181 12.6215 100.164 11.0056 99.7818C10.0647 99.5636 9.22605 99.0363 8.67378 98.3454C8.96014 102.018 9.38969 105.709 10.0647 109.327C10.4738 111.491 10.9647 113.636 11.4352 115.8C11.5783 115.8 11.742 115.818 11.9056 115.873C13.0102 116.218 14.217 116.436 15.0147 117.273C15.7715 118.073 15.8534 119.291 15.0556 120.073C14.4011 120.709 13.3374 121.055 12.3965 120.8C12.5192 121.527 12.6215 122.255 12.7033 122.982C12.9079 124.727 13.0102 126.455 13.0715 128.2C13.1942 128.273 13.2965 128.382 13.3783 128.546C13.6852 129.091 14.7897 129.273 15.3624 129.546C16.3443 130.018 17.2443 130.673 17.9397 131.455C19.0238 132.655 19.842 134.6 18.4306 135.855C17.6943 136.509 16.5693 136.764 15.5056 136.673C15.567 137.473 15.6284 138.291 15.7102 139.091C16.0374 139.091 16.3443 139.091 16.5488 139.109C16.8556 139.146 17.1829 139.2 17.4897 139.273C17.4897 138.782 17.4693 138.291 17.4693 137.8C17.4693 137.346 18.3693 137.109 18.4102 137.618C18.4511 138.273 18.5125 138.927 18.5738 139.582C18.7784 139.673 18.9829 139.764 19.167 139.873C20.3534 140.546 21.1102 141.8 20.9466 143.055C20.8034 144.2 20.0875 144.964 19.1261 145.418C19.2079 146.364 19.2488 147.309 19.2693 148.255C19.2897 148.873 18.2465 148.891 18.1443 148.309C18.0011 147.491 17.8988 146.655 17.817 145.836C17.3465 145.927 16.8352 145.964 16.3443 145.964C16.4261 146.964 16.5284 147.946 16.6102 148.946C17.8579 149.073 19.0852 149.655 19.8829 150.546C21.1306 151.964 21.2943 153.982 20.0875 155.473C18.8602 157 16.5488 157.527 14.8715 156.437C14.9534 157.218 15.0352 158 15.0965 158.8C15.4647 158.473 15.9965 158.364 16.5079 158.709C17.6534 159.527 18.6147 160.473 18.4306 161.891C18.2875 163.055 17.1829 163.927 16.242 164.655C16.0374 164.818 15.792 164.909 15.5465 164.964C15.6284 166.327 15.7102 167.673 15.7715 169.037C15.9352 168.909 16.1397 168.782 16.3852 168.691C17.2238 168.346 18.2056 168.273 19.1261 168.455C20.5579 168.727 21.7852 169.673 22.3988 170.837C24.1375 174.128 19.6988 175.909 16.692 175.782C16.4874 175.782 16.2829 175.728 16.0988 175.655C16.1806 177.364 16.2829 179.055 16.3852 180.764C16.4056 181.2 16.0374 181.709 15.5056 181.691C12.7647 181.582 9.86015 181.746 7.18059 182.309C5.70786 182.618 3.2533 183.309 2.45557 184.618C1.82148 185.655 1.86239 187.837 2.61921 188.818C2.92603 189.218 3.19193 189.582 3.56012 189.891C3.49875 189.018 3.6624 188.218 4.03058 187.528C3.80558 187.382 3.62149 187.2 3.4374 187.037C3.00785 186.618 3.51921 185.764 4.13285 186.128C4.3374 186.255 4.5624 186.346 4.76695 186.455C5.0124 186.182 5.27831 185.909 5.58513 185.673C5.44195 185.564 5.29877 185.455 5.15558 185.346C4.62376 184.964 5.17604 184.073 5.76922 184.437C5.85104 184.491 6.28059 184.746 6.58741 184.946C7.4465 184.4 8.40787 183.964 9.36924 183.582C10.0033 183.346 10.8215 184.018 10.0647 184.382C7.52832 185.582 4.86922 187.528 5.6874 190.4C6.05559 191.673 7.05786 193.182 8.48969 193.637C8.87832 193.764 9.32833 193.818 9.77833 193.855C9.36924 193.746 8.93969 193.618 8.55105 193.473C7.83514 193.219 8.22377 192.164 9.00105 192.4C9.47151 192.546 9.94196 192.655 10.4329 192.728C10.392 192.6 10.0442 191.218 10.0033 191.2C9.98287 191.2 9.98288 191.2 9.96242 191.2C9.28742 191 8.61241 190.764 7.97832 190.509C7.38514 190.273 7.6715 189.218 8.34651 189.437C8.85787 189.6 9.38969 189.764 9.92151 189.873C9.94196 189.346 10.0033 188.8 10.1465 188.291C9.73742 188.091 9.32833 187.891 8.91923 187.691C8.28514 187.382 8.79651 186.473 9.45106 186.728C9.79878 186.873 10.1874 187 10.5351 187.146C10.7192 186.728 11.4965 186.037 11.4147 185.618C11.3738 185.437 11.1079 185.364 11.1488 185.091C11.2102 184.528 11.8033 184.546 12.2124 184.782C12.6011 185 13.8693 184.128 14.2988 183.964C15.1579 183.637 16.0579 183.4 16.9579 183.146C17.817 182.909 18.042 184.055 17.3261 184.328C13.8079 185.673 11.3942 187.546 12.2533 191.255C12.642 192.946 13.6238 193.819 14.892 194.255C14.667 193.909 14.4624 193.564 14.2579 193.218C13.9511 192.709 14.8102 192.091 15.1579 192.637C15.4238 193.037 15.6897 193.418 15.9965 193.782C16.2011 194.018 16.3852 194.255 16.5897 194.473C16.6306 194.528 16.692 194.564 16.7329 194.619C17.2443 194.673 17.7761 194.691 18.3079 194.691C17.592 194.164 16.9579 193.528 16.4261 192.873C16.1397 192.509 16.8965 192.055 17.2034 192.364C17.4897 192.637 17.7761 192.873 18.0829 193.109C17.7147 192.837 17.7965 191.709 17.7556 191.328C17.7761 191.437 16.5693 190.818 16.4874 190.782C16.1397 190.582 15.6693 190.418 15.7715 189.964C15.8329 189.691 16.1602 189.455 16.467 189.528C16.9784 189.655 17.4284 189.818 17.8784 190.055C17.9806 189.564 18.1443 189.055 18.3693 188.582C17.7761 188.291 17.1625 188 16.5284 187.746C15.8534 187.491 16.2624 186.509 16.9784 186.728C17.5306 186.891 18.1647 187.273 18.7375 187.346C19.1056 187.4 19.0647 187.382 19.3102 187.073C19.4125 186.946 19.9238 186.455 19.9034 186.291C19.8829 186.109 19.3715 185.964 19.2079 185.873C18.6965 185.637 19.0647 184.764 19.617 184.946C19.8829 185.018 20.7011 185.418 20.967 185.328C21.0079 185.309 21.0488 185.291 21.0897 185.255C21.4988 184.946 21.9284 184.673 22.3784 184.437C22.2352 184.328 22.092 184.237 21.9284 184.128C21.3556 183.782 21.9079 182.891 22.542 183.218C22.9102 183.418 23.2579 183.637 23.6261 183.855C23.6466 183.873 23.667 183.873 23.6875 183.891C25.0375 183.455 26.5102 183.364 28.0034 183.746C28.4534 183.855 28.5966 184.455 28.0852 184.6C24.5261 185.546 20.3534 186.309 19.8011 190.328C19.3511 193.564 21.3966 194.873 24.0352 195.164C23.5443 194.509 23.1966 193.709 22.9102 193.091C22.6852 192.618 23.5443 192.182 23.8307 192.673C24.0966 193.146 24.3829 193.582 24.7307 194.019C25.1193 194.491 25.4466 194.764 25.9988 195.091C26.3261 195.291 27.5125 194.891 27.6352 195.037C27.1852 194.509 26.7557 193.946 26.3466 193.382C26.0807 193.018 25.9784 192.455 26.6125 192.346C27.0625 192.273 27.3079 192.618 27.5329 192.909C27.7989 193.273 28.1057 193.6 28.4739 193.891C28.5557 193.946 29.4557 194.655 29.4761 194.655C29.967 194.528 30.4171 194.382 30.8466 194.219C30.0693 193.764 29.4148 193.146 28.9034 192.455C28.5761 192 29.3943 191.328 29.783 191.8C30.2739 192.382 31.0307 192.928 31.7671 193.237C32.8102 193.691 33.608 193.128 34.4057 192.491C34.2421 192.418 34.0784 192.328 33.9148 192.273C33.2193 191.982 32.5034 191.728 31.808 191.455C31.1739 191.218 31.4602 190.2 32.1352 190.437C32.7693 190.637 33.4239 190.837 34.058 191.018C34.4262 191.128 34.7943 191.218 35.1625 191.328C35.6125 191.455 35.6534 190.673 35.6739 190.455C35.6943 190.237 35.7557 189.964 35.7148 189.746C35.633 189.291 35.0603 189.4 34.6307 189.328C33.7716 189.218 32.933 189.037 32.1148 188.818C31.3989 188.637 31.6648 187.582 32.4216 187.728C33.5261 187.946 34.6307 188.037 35.7557 188.018C35.7353 187.528 35.7353 187.055 35.7353 186.655C35.7353 186.455 35.7353 186.237 35.7353 186.037C34.9171 186.146 34.0171 186.055 33.2193 185.928C32.5239 185.818 32.6466 184.855 33.3421 184.891C34.1602 184.928 34.9171 184.764 35.7353 184.746C35.7148 184.382 35.6943 184.018 35.6739 183.655C35.0398 183.655 34.3852 183.582 33.7512 183.564C33.0148 183.546 33.158 182.546 33.833 182.528C34.4057 182.509 34.9989 182.437 35.5716 182.437C35.408 180.691 35.1421 178.964 34.9171 177.237C33.6693 177.837 31.7057 177.582 30.5807 177.128C29.6398 176.746 28.6989 176.182 28.4125 175.255C28.1261 174.346 28.5148 173.473 29.292 172.837C30.0284 172.237 31.1943 171.891 32.1761 171.946C33.0557 172 33.7102 172.491 34.4671 172.8C34.3648 170.928 34.3443 169.073 34.4057 167.2C33.5671 168.037 32.3193 168.364 31.0716 167.6C29.558 166.655 29.292 164.691 29.6398 163.2C30.1716 160.982 32.6466 159.673 34.958 159.164C34.9989 159.146 35.0398 159.164 35.1012 159.146C35.3057 157.509 35.5307 155.873 35.7762 154.237C34.6921 155.491 33.1989 156.218 31.358 155.655C29.2102 154.982 28.8829 152.655 29.7625 151.037C30.6625 149.382 32.3193 147.982 34.0784 146.891C34.5489 146.346 35.1216 145.909 35.8171 145.546C36.2875 145.309 36.7171 145.273 37.1057 145.382C37.1466 145.091 37.1875 144.8 37.2284 144.509C36.758 144.636 36.2262 144.6 35.7966 144.382C33.8739 143.4 31.8284 141.6 32.1557 139.436C32.3398 138.291 33.158 137.327 33.8943 136.436C34.5489 135.655 35.2239 134.418 36.2262 133.982C36.533 133.855 36.8193 133.818 37.1057 133.909C36.308 133.091 35.4898 132.255 34.6921 131.436C33.9557 132.709 31.3784 133.073 29.9057 132.836C27.8807 132.509 24.8943 130.891 24.8534 128.818C24.8329 127.691 25.7943 126.927 26.8989 126.564C28.0034 126.218 29.0261 126.327 30.0284 126.6C29.558 126.091 29.0875 125.564 28.6375 125.055C26.8989 123.055 25.4261 120.836 23.5852 118.927C21.4579 116.709 18.4102 115.436 16.7534 112.855C16.4056 112.327 17.5511 111.982 17.8988 112.4C19.7193 114.6 22.7466 115.745 24.792 117.764C26.3466 119.291 27.5943 121.018 29.0057 122.636C32.3398 126.491 36.1239 130 39.6625 133.709C42.8535 137.073 45.7376 140.6 47.9058 144.564C50.0739 148.527 51.874 152.4 55.1262 155.637C55.3103 153.8 55.4944 151.982 55.6581 150.146C56.5376 140.182 57.4172 130.291 57.3558 120.291C57.3558 119.673 58.399 119.727 58.5422 120.255C59.974 126.2 59.7694 132.473 59.1763 138.709C59.5444 138.927 59.8717 139.273 60.0763 139.546C60.9763 140.764 60.3626 142.146 59.4013 143.127C59.1967 143.327 58.9513 143.436 58.6649 143.491C58.5422 144.527 58.4194 145.546 58.2967 146.582C59.299 145.982 60.5263 145.709 61.6308 145.927C63.3899 146.273 65.0467 147.618 65.0467 149.291C65.0263 151.073 63.2876 152.073 61.5081 152.473C60.5672 152.691 58.9103 152.8 57.7035 152.418C57.5808 153.727 57.4581 155.037 57.3558 156.346C57.4785 156.255 57.5808 156.164 57.7035 156.091C58.1944 155.764 58.7672 155.637 59.299 155.364C60.2194 154.927 60.9354 154.455 62.0399 154.673C63.0217 154.855 63.7581 155.527 63.9626 156.382C64.3308 157.8 63.6967 159.327 62.7149 160.437C62.0604 161.182 61.099 161.837 60.0354 162.037C59.1353 162.2 58.5217 161.927 57.7649 161.509C57.5194 161.364 57.2331 161.291 56.9467 161.182C56.7217 164.055 56.4762 166.946 56.1899 169.818C57.0285 169.2 58.1535 168.891 59.4013 169.164C61.1604 169.546 61.6104 170.928 61.4263 172.364C61.7944 172.4 62.2035 172.564 62.5922 172.618C63.3285 172.746 63.9626 172.928 64.5763 173.309C66.7649 174.655 67.0104 178.018 64.024 178.709C61.774 179.237 57.6422 178.437 55.4535 176.655C55.249 178.182 55.0444 179.728 54.799 181.255C54.7171 181.764 54.3081 182 53.899 182L53.8785 182.018C50.8921 183.473 47.8035 184.728 44.8376 186.164C43.508 186.8 42.1989 187.564 41.2785 188.655C40.5421 189.528 39.6625 191.037 40.1125 192.037C40.2966 192.473 41.5853 193.491 42.5466 193.982C42.4648 193.619 42.4444 193.237 42.4648 192.873C42.4853 192.6 42.6898 192.164 42.4035 191.982C42.0148 191.728 41.2989 191.473 41.5239 190.928C41.7898 190.309 42.5671 190.728 43.0171 190.891C43.0171 190.891 43.6307 190.037 43.6716 189.964C43.7944 189.691 43.8148 189.818 43.6716 189.546C43.4876 189.2 43.0171 189.018 43.2012 188.582C43.508 187.8 44.3057 188.473 44.6944 188.764C44.9603 188.964 45.6557 188.328 45.8603 188.2C45.7785 188.255 45.5535 187.491 45.7376 187.273C45.9012 187.091 46.2694 187 46.4944 187.182C46.658 187.328 46.8012 187.509 46.9853 187.618C47.0058 187.637 47.0262 187.655 47.0671 187.673C47.9262 187.346 48.8467 187.146 49.808 187.073C50.6058 187.018 50.6671 187.928 49.9717 188.109C46.9853 188.946 42.9966 191.709 44.9807 194.873C45.2671 195.346 45.7171 195.709 46.2285 196.019C46.1057 195.655 46.0035 195.291 45.8807 194.946C45.6967 194.364 46.6785 194.018 46.9648 194.582C47.2717 195.237 47.7421 196.091 48.233 196.655C48.5808 197.037 50.0126 196.891 50.483 196.855C49.9103 196.4 49.358 195.909 48.8262 195.419C48.3353 194.982 49.0308 194.182 49.6035 194.619C50.3399 195.164 51.1171 195.6 51.9353 196.055C51.5876 195.564 51.5058 195.055 51.2399 194.546C50.9535 193.964 49.6853 193.582 49.0717 193.309C48.3762 193 48.8058 192 49.5626 192.273C50.033 192.437 50.5649 192.673 51.0762 192.782C51.2194 192.546 51.6694 191.291 51.4444 191.128C51.1785 190.928 50.9126 190.728 50.6262 190.546C50.3399 190.364 50.1967 190.018 50.3808 189.728C50.5444 189.455 50.933 189.346 51.2399 189.509C51.5467 189.691 51.8944 189.891 52.2421 190.055C52.3444 190.091 53.3671 188.946 53.4285 188.782C53.5308 188.491 53.3058 188.273 53.3876 187.964C53.4899 187.546 53.9603 187.4 54.3285 187.691C54.4512 187.782 54.5944 187.891 54.7171 187.982C55.6785 187.473 56.7217 187.073 57.8262 186.709C58.5831 186.473 59.074 187.291 58.2967 187.618C54.9422 189.055 49.9103 193.819 55.024 196.273C54.7785 195.528 54.8603 194.746 55.3512 194C55.5967 193.618 56.3944 193.673 56.3126 194.2C56.2308 194.673 56.3126 195.164 56.4762 195.619C56.6399 196.055 57.0285 196.419 57.1103 196.873C57.1922 197.237 58.9103 197.346 59.299 197.309C59.074 197.346 58.4399 195.273 58.3581 195.073C58.174 194.509 59.0535 194 59.3603 194.619C59.7899 195.491 60.4854 196.237 61.0785 197.019C61.1808 197.146 61.2831 197.255 61.3649 197.382C62.224 197.328 63.0626 197.2 63.7376 196.946C62.6535 196.382 61.6922 195.509 60.8944 194.728C60.5058 194.346 61.1808 193.6 61.6513 193.964C62.2035 194.4 62.7967 194.782 63.4308 195.128C63.2876 195.055 63.2876 194.237 63.2672 194.073C63.2467 193.8 63.3694 193.382 63.0422 193.237C62.6126 193.037 62.1422 192.946 61.6922 192.8C61.0581 192.6 61.2422 191.528 61.9581 191.673C62.2854 191.746 62.7354 191.909 63.0626 191.891C63.5126 191.873 63.7785 190.837 63.6558 190.546C63.4513 190.037 62.4081 190.255 62.0604 189.873C61.774 189.546 62.0194 189.073 62.4285 188.964C62.8785 188.855 63.6149 189.328 63.9831 189.164C64.2695 189.037 64.4535 187.946 64.5558 187.673C64.8831 186.8 66.3149 187.091 66.0081 188.018C65.1081 190.837 63.6354 197.564 68.2786 198.219C67.7877 197.819 67.3376 197.382 66.8672 196.946C66.3967 196.491 67.0922 195.673 67.6445 196.146C68.524 196.909 69.6081 197.419 70.6309 198C71.0195 197.855 71.3468 197.637 71.6536 197.382C70.8149 197.146 69.9558 196.419 69.4036 196.019C68.8922 195.655 69.3627 194.691 69.9967 195.037C70.4672 195.291 70.9172 195.509 71.4286 195.691C71.7354 195.8 72.1854 195.891 72.4104 196.128C72.7377 196.455 73.1877 195.037 73.2899 194.8C72.349 194.582 71.4081 194.346 70.4877 194.091C69.7104 193.891 69.8536 192.728 70.6922 192.909C71.674 193.109 72.6559 193.255 73.6581 193.418C73.7604 192.909 73.7195 192.382 73.8218 191.873C72.8399 191.746 71.8786 191.709 70.8968 191.491C70.1604 191.346 70.3445 190.218 71.1217 190.309C71.9195 190.4 72.8604 190.473 73.6581 190.382C73.6786 190.364 73.699 190.346 73.74 190.346C73.7195 190.073 73.6786 189.782 73.6377 189.509C72.9218 189.4 72.2058 189.218 71.5104 189.018C70.8559 188.837 70.9786 187.746 71.7149 187.873C72.2672 187.964 72.8195 188.018 73.3922 188.055C73.249 187.328 73.0854 186.582 72.9422 185.855C72.8809 185.528 72.8195 185.2 72.7581 184.855C71.6945 185.709 69.6899 185.618 68.4626 185.291C66.8672 184.855 65.3945 183.509 66.2331 181.946C66.6013 181.255 67.3377 180.891 68.1354 180.709C68.7081 180.582 69.3218 180.509 69.9149 180.564C70.6104 180.618 71.9399 181.455 72.4922 181.528C72.5127 181.364 72.5127 181.2 72.5536 181.037C72.6968 180.164 72.9831 179.328 73.2695 178.473C73.5559 177.637 74.0059 176.655 73.9854 175.782C73.5968 175.728 73.0854 176 72.6763 176.037C71.2036 176.182 68.8513 175.8 68.8104 174.109C68.7286 170.891 74.7627 172.437 74.7218 172.618C74.9672 171.437 75.2127 170.237 75.4377 169.037C75.2127 169.055 74.9877 169.037 74.7627 168.982C73.8218 168.727 73.1468 168.037 72.9013 167.2C72.6763 166.364 72.9013 165.637 73.7195 165.164C74.2718 164.837 74.9059 164.291 75.6013 164.273C75.8263 164.255 76.0513 164.291 76.2763 164.309C76.2968 164.309 76.2968 164.309 76.3172 164.309C76.6241 162.782 76.9718 161.273 77.34 159.782C77.2377 159.927 77.1354 160.091 77.0127 160.237C75.5604 161.891 73.249 161.546 72.4513 159.582C70.9377 155.855 74.415 151.073 79.0786 152.4C79.1809 152.437 79.2832 152.473 79.365 152.527C79.7127 151.382 80.0809 150.218 80.4491 149.073C80.4491 149.073 80.4491 149.091 80.4286 149.091C79.9582 150.2 77.9536 150.582 77.34 149.327C76.1127 146.837 73.9036 141.909 76.2559 139.473C78.3013 137.364 82.9854 137.709 83.0264 140.727C83.6195 138.436 84.1105 136.127 84.54 133.782C83.3332 134.873 81.4104 135.382 79.9172 134.382C78.24 133.255 78.465 131.382 79.7332 130.091C80.4286 129.382 81.2877 128.8 82.1059 128.218C82.8423 127.673 84.7036 126.582 84.7241 125.618C84.7445 125.073 85.5014 124.582 86.0741 124.673C86.2582 123.545 86.4423 122.4 86.6468 121.273C86.7695 120.618 88.14 120.491 88.0173 121.2C87.7718 122.8 87.5468 124.382 87.3218 125.982C87.4445 125.836 87.6082 125.727 87.7718 125.655C88.14 125.055 88.6923 124.582 89.4696 124.418C91.5968 123.964 92.3537 126.164 92.1491 127.6C91.9446 129.164 90.8196 130.927 88.9377 131.236C88.0377 131.382 87.1377 130.946 86.7286 130.236C86.4218 132.491 86.0946 134.727 85.7673 136.982C85.0514 141.709 83.64 146.109 82.0445 150.655C79.1809 158.782 78.1786 167.255 76.1331 175.546C76.1536 175.546 76.1741 175.546 76.1945 175.546C77.6672 175.964 79.1809 176.564 80.49 177.291C81.6559 177.946 82.2695 178.873 82.7604 179.982C82.9241 179.928 83.1082 179.891 83.2718 179.837C87.24 178.746 91.3718 178.237 95.5241 178.146C96.8332 178.109 98.1628 178.128 99.5128 178.164C95.2787 173.055 93.99 165.691 93.6218 159.582C93.3968 155.873 93.6014 152.127 94.3582 148.455C94.89 145.782 95.6264 143 97.631 140.891C96.506 139.909 96.7923 138.546 98.2855 137.727C98.3469 137.691 98.3878 137.673 98.4491 137.655C99.2264 136.6 100.842 136 102.111 135.636C103.849 135.146 107.449 134.418 108.472 136.273C109.474 138.091 107.449 139.836 105.813 140.618C103.767 141.582 100.883 142.418 98.6537 141.491C97.8969 142.436 97.365 143.473 96.9764 144.582C97.14 144.473 97.3241 144.364 97.5287 144.255C98.5105 143.727 99.656 143.164 100.842 143.309C102.151 143.455 103.174 144.364 103.358 145.527C103.542 146.636 102.826 147.6 101.845 148.2C100.679 148.927 97.7128 150 96.0764 149.327C95.9946 150.037 95.9537 150.727 95.8923 151.4C95.7491 153.018 95.6673 154.618 95.6673 156.237C97.0173 155.946 98.4901 156.073 99.3696 157.164C100.29 158.309 100.086 160.073 99.206 161.218C98.4287 162.2 97.0787 162.491 96.015 162.055C96.3628 165.4 96.9764 169.055 98.306 172.364C98.5105 172.237 98.7764 172.164 99.0832 172.2C100.495 172.328 101.926 172.618 102.806 173.673C103.461 174.455 103.501 175.6 102.847 176.4C102.438 176.909 101.763 177.218 101.088 177.255C101.374 177.6 101.661 177.928 101.967 178.255C107.572 178.637 113.32 179.673 118.27 181.564C119.108 181.891 118.536 182.946 117.758 182.891C114.179 182.655 110.599 181.273 107.04 180.691C105.874 180.509 104.708 180.346 103.522 180.218C103.788 180.455 104.033 180.709 104.258 180.982C104.872 181.018 105.465 181.055 106.079 181.091C106.815 181.146 107.429 181.109 108.042 181.473C108.308 181.618 108.267 181.964 107.981 182.073C107.163 182.382 106.324 182.164 105.465 182.073C105.24 182.055 105.015 182.018 104.79 182C105.015 182.764 104.851 183.564 103.951 184.182C103.011 184.837 101.804 184.746 100.801 184.237C100.29 183.982 99.8605 183.637 99.4719 183.255C99.2673 183.055 98.8582 182.218 98.6128 182.146C98.4696 182.091 98.3469 182.037 98.2037 181.964C97.3446 181.946 96.5059 181.928 95.6673 181.964C92.9264 182.091 90.2264 182.418 87.5264 182.891C86.8309 183.018 86.7286 182.109 87.3627 181.964C90.4105 181.273 93.9287 180.582 97.3446 180.491C97.3446 180.273 97.3855 180.073 97.4673 179.873C96.8128 179.855 96.1378 179.855 95.4832 179.873C92.0468 179.928 88.6105 180.328 85.2968 181.073C83.64 181.455 82.0445 182.055 80.3877 182.437C78.5059 182.873 76.5831 182.564 74.7218 183.073C74.7013 183.928 74.7627 184.782 74.9263 185.691C75.274 187.673 75.7854 189.655 75.765 191.673C75.765 192.291 75.7036 192.928 75.6013 193.582C76.0922 193.764 76.6036 193.855 77.1354 193.891C77.2377 193.891 77.3195 193.909 77.4013 193.909C76.9513 193.328 76.6241 192.618 76.5013 191.746C76.2763 190.128 76.4604 187.964 77.5036 186.582C78.6695 185.055 80.7559 184.4 82.4741 183.491C83.2104 183.091 83.9059 183.873 83.19 184.364C80.8377 186 78.6286 187.364 78.4445 190.255C78.3627 191.6 78.69 192.491 79.3036 193.091C79.2831 192.328 79.3854 191.582 79.5491 190.837C79.6922 190.128 80.7559 190.437 80.7763 191.037C80.8172 191.764 80.8786 192.491 80.94 193.218C80.9604 193.491 81.0218 193.728 81.0422 193.964C81.2468 194.018 81.4513 194.055 81.6763 194.073C81.6968 193.873 81.7173 193.691 81.6763 193.509C81.5536 192.873 82.5559 192.6 82.8218 193.2C82.965 193.491 83.1082 193.818 83.2104 194.146C83.5991 194.128 84.0082 194.109 84.4173 194.073C82.7809 192.855 81.6968 191.218 82.1059 189.273C83.0877 184.655 90.4105 184.018 94.5219 184.655C95.4219 184.8 94.8082 185.909 94.1128 185.909C91.3309 185.909 87.915 186.128 85.6241 187.728C84.2332 188.691 84.315 191.055 85.2764 192.291C85.5218 192.6 85.8491 192.837 86.2173 193.037C86.2173 192.855 86.2173 192.673 86.2173 192.473C86.2173 192.091 86.1968 191.709 86.2991 191.346C86.4423 190.764 87.0559 190.109 87.015 189.528C86.9741 189.073 87.8536 188.673 87.9968 189.218C88.2218 190.109 88.0173 190.764 87.8945 191.637C87.7923 192.382 88.0582 193.164 87.8741 193.837C88.0991 193.909 88.3036 193.982 88.5286 194.055C88.5286 193.491 88.5695 192.946 88.6514 192.382C88.7741 191.655 89.1014 191.055 89.4491 190.4C89.6537 189.982 90.4923 190.055 90.4309 190.564C90.2673 191.8 90.1855 193.128 90.2059 194.382C90.6559 194.437 91.1059 194.455 91.5764 194.455C91.4537 193.309 91.5968 192.218 92.0673 191.109C92.2718 190.6 93.2128 190.6 93.1309 191.218C93.0082 192.255 93.0696 193.346 93.2537 194.382C93.8264 194.346 94.3991 194.291 94.9719 194.219C94.7878 193.237 94.8082 192.255 94.7059 191.255C94.6446 190.691 95.6264 190.382 95.79 191C96.056 192.018 96.4446 193 96.6082 194.037C97.3241 193.946 98.0605 193.855 98.7764 193.764C98.4491 192.909 98.5514 191.855 98.531 191.018C98.5105 190.382 99.5128 190.291 99.6764 190.891C99.9014 191.746 100.372 192.673 100.433 193.582C100.679 193.564 100.924 193.528 101.17 193.509C101.824 193.455 102.479 193.4 103.133 193.364C102.888 192.582 102.765 191.782 102.724 190.964C102.704 190.255 103.767 190.364 103.931 190.928C104.156 191.655 104.463 192.382 104.749 193.109C104.77 193.164 104.77 193.2 104.79 193.255C105.158 193.237 105.526 193.2 105.895 193.182C105.915 192.691 105.486 191.546 105.976 191.218C106.181 191.073 106.57 191.055 106.733 191.273C107.183 191.855 107.449 192.419 107.511 193.091C108.083 193.055 108.636 193.019 109.208 193C109.249 192.764 109.311 192.528 109.331 192.309C109.351 192.018 109.638 191.782 109.965 191.782C110.313 191.782 110.558 192.018 110.64 192.309C110.701 192.509 110.742 192.709 110.783 192.909C113.524 192.764 116.265 192.618 119.006 192.437C119.006 192.4 119.006 192.364 119.006 192.309C118.802 192 118.536 191.746 118.29 191.455C117.533 191.491 116.797 191.528 116.122 191.6C115.611 191.637 115.57 190.982 116.061 190.909C116.633 190.837 117.206 190.764 117.799 190.709C117.717 190.728 117.492 190 117.472 189.891C117.39 189.418 117.554 188.8 118.086 188.582C119.272 188.091 120.417 188.164 121.583 188.746C121.952 188.928 122.299 189.128 122.606 189.382C122.913 189.618 123.077 189.982 123.486 190.018C123.997 190.073 124.733 189.818 125.245 189.709C125.592 189.637 128.558 189.128 128.579 188.873C128.579 188.764 128.579 188.637 128.62 188.528C128.272 188.237 127.883 188 127.413 187.873C126.267 187.564 124.979 187.909 123.792 187.709C122.197 187.418 120.745 186.473 120.499 184.964C119.783 180.782 126.472 181.709 128.906 182.673C130.788 183.418 133.079 184.328 133.999 186.073C134.531 187.055 134.94 188.291 134.695 189.382C135.247 188.909 136.106 188.164 136.842 187.255ZM99.5332 71.8362C99.431 71.7271 99.3082 71.618 99.206 71.5271C98.7355 71.0907 98.2651 70.6544 97.7741 70.2362C97.7741 71.1089 97.5491 71.9271 96.9764 72.618C97.6105 73.0907 98.2446 73.5635 98.8582 74.0544C99.0219 73.2907 99.2673 72.5453 99.5332 71.8362ZM39.1921 31.7997C40.0307 33.3633 41.5853 34.6906 43.5898 34.8906C44.6739 34.9997 45.4921 34.3997 45.4103 33.3815C45.3489 32.5088 44.6739 31.836 43.958 31.3088C42.9762 30.5815 40.4603 28.8178 39.2534 30.0178C38.7421 30.5451 38.8034 31.1997 39.1716 31.7633C39.1716 31.7815 39.1921 31.7815 39.1921 31.7997ZM64.2081 34.8724C65.8036 35.5633 68.1967 34.1633 69.3217 33.236C69.9354 32.727 70.6308 32.0906 70.3854 31.2906C70.1399 30.5269 69.2195 30.236 68.4013 30.3451C67.5013 30.4542 66.5808 30.8542 65.8036 31.236C64.9854 31.636 64.3308 32.036 64.024 32.7451C63.9013 32.8542 63.7785 32.9815 63.6763 33.1088C63.1649 33.727 63.4513 34.5451 64.2081 34.8724ZM32.0125 42.9815C32.4625 43.9815 33.3625 44.7452 34.7534 44.527C36.8603 44.1815 36.8398 42.0179 36.1443 40.6361C35.4898 39.327 33.8125 37.6542 32.0739 38.6906C30.9898 39.327 30.8671 40.6724 31.2352 41.6906C31.4193 42.1634 31.6852 42.5997 32.0125 42.9815ZM28.0239 46.5088C30.3148 46.0725 30.4375 43.6361 29.1284 42.3088C28.5352 41.6906 27.6148 41.0179 26.8375 40.5815C25.7943 39.9815 24.4443 39.9452 23.5443 40.7633C22.6238 41.5997 22.767 42.5634 23.3807 43.4361C23.3602 45.327 25.917 46.9088 28.0239 46.5088ZM23.1147 25.9269C21.9284 26.6906 21.867 28.0906 22.5216 29.1451C22.7057 29.8906 23.2375 30.5815 24.0761 30.8724C24.792 31.1269 25.6511 31.0906 26.2852 30.6542C27.5534 29.8178 27.267 28.2178 26.6329 27.1269C25.9784 25.9633 24.5261 25.0178 23.1147 25.9269ZM33.158 27.8542C34.5284 26.9997 34.5489 25.3815 33.7307 24.2178C33.1375 23.3815 32.033 22.7269 30.908 22.8178C29.4761 22.9269 28.7602 24.1269 28.9239 25.3087C29.067 26.3451 29.558 27.4906 30.6421 28.0178C31.4398 28.3997 32.4011 28.3269 33.158 27.8542ZM27.3489 48.7452C26.8375 48.9997 26.592 49.327 26.5307 49.6543C26.0602 49.7816 25.8761 50.1088 25.8148 50.527C25.6307 51.6543 26.9193 52.5634 27.8807 53.0543C28.8011 53.527 29.8034 53.8725 30.867 53.6361C32.933 53.1998 33.3216 51.1634 31.9921 49.8725C30.9489 48.8543 28.8216 47.9816 27.3489 48.7452ZM16.7329 59.2543C18.1443 59.0543 19.7806 58.0725 19.5966 56.6361C19.5352 56.0543 19.1261 55.4179 18.4715 55.1998C18.0011 55.0361 17.4897 55.0725 17.0193 55.2179C16.3034 55.4543 15.6693 55.7998 15.1579 56.3089C14.6465 56.7816 14.6465 57.4725 14.9738 57.9998C15.0352 58.7634 15.7715 59.3816 16.7329 59.2543ZM22.4602 62.0543C22.7261 62.5452 22.542 62.9452 22.9716 63.4362C23.2579 63.7634 23.5852 63.9998 23.9943 64.1816C26.0193 65.0907 29.7625 65.3998 31.9102 64.6544C34.2625 63.8362 34.7125 61.1634 32.4011 59.9998C31.3784 59.4907 30.3761 59.6543 29.2716 59.4543C27.7784 59.1816 27.4307 58.0543 26.1829 57.418C25.9988 57.327 25.7943 57.2361 25.5693 57.1634C24.9761 56.7089 24.0966 56.4725 23.1966 56.5816C21.5806 56.7816 20.1693 57.9816 20.3738 59.4907C20.5579 60.7634 21.9693 61.1271 22.4602 62.0543ZM14.1965 64.1089C14.7488 64.6544 15.1988 64.9453 15.9965 65.1089C16.7943 65.2725 17.2647 65.9089 17.8988 66.3271C19.2488 67.2544 22.0511 67.9998 22.4397 65.8362C22.7875 63.9271 20.3125 63.9453 19.5147 62.7816C19.3511 62.5452 19.2693 62.2907 19.1056 62.0543C17.9806 60.3998 15.1988 60.8907 13.8488 61.9452C12.9079 62.6725 13.542 63.4907 14.1965 64.1089ZM39.6216 63.3634C38.4966 63.2362 37.3716 63.7453 37.0034 64.7453C36.3489 66.5453 38.3125 69.1635 40.5012 69.0907C41.7489 69.0362 42.7103 68.1998 42.8944 67.1089C43.1603 65.5089 41.4012 63.5452 39.6216 63.3634ZM33.9557 71.8544C34.4466 74.2362 39.6421 76.0544 41.1966 73.5453C41.5444 72.9817 41.5444 72.2726 41.258 71.6907C40.7671 70.6726 39.5398 70.1816 38.5375 69.6544C37.4125 69.0725 36.4716 68.1453 35.2034 69.1453C34.2625 69.8907 33.7512 70.8726 33.9557 71.8544ZM51.6694 71.4544C50.1353 71.3453 48.5194 70.8362 46.9853 70.8726C46.4126 70.5816 45.758 70.3998 45.1035 70.4725C44.0194 70.618 43.283 71.5089 43.4262 72.4907C43.8557 75.3089 48.8058 75.8362 51.2603 75.9271C52.958 75.9998 59.6672 74.8362 56.7421 72.1816C55.6376 71.1998 53.1012 71.5635 51.6694 71.4544ZM21.6216 74.3453C23.0534 74.6726 25.1398 74.3635 25.5284 72.8726C25.8966 71.418 24.6898 69.9089 23.3602 69.1998C22.3784 68.6907 21.3147 68.7089 20.2306 68.6544C19.4125 68.618 19.1875 68.1635 18.5534 67.818C17.2238 67.1271 15.2602 66.9816 14.217 68.1453C13.5624 68.8544 13.3374 69.9271 13.7465 70.7816C14.1352 71.5998 15.0965 72.0544 15.9965 72.3089C17.0193 72.5998 18.2465 72.4544 19.1465 72.9998C19.9647 73.5089 20.5988 74.1089 21.6216 74.3453ZM27.4102 71.7635C29.4966 73.2544 33.9966 71.3816 32.708 68.7635C32.3602 68.0544 31.6239 67.4907 30.7852 67.2907C29.558 66.9816 28.5966 67.3998 27.9011 68.3089C27.3693 69.018 26.3057 70.5816 26.9807 71.3816C27.1034 71.5089 27.2466 71.6544 27.4102 71.7635ZM11.9465 77.0726C11.9056 77.1271 11.8442 77.1635 11.8238 77.218C11.3738 77.8362 11.3329 78.6362 11.742 79.2544C12.5602 80.509 14.5443 80.509 15.7102 79.709C16.7329 79.018 17.3465 77.418 16.6102 76.3817C16.467 75.018 15.1783 73.9817 13.5829 73.6908C12.5806 73.5089 11.4965 74.0544 11.1692 74.9635C11.0261 75.3817 11.0874 75.8544 11.292 76.2362C11.4556 76.5271 11.7011 76.8362 11.9465 77.0726ZM22.7261 76.8544C21.3556 76.3271 19.3511 76.4908 18.6352 77.8362C18.3488 78.3635 18.4306 78.9271 18.6965 79.4362C17.9602 82.0362 22.8284 83.8908 25.2216 83.0362C28.8216 81.7271 24.7511 77.6362 22.7261 76.8544ZM33.0762 77.818C33.7512 76.7999 33.2398 75.5271 32.1761 74.9271C31.2966 74.4362 29.9875 74.3453 29.0057 74.5453C27.8398 74.7817 26.8989 75.6908 27.042 76.818C27.0829 77.1089 27.2057 77.3817 27.3693 77.618C28.1057 79.3635 31.9511 79.4908 33.0762 77.818ZM42.0557 80.5817C42.6694 79.3999 41.8103 78.3453 40.7466 77.6726C38.9875 76.5635 37.0034 77.2908 36.3489 78.9817C36.2671 79.218 36.1648 79.4362 36.1853 79.6908C36.2466 80.7635 37.883 81.5817 38.9057 81.7999C40.1944 82.0726 41.483 81.6908 42.0557 80.5817ZM31.358 80.9635C31.0102 81.0544 30.683 81.1999 30.4375 81.4362C29.3125 81.9635 28.5966 83.1271 29.0875 84.2544C29.3943 84.9635 30.1102 85.4544 30.9693 85.4908C31.6443 85.509 32.5239 85.3817 33.1171 85.0908C34.5489 84.3635 35.1216 82.6908 33.8943 81.5635C33.2193 80.9453 32.258 80.7453 31.358 80.9635ZM16.0374 88.1999C16.7534 87.3999 16.7738 86.3817 16.4056 85.4362C15.792 83.8726 13.8897 81.8544 11.7829 82.7635C10.6988 83.2362 10.3715 84.109 10.5351 84.9999C10.1465 85.5817 9.98288 86.2544 10.2897 86.9635C10.8011 88.1272 11.6602 88.9272 13.092 89.109C14.1761 89.2726 15.342 88.9635 16.0374 88.1999ZM15.792 96.6181C16.017 96.9454 16.3238 97.2181 16.692 97.4363C17.6534 97.9636 19.0238 98.1636 20.1284 97.9272C22.7057 97.3818 22.8079 94.9817 21.6625 93.2545C20.7216 91.8363 18.4102 89.6181 16.4465 91.1272C15.4852 91.8545 15.5056 93.1999 15.3011 94.2363C15.1374 95.0181 15.3011 95.9272 15.792 96.6181ZM20.4147 102.455C20.1897 100.927 18.5125 99.9636 16.8352 100.054C14.7897 100.164 13.2556 101.527 13.0715 103.291C13.0306 103.727 13.4397 104.073 13.9102 104.109C14.4011 104.127 14.7693 103.855 14.9738 103.473C14.9738 103.473 14.9738 103.473 14.9943 103.473C14.9534 103.6 14.9943 103.6 15.117 103.545C15.1783 103.564 15.2397 103.582 15.3011 103.618C15.4034 103.945 15.5874 104.255 15.8329 104.491C16.2829 104.964 16.9988 105.236 17.6943 105.273C19.392 105.345 20.6193 103.891 20.4147 102.455ZM11.5988 104.4C10.6783 104.564 9.8806 105.345 9.90105 106.2C9.92151 106.945 10.7602 107.909 11.3942 108.382C14.1761 110.473 15.9556 103.618 11.5988 104.4ZM42.2603 101C42.5876 100.964 42.8944 100.945 43.1603 101.091C43.3239 101.2 43.4466 101.345 43.5694 101.473C44.2239 102.091 45.308 102.364 46.1876 101.982C47.6398 101.345 47.8239 99.6727 47.1489 98.509C46.3717 97.1818 44.3671 95.9817 42.7103 96.7636C41.1762 97.4908 40.4194 99.1272 41.0535 100.6C41.258 101.145 41.7694 101.055 42.2603 101ZM51.424 96.2908C53.0603 96.0181 55.8012 94.1999 54.0421 92.5636C53.2035 91.7817 51.4853 91.7635 50.3603 91.5999C48.8467 91.3999 47.3126 91.2908 45.7785 91.2363C45.083 91.2181 44.5921 91.5272 44.3262 91.9454C44.1217 92.0363 43.9171 92.1817 43.733 92.4181C43.0989 93.2181 43.508 94.1636 44.2444 94.7454C45.8807 96.0545 49.3171 96.6363 51.424 96.2908ZM59.749 91.5454C59.8922 90.1999 59.3808 88.5999 57.7444 88.1999C55.8422 87.7453 54.5331 89.509 54.799 90.9999C54.799 91.0181 54.799 91.0181 54.7785 91.0363C54.6353 91.6181 54.5944 92.1454 54.7785 92.7272C55.0444 93.4726 55.8012 93.9818 56.6603 94.0908C58.4399 94.3272 59.5853 92.9454 59.749 91.5454ZM66.499 89.1635C66.6831 87.7272 65.0263 87.5999 63.9217 87.7635C63.6558 87.7999 63.3695 87.8544 63.124 87.9635C61.999 88.4908 61.549 90.9454 61.0172 91.9272C60.4854 92.909 61.7331 94.1999 62.899 93.8908C65.3945 93.2363 66.2331 91.2908 66.499 89.1635ZM66.7036 96.9636C67.6445 96.7454 68.5445 96.0545 69.0558 95.3454C69.3422 94.9454 69.6286 94.4726 69.6695 93.9817C69.7513 93.0908 69.0354 92.309 68.0536 92.1817C66.1922 91.9454 63.6558 94.509 64.5354 96.109C64.924 96.8363 65.8445 97.1454 66.7036 96.9636ZM61.3854 103C63.2467 103.291 65.0876 102.273 65.3536 100.564C65.5786 99.0909 64.9036 97.0909 62.899 97.0909C61.2831 97.0727 59.7285 98.1818 59.1353 99.4727C58.3581 101.091 59.4422 102.691 61.3854 103ZM58.5626 96.7999C58.4399 95.9454 57.3558 95.5999 56.5376 95.6908C54.6558 95.909 52.4467 97.1818 51.7921 98.7818C51.4853 99.5454 51.7921 100.364 52.6308 100.709C54.1444 101.327 55.6171 100.691 56.824 99.8363C57.9285 99.0545 58.7467 98.109 58.5626 96.7999ZM51.3421 106.109C52.733 106.4 54.2876 106.636 55.1671 105.382C55.6581 104.691 55.5762 103.782 54.9421 103.164C54.4921 102.727 53.8171 102.527 53.183 102.4C51.9149 102.145 50.0126 102 49.1944 103.109C48.7853 103.655 48.7853 104.4 49.1126 104.964C49.3989 105.473 49.9921 105.855 50.6058 105.964C50.8512 106 51.0967 106.055 51.3421 106.109ZM62.2649 104.255C61.1808 103.764 59.7899 103.709 58.7467 104.327C58.1944 104.655 57.949 105.309 57.3149 105.545C56.3331 105.927 55.4535 106.255 54.9831 107.182C54.5126 108.091 54.1444 109.291 54.9217 110.145C56.6603 112.073 61.2217 111.436 63.1854 110.182C65.8445 108.491 64.9445 105.436 62.2649 104.255ZM67.0104 107.818C68.8513 108.345 69.6286 106.964 70.9581 106.236C72.1445 105.6 73.4127 105.291 73.4945 103.818C73.5763 102.455 72.349 101.236 70.8763 101.036C69.0763 100.8 67.9104 101.691 66.7445 102.745C66.3354 103.109 65.9467 103.491 65.6399 103.927C64.699 105.291 65.2308 107.309 67.0104 107.818ZM75.3968 95.0363C74.2718 94.2908 72.7377 94.2181 71.4695 94.709C69.9967 95.2545 69.1172 96.2727 69.0558 97.6727C69.0354 98.109 69.199 98.5454 69.6899 98.709C69.7104 98.709 69.7308 98.709 69.7308 98.709C70.4672 100.345 73.3922 101.036 75.049 100.327C77.3809 99.3272 77.3809 96.3454 75.3968 95.0363ZM78.9968 89.909C78.015 89.8726 77.4218 90.3635 77.0536 91.0363C76.9513 91.0908 76.89 91.1635 76.849 91.2544C76.399 92.7635 76.0718 94.509 77.5854 95.4908C78.24 95.909 79.14 95.9818 79.8763 95.6545C81.165 95.0727 81.8809 93.5817 81.5332 92.3454C81.2877 91.3272 80.2854 89.9635 78.9968 89.909ZM71.449 91.5454C73.1672 91.5454 73.8831 89.9999 74.0263 88.7272C74.1899 87.3817 73.2286 85.9817 71.5922 85.9635C69.8945 85.9453 69.0967 87.5999 68.974 88.8908C68.8513 90.1999 69.9149 91.5454 71.449 91.5454ZM75.8263 85.6726C75.7036 85.909 75.6218 86.1453 75.5604 86.3635C75.1922 87.6363 76.1331 88.8181 77.6672 88.709C78.8536 88.6181 79.8354 87.7999 80.1423 86.8181C80.49 85.7272 80.2854 84.2908 78.8536 83.9272C77.4422 83.5453 76.3786 84.5817 75.8263 85.6726ZM75.5195 79.2726C74.4149 78.618 73.0036 78.9635 72.2672 79.8908C71.9399 80.309 71.9399 80.8544 72.1649 81.3271C72.0013 82.109 72.1649 82.9271 72.8399 83.4908C73.3309 83.909 73.9854 84.0908 74.6604 83.9635C75.8672 83.7453 76.3786 82.7271 76.5218 81.7453C76.6854 80.818 76.44 79.8362 75.5195 79.2726ZM66.4377 79.3453C65.9263 80.0362 66.049 81.0544 66.0695 81.8362C66.0695 82.1271 66.1513 82.4181 66.3149 82.6726C66.3149 82.6726 66.3149 82.6726 66.3149 82.6908C66.3558 83.1635 66.7445 83.6908 67.2558 83.8544C68.749 84.3453 70.0172 83.509 70.2422 82.1453C70.3649 81.2908 70.3036 80.2544 69.8127 79.509C69.0967 78.418 67.2354 78.2544 66.4377 79.3453ZM60.6285 78.2362C58.5217 78.4726 55.9035 80.218 57.0899 82.3271C57.5194 83.109 58.3581 83.709 59.2785 84.0181C59.6672 84.1453 60.0763 84.2181 60.3831 84.4726C60.7513 84.7635 60.8331 85.2362 61.2831 85.4726C62.1422 85.9453 63.3081 85.709 64.0445 85.1453C65.2308 84.2362 65.599 82.4908 64.3104 81.509C64.2081 81.4181 64.0854 81.3453 64.024 81.2362C63.8195 80.8726 64.2286 80.4362 64.2286 80.0726C64.2286 79.6908 64.0444 79.2726 63.7581 78.9817C63.0013 78.1817 61.7126 78.1089 60.6285 78.2362ZM59.0126 74.5453C59.0126 74.5817 59.0126 74.5998 58.9922 74.6362C58.8694 75.2726 59.1353 75.9089 59.7694 76.2362C61.3035 76.9999 62.6535 76.018 63.3285 74.8362C63.8195 73.9817 64.1672 72.7089 63.6354 71.818C62.8581 70.5089 61.0581 70.7998 60.0558 71.7089C59.2376 72.4362 58.8899 73.4726 59.0126 74.5453ZM66.6831 71.7089C65.8854 71.9089 65.3945 72.418 65.1285 73.018C63.9217 73.9635 63.6354 75.5271 64.7195 76.3817C65.0263 76.618 65.374 76.7635 65.7626 76.818C66.4581 76.9089 67.1536 76.6544 67.7058 76.2726C68.5649 75.6908 69.2195 74.7089 69.3013 73.7453C69.3831 72.4544 68.1558 71.3453 66.6831 71.7089ZM71.9195 73.0907C70.8763 73.3453 70.3854 74.218 70.324 75.0908C70.1195 75.7817 70.099 76.4726 70.6513 77.0908C70.8763 77.3271 71.1627 77.5453 71.4899 77.6726C72.0627 77.8908 72.7172 77.8908 73.2695 77.6544C74.4968 77.1453 74.5581 75.8544 74.4354 74.818C74.3127 73.7089 73.2286 72.7817 71.9195 73.0907ZM75.7036 74.018C75.724 74.018 75.765 74.018 75.7854 74.018C76.0309 73.9998 76.5013 74.3817 76.8082 74.418C77.6263 74.5453 78.465 74.2362 79.0172 73.6726C80.8786 71.7453 77.9536 68.9453 75.54 69.9998C75.09 70.1998 74.6604 70.5453 74.415 70.9453C74.1081 71.4544 74.1081 71.9089 74.0877 72.4544C74.0468 73.2544 74.7831 74.018 75.7036 74.018ZM66.4581 70.5453C68.2581 70.7453 69.9558 70.1089 71.1013 68.9816C71.449 69.1816 71.9195 69.218 72.2672 68.8726C73.3104 67.8907 74.374 66.7089 74.0263 65.2543C73.7809 64.2362 72.6149 63.418 71.4695 63.2907C69.9967 63.1089 68.4013 64.018 67.9922 65.2907C67.9513 65.418 67.9104 65.5634 67.8286 65.6725C67.4195 66.1271 66.0081 66.0544 65.3945 66.3271C64.3308 66.7998 63.3694 67.6907 63.6967 68.8362C64.024 69.9635 65.2717 70.418 66.4581 70.5453ZM76.3786 66.7271C77.1559 67.7635 78.5877 68.2544 79.8968 67.7271C82.1673 66.818 82.0445 64.3453 81.4104 62.5634C81.1241 61.7452 80.715 60.9452 79.815 60.5089C78.8331 60.0361 77.5445 60.2543 76.7672 60.9452C75.8263 61.7816 75.6422 63.1089 76.0718 64.218C75.8263 65.0725 75.8059 65.9816 76.3786 66.7271ZM83.5173 66.2543C83.4968 66.7271 83.5991 67.1998 83.865 67.5998C84.3354 68.2907 85.215 68.7453 86.1355 68.6544C88.0173 68.4725 88.7945 66.6725 88.4059 65.1816C88.0786 63.9271 87.1377 62.2907 85.4605 62.3816C83.7218 62.4725 82.8627 64.5089 83.3127 65.8362C83.3332 65.9998 83.415 66.1271 83.5173 66.2543ZM80.94 72.3817C81.2059 73.618 82.3104 74.6726 83.415 75.3998C84.4173 76.0726 85.9923 76.8362 87.3014 76.5453C89.4082 76.0726 89.1014 74.1271 87.9968 72.5998C87.24 71.1635 85.7877 69.7816 83.9877 69.4725C82.065 69.1453 80.5922 70.7453 80.94 72.3817ZM89.4491 84.5635C90.3696 84.9635 91.5764 85.0726 92.415 84.4362C93.2946 83.7635 93.4173 82.6544 92.9264 81.7453C92.64 81.218 92.0059 80.818 91.8423 80.2544C91.5764 79.4362 91.5559 78.6544 90.7173 78.0726C89.715 77.3817 88.2218 77.4908 87.3627 78.3271C86.5036 79.1635 86.5855 80.309 87.0968 81.2726C87.7105 82.5271 87.915 83.8908 89.4491 84.5635ZM95.2582 85.8363C96.0355 87.0363 97.9173 87.4544 99.1241 86.4908C100.208 85.6181 100.126 84.0544 99.9014 82.909C99.6355 81.5635 98.8787 80.3453 97.8764 79.3453C96.9764 78.4544 95.4628 78.9271 95.0332 79.9453C94.3582 81.4726 94.3173 84.3635 95.2582 85.8363ZM108.247 91.109C110.62 91.909 111.99 89.5999 112.195 87.8908C112.358 86.3272 112.051 83.6181 109.597 83.8544C108.656 83.9453 108.022 84.5453 107.633 85.2726C107.101 86.2908 106.529 87.3635 106.529 88.509C106.508 89.5817 107.04 90.6908 108.247 91.109ZM102.786 91.6181C105.588 90.7272 105.445 86.6181 104.34 84.709C103.358 83.0181 100.351 84.309 101.333 86.0181C101.415 86.1453 101.517 86.4362 101.599 86.7635C101.292 87.1635 100.761 87.5453 100.515 87.8544C100.106 88.3635 99.7378 88.9817 99.7378 89.6181C99.6969 91.0363 101.231 92.109 102.786 91.6181ZM111.765 98.4363C112.808 99.6363 114.874 100.436 116.531 99.7636C119.742 98.4727 118.72 94.7636 116.572 93.0908C115.324 92.1272 113.381 92.0908 112.379 93.3636C112.174 93.6363 112.011 93.9272 111.908 94.2363C110.845 95.3818 110.722 97.2545 111.765 98.4363ZM114.751 104.764C113.892 106 114.67 107.055 115.815 107.764C116.981 109.2 119.129 110.109 121.072 109.545C122.258 109.2 123.158 108.182 122.933 107.036C122.749 106.109 121.972 105.364 121.072 104.891C119.395 104 116.081 102.854 114.751 104.764ZM118.842 126.055C120.683 125.8 123.997 124.345 123.015 122.218C122.361 120.8 120.356 120.836 118.986 121.236C117.615 121.636 115.386 122.727 115.447 124.182C115.508 125.727 117.37 126.273 118.842 126.055ZM127.474 132.946C128.722 132.655 129.97 131.855 130.604 130.836C131.442 129.509 130.89 127.818 129.254 127.255C126.554 126.309 121.706 129.109 123.772 131.818C124.549 132.855 126.145 133.255 127.474 132.946ZM116.981 132.273C118.515 132.491 120.295 131.8 120.888 130.491C121.358 129.455 120.949 128.273 119.783 127.8C118.188 127.146 116.572 127.8 115.426 128.818C114.731 129.436 114.445 130.582 115.12 131.346C115.57 131.873 116.245 132.164 116.981 132.273ZM112.215 131.073C112.992 129.855 112.461 128.382 110.967 127.855C110.251 127.6 109.413 127.527 108.554 127.582C108.451 127.546 108.329 127.546 108.206 127.546C106.161 127.727 103.645 127.891 101.926 129C100.433 129.982 100.433 131.909 102.029 132.8C104.708 134.309 110.558 133.709 112.215 131.073ZM110.415 125.818C111.458 125.2 112.011 124.182 111.356 123.127C110.497 121.764 108.104 121.491 106.549 121.436C103.195 121.327 96.2605 122.018 95.3196 125.673C94.3378 126.291 93.5605 127.018 93.9082 128.309C94.2559 129.582 95.6673 130.291 97.1196 129.964C97.9991 129.764 98.6946 129.164 99.4105 128.709C100.863 127.782 102.192 127.146 103.972 126.946C106.038 126.709 108.574 126.891 110.415 125.818ZM97.9378 114.945C98.2037 113.945 98.49 112.4 97.6105 111.582C96.6287 110.673 94.9514 110.945 93.8673 111.509C91.7196 112.636 90.165 114.727 89.3059 116.855C89.2446 116.909 89.2037 116.982 89.1423 117.036C88.4059 118.182 87.3423 119.964 88.59 121.109C89.5105 121.964 90.8196 121.891 91.9241 121.345C94.5832 120.073 97.2219 117.618 97.9378 114.945ZM91.9241 135.2C91.3514 135.473 91.0037 135.909 90.4514 136.2C90.2877 136.291 90.1036 136.364 89.94 136.455C88.4673 137.291 88.1196 139.491 89.5514 140.509C91.74 142.091 94.3787 139.6 95.0741 137.873C95.381 137.127 95.3196 136.218 94.7264 135.6C94.0105 134.891 92.8855 134.764 91.9241 135.2ZM111.213 136.164C111.029 137.273 111.888 138.236 112.972 138.673C115.651 139.764 119.64 139.109 122.238 138.182C125.061 137.182 125.122 134.473 122.156 133.6C119.701 132.891 116.081 132.891 113.872 134.327C112.665 134.473 111.438 134.891 111.213 136.164ZM106.161 144.746C107.879 145.727 109.638 145.091 111.274 144.309C112.829 143.564 113.872 142.691 113.647 141.018C113.565 140.364 112.726 139.909 112.051 139.891C109.945 139.782 108.431 140.709 106.815 141.782C105.895 142.364 104.811 143.964 106.161 144.746ZM126.472 137.818C126.165 138.146 125.899 138.618 125.94 139.073C125.736 139.4 125.674 139.8 125.879 140.146C126.881 141.873 129.152 142.364 131.217 142.073C132.588 141.891 134.695 141.273 134.674 139.764C134.633 138.2 132.404 137.473 130.931 137.2C129.622 136.964 127.454 136.782 126.472 137.818ZM127.29 146.327C128.149 145.527 128.865 144.364 128.19 143.291C127.699 142.491 126.758 142.273 125.879 142.418C125.572 142.473 125.327 142.327 124.999 142.455C124.713 142.564 124.427 142.8 124.202 143C123.383 143.727 122.872 145 123.424 146C124.161 147.309 126.247 147.309 127.29 146.327ZM116.899 146.873C118.27 147.309 119.886 146.418 120.581 145.4C121.379 144.218 121.399 142.527 119.988 141.709C118.638 140.927 116.47 141.164 115.242 141.946C114.711 142.291 114.486 142.891 114.711 143.455C114.895 143.873 115.242 143.891 115.508 144.182C115.876 144.582 115.59 145.236 115.713 145.709C115.856 146.236 116.306 146.673 116.899 146.873ZM112.706 149.927C114.854 149.727 114.956 147.182 113.504 146.2C112.808 145.727 111.765 145.509 110.926 145.709C109.822 145.964 108.901 147.055 109.331 148.091C109.597 148.746 110.149 149.164 110.865 149.2C111.295 149.746 111.908 150 112.706 149.927ZM102.54 156.182C104.381 156.655 106.795 156.746 108.349 155.582C109.883 154.437 110.17 152.346 109.229 150.8C108.186 149.109 105.976 148.255 103.87 148.691C102.847 148.909 101.886 149.491 101.292 150.255C100.106 150.255 98.981 150.818 98.5923 152.127C97.9991 154.146 100.74 155.727 102.54 156.182ZM117.267 156.4C117.656 157.237 118.495 157.727 119.477 157.873C121.522 158.2 123.752 157.273 124.242 155.4C124.692 153.727 123.792 151.437 122.402 150.273C121.338 149.382 119.681 149.073 118.372 149.582C116.572 149.164 114.629 149.964 113.811 151.564C113.258 152.637 113.422 153.727 114.608 154.418C115.365 154.855 116.449 154.637 117.247 154.855C117.165 155.018 117.083 155.182 117.063 155.327C117.022 155.691 117.104 156.055 117.267 156.4ZM128.252 148.291C127.147 148.255 126.206 148.964 125.613 149.818C125.47 150.037 125.081 150.146 124.877 150.327C124.652 150.527 124.467 150.782 124.345 151.055C123.67 152.527 124.856 154.018 126.615 154.091C128.211 154.164 129.745 153.273 130.256 151.909C130.727 150.618 130.154 148.346 128.252 148.291ZM134.02 155.527C134.961 155.146 135.717 154.309 136.024 153.437C136.433 152.273 136.208 150.637 134.49 150.527C133.386 150.455 132.22 151.146 131.667 151.982C131.565 152.146 131.483 152.346 131.442 152.527C131.033 153.273 130.911 154.109 131.463 154.855C131.995 155.582 133.12 155.891 134.02 155.527ZM135.758 161.946C133.979 162.127 133.324 164.037 133.59 165.382C133.59 165.4 133.59 165.4 133.57 165.418C133.304 166.437 133.57 167.6 134.736 168.055C135.492 168.364 136.372 168.273 137.027 167.8C137.702 167.291 137.865 166.455 137.967 165.709C138.172 164.273 138.049 161.727 135.758 161.946ZM126.186 157.073C125.081 158.055 123.813 158.837 124.079 160.2C123.67 161.473 124.958 162.655 126.329 162.764C126.288 162.764 126.349 163.8 126.349 163.891C126.513 164.909 126.861 166.127 127.924 166.691C129.417 167.491 131.177 166.727 131.954 165.491C132.895 164 132.608 161.909 132.567 160.255C132.527 158.691 132.24 157.055 130.481 156.291C128.947 155.6 127.352 156.037 126.186 157.073ZM126.84 167.909C126.206 165.746 123.854 164.2 122.013 162.891C120.356 161.727 120.867 159.237 117.983 159.255C115.795 159.273 114.915 161.182 115.713 162.782C115.59 162.927 115.488 163.091 115.406 163.309C114.69 164.946 116.204 167.273 117.288 168.527C118.72 170.182 121.092 171.928 123.588 171.782C125.817 171.655 127.433 169.891 126.84 167.909ZM110.538 156.873C109.372 157.873 109.126 160.546 110.742 161.364C112.645 162.309 114.874 160.418 114.997 158.8C115.14 156.691 112.276 155.382 110.538 156.873ZM104.729 158.582C103.89 158.055 102.826 158 101.967 158.509C101.211 158.946 100.842 159.764 100.658 160.527C100.515 161.109 100.536 161.637 100.74 162.091C100.72 163.127 101.292 164.237 102.479 164.564C104.77 165.2 106.14 162.782 106.017 161.109C105.956 160.182 105.629 159.146 104.729 158.582ZM109.106 163C107.879 163.091 106.958 163.6 107.224 164.873C107.388 165.691 108.288 166.291 109.086 166.6C110.231 167.055 111.867 167.346 113.054 166.837C114.404 166.273 114.465 164.764 113.361 163.964C112.624 163.437 110.64 162.891 109.106 163ZM106.467 167.491C105.24 166.582 103.583 166.364 102.049 166.564C101.129 166.673 100.147 167.018 99.6355 167.637C99.5128 167.727 99.4105 167.837 99.3491 167.946C98.1423 168.873 98.5923 170.327 100.413 171.164C102.131 171.964 104.483 171.782 106.14 170.891C107.633 170.091 107.858 168.509 106.467 167.491ZM114.383 168.582C112.911 168.237 110.599 168.709 109.495 169.709C109.208 169.818 108.963 169.982 108.758 170.2C107.92 171.128 108.738 172.4 109.781 172.873C111.397 173.582 113.586 173.218 114.997 172.255C116.511 171.255 116.367 169.055 114.383 168.582ZM107.695 174.018C107.654 174.018 107.613 174.018 107.572 174.018C105.383 174.128 104.586 176 105.915 177.509C107.224 179 110.599 179.273 111.52 177.255C112.358 175.4 109.392 173.982 107.695 174.018ZM119.681 172.818C117.697 172.473 115.57 173.637 116.04 175.528C115.488 176.873 117.063 178.273 118.331 178.946C119.988 179.837 122.504 180.291 124.324 179.509C126.247 178.673 126.063 176.837 124.897 175.509C123.731 174.146 121.563 173.146 119.681 172.818ZM129.745 171.146C127.658 171.109 127.065 173.237 127.024 174.909C126.738 176.564 126.717 178.437 128.845 178.964C131.177 179.528 132.67 177.473 132.711 175.655C132.731 173.964 132.179 171.182 129.745 171.146ZM110.251 182.237C108.615 182.182 108.124 183.855 108.901 184.728C109.249 185.691 110.354 186.437 111.295 186.764C111.765 186.928 112.276 187.037 112.767 187.018C114.199 186.964 115.222 185.946 114.895 184.673C114.506 183.055 111.867 182.291 110.251 182.237ZM108.799 186.546C106.958 186.437 105.67 187.782 106.467 189.346C106.631 189.673 106.897 189.873 107.204 190C108.124 191.4 110.497 192.346 112.051 191.837C114.056 191.182 113.667 189.218 112.461 188.091C111.52 187.218 110.17 186.637 108.799 186.546ZM62.2649 181.582C61.1604 180.891 59.5444 180.491 58.3581 181.273C57.6012 181.764 57.3762 182.618 57.7035 183.382C57.9285 183.928 58.4808 184.273 59.074 184.437C59.3399 184.8 59.6263 185.055 60.1376 185.255C60.9967 185.6 61.999 185.655 62.7558 185.109C63.3899 184.673 63.7785 183.909 63.5945 183.182C63.4104 182.491 62.899 181.982 62.2649 181.582ZM64.9445 164.546C63.5945 164.127 61.7944 164.346 61.2013 165.673C60.9149 166.327 61.1399 167 61.2626 167.655C61.5081 168.982 62.8581 170 64.1672 170.527C65.4763 171.073 67.4195 171.255 68.6058 170.346C71.0604 168.455 66.949 165.164 64.9445 164.546ZM66.1717 154.6C65.4763 155.782 65.3126 157.109 65.6195 158.4C65.5376 159.109 65.3536 159.964 65.6195 160.655C65.9467 161.491 67.0308 161.855 67.9104 161.509C69.4445 160.909 69.9149 159.618 70.1399 158.255C70.3649 156.946 70.5695 155.291 69.7308 154.091C68.7081 152.582 66.9081 153.364 66.1717 154.6ZM71.8377 142.527C70.1604 141.927 68.5036 142.727 67.5627 143.982C67.0922 144.618 66.7649 145.364 66.6831 146.127C66.6013 147 66.9899 147.655 67.174 148.455C67.5422 150.164 69.9354 150.891 71.5718 150.127C73.1468 149.382 73.4536 147.746 73.5149 146.309C73.5763 144.909 73.5559 143.146 71.8377 142.527ZM66.4581 135.764C63.9831 134.964 62.1013 137.127 61.8558 139.236C61.4876 140.036 61.324 140.946 61.5081 141.764C61.999 143.946 64.8217 143.855 66.3149 142.691C68.1967 141.236 69.6286 136.8 66.4581 135.764ZM71.1422 132.618C68.974 133.982 69.0354 138.836 72.6968 138.982C74.9672 139.073 76.5627 137.018 75.8672 135.146C75.4581 134.018 74.5172 132.746 73.1672 132.364C72.3695 132.146 71.6945 132.273 71.1422 132.618ZM65.0058 133.691C66.4786 132.655 67.2149 131.127 67.8081 129.582C68.3604 128.182 69.3422 126.364 67.8286 125.146C65.1081 122.945 62.3672 126.8 61.5081 129.164C60.5058 130.236 59.7899 131.709 60.3626 132.982C61.1604 134.691 63.574 134.691 65.0058 133.691ZM63.2876 118.982C62.5308 119.036 61.8763 119.364 61.3649 119.855C60.8331 120.382 60.5876 120.909 60.5672 121.527C60.2603 122.018 60.0967 122.582 60.2808 123.146C60.5672 124.018 61.5899 124.618 62.5922 124.473C63.9831 124.273 65.0263 123.018 65.5172 121.927C66.1513 120.509 65.1285 118.836 63.2876 118.982ZM75.6013 122.218C74.4763 121.564 72.9831 121.6 72.1036 122.473C71.4081 122.855 70.8354 123.455 70.5286 124.091C70.2627 124.291 70.0786 124.582 70.1604 124.982C70.4877 126.836 70.3649 129.218 72.0627 130.6C73.3718 131.655 75.2945 131.673 76.665 130.691C79.4263 128.673 78.4036 123.836 75.6013 122.218ZM77.1354 113.055C73.474 113.618 74.1899 116.527 75.8059 118.873C76.174 120.527 77.1354 122.291 78.8332 123.127C80.9604 124.182 82.6786 123.345 83.19 121.345C84.0491 118.018 82.0036 112.309 77.1354 113.055ZM66.9899 118.582C69.5058 120.436 72.3899 116.182 73.3104 114.564C73.8831 113.564 74.64 112.055 74.3127 110.909C73.9036 109.509 72.2263 109.182 70.8763 109.709C68.4013 110.655 65.9876 113.782 66.1308 116.182C66.1308 116.236 66.1513 116.273 66.1513 116.309C66.0285 117.127 66.1922 117.982 66.9899 118.582ZM91.1878 110.891C92.8037 111.818 94.8287 110.255 95.6878 109.091C96.6287 107.855 97.0991 105.218 94.7059 105.073C93.3559 104.982 91.5968 105.909 91.0855 107.109C90.0832 108.327 89.6946 110.018 91.1878 110.891ZM106.754 108.782C104.974 108.618 103.051 109.673 101.783 110.8C101.026 111.127 100.392 111.618 100.126 112.382C99.7582 113.436 100.372 114.527 101.661 114.745C103.501 115.055 106.181 113.964 107.592 112.927C109.188 111.745 109.311 109.018 106.754 108.782ZM112.645 106.855C111.929 106.818 111.295 107.145 110.886 107.636C110.374 108.273 110.026 109.6 110.415 110.309C110.62 110.691 111.008 111.018 111.417 111.2C112.092 111.491 112.931 111.4 113.524 111.018C114.404 110.455 114.608 109.582 114.526 108.673C114.465 107.764 113.77 106.909 112.645 106.855ZM112.624 104.055C112.829 103.327 112.951 102.473 112.44 101.818C111.908 101.109 110.906 100.909 110.047 101.182C109.086 101.473 108.656 102.145 108.247 102.873C107.47 103.545 106.958 104.491 107.347 105.455C107.695 106.291 108.676 106.782 109.658 106.691C111.111 106.545 112.297 105.255 112.624 104.055ZM99.5537 108.782C100.924 109.418 102.642 108.491 103.563 107.582C104.586 106.582 105.322 104.691 103.706 103.782C102.376 103.036 100.863 103.909 100.045 104.964C99.431 105.255 98.9196 105.655 98.6537 106.236C98.2037 107.182 98.5105 108.291 99.5537 108.782ZM104.442 96.3454C103.706 97.2363 103.031 98.5454 103.174 99.5272C103.338 100.673 104.381 101.454 105.67 101.382C107.92 101.255 108.615 99.1272 108.881 97.4908C109.126 96.0545 109.495 93.3454 107.04 93.2727C105.731 93.2363 105.22 94.3636 104.831 95.2727C104.688 95.6181 104.565 95.9818 104.442 96.3454ZM98.3469 103.527C100.536 102.782 103.051 100.164 102.008 98.3636C101.047 96.709 98.2855 97.8363 97.3855 98.9818C96.5673 100.036 95.34 101.073 95.6469 102.491C95.9332 103.782 97.0787 103.964 98.3469 103.527ZM92.8037 96.7818C91.3923 96.909 90.3491 97.9272 89.8173 99.0363C89.4491 99.3999 89.1832 99.7999 89.1832 100.345C89.1832 101.418 90.39 102.273 91.5559 102.164C92.7628 102.054 94.1537 100.909 94.7468 100.018C95.1559 99.3999 95.2787 98.6727 94.9719 97.9999C94.6446 97.2181 93.765 96.6908 92.8037 96.7818ZM97.2628 97.109C98.6741 97.1818 99.9832 96.2363 100.576 95.1636C101.211 94.0181 101.19 92.109 99.4923 91.709C98.715 91.5272 97.9582 91.7454 97.3446 92.1999C96.4855 92.8726 95.2991 93.5817 95.115 94.6727C94.89 95.8727 95.8719 97.0363 97.2628 97.109ZM92.4764 87.7272C91.4332 87.9272 90.6968 88.7817 90.3696 89.6363C90.1446 90.1999 90.0218 90.8726 89.9809 91.4545C89.8377 92.9817 91.5559 94.0181 93.1719 93.5817C94.6446 93.1817 95.565 91.7272 95.5446 90.3999C95.5446 89.109 94.0719 87.4181 92.4764 87.7272ZM81.0627 98.9636C81.1445 99.8727 81.5945 100.654 82.5354 100.964C84.4377 101.582 85.8491 100.054 86.0741 98.5272C86.2786 97.1272 85.8286 94.7636 83.6809 95.0181C82.0445 95.1999 80.9195 97.2908 81.0627 98.9636ZM77.1559 106.618C78.4241 106.545 78.9354 105.582 79.2832 104.636C79.4672 104.145 79.59 103.636 79.8354 103.164C80.1423 102.582 80.5718 102.091 80.3263 101.4C80.04 100.6 78.7513 100.018 77.8922 100.509C76.8286 101.109 76.0104 101.8 75.499 102.854C75.1718 103.509 74.8445 104.382 74.9877 105.109C75.1922 106.018 76.1127 106.691 77.1559 106.618ZM83.1491 80.6362C84.1309 79.418 83.5582 77.6726 82.4741 76.6908C81.4104 75.7271 79.2013 74.7635 78.015 76.0908C76.9104 77.3453 77.9945 79.6726 79.0786 80.6908C80.1218 81.6908 82.2082 81.7999 83.1491 80.6362ZM14.9124 123.546C14.9738 123.764 15.0761 123.982 15.1784 124.2C15.0965 125.709 16.017 127.055 17.6329 127.691C18.6556 128.091 20.2102 128.4 21.2534 127.946C24.1375 126.691 21.1511 123.582 19.9238 122.273C19.167 121.473 18.0011 120.836 16.7738 121.036C15.4852 121.255 14.5647 122.382 14.9124 123.546ZM20.1284 134.673C19.6988 135.236 19.4125 135.891 19.392 136.6C19.3511 137.727 20.0056 138.836 21.192 139.291C22.2147 139.691 23.3807 139.564 24.1988 138.873C24.9966 138.218 25.2216 137.236 25.3852 136.309C25.692 134.636 25.1602 131.618 22.5011 131.927C20.8852 132.127 20.2306 133.346 20.1284 134.673ZM27.1239 139.164C28.0852 139.8 29.3125 140.036 30.3761 139.273C31.2966 138.618 31.6648 137.418 31.0921 136.473C30.5193 135.527 29.333 134.964 28.1261 135.2C26.8989 135.436 25.9989 136.364 25.9375 137.473C25.917 137.8 26.0602 138.127 26.2852 138.4C26.5307 138.691 26.817 138.946 27.1239 139.164ZM24.1784 141.709C23.4216 142.055 22.7057 142.673 22.2352 143.127C21.2738 144.091 21.0897 145.436 21.7647 146.582C22.5829 147.964 24.1375 149.091 25.9579 149C27.4511 148.927 28.6375 147.964 28.9852 146.691C29.333 145.346 28.7602 144.091 27.8807 143.018C27.3079 142.309 26.3261 141.527 25.2625 141.473C24.8943 141.455 24.5466 141.546 24.1784 141.709ZM23.0534 158.273C23.9329 159.4 25.5284 159.746 26.7352 158.782C28.167 157.618 27.983 155.673 27.7784 154.127C27.6148 152.855 27.7579 150.782 26.1829 150.164C23.8102 149.237 22.5829 152.309 22.6034 153.837C22.6034 153.982 22.5829 154.127 22.542 154.291C22.2352 155.746 22.0307 156.982 23.0534 158.273ZM22.8897 161.037C21.8875 160.637 20.7011 160.946 19.9238 161.6C18.942 162.418 18.4102 163.782 18.717 164.946C18.942 165.8 19.6784 166.509 20.6397 166.746C22.3375 167.146 23.9329 166.037 24.3011 164.582C24.6488 163.255 24.4443 161.655 22.8897 161.037ZM25.5693 166.509C24.6079 167.237 24.1579 168.6 24.2807 169.673C24.4034 170.782 25.0579 171.873 26.3261 172.218C27.942 172.655 28.842 171.4 28.9443 170.146C29.0466 169.018 28.7398 167.909 28.1875 166.909C27.7784 166.164 26.5511 165.873 25.7738 166.346C25.7125 166.4 25.6307 166.455 25.5693 166.509ZM25.9579 180.637C26.5511 182 28.3716 182.8 29.9261 182.328C31.6648 181.8 32.1761 179.818 30.9693 178.6C30.192 177.818 28.9034 177.582 27.8193 177.873C26.5511 178.2 25.4261 179.4 25.9579 180.637ZM21.6216 177.182C20.8238 177 20.067 177.255 19.4329 177.691C18.9011 178.055 18.1238 178.673 17.9806 179.273C17.8784 179.709 17.9806 180.328 18.1647 180.728C19.1875 182.891 22.4397 181.691 23.1557 179.982C23.5852 178.891 22.9511 177.491 21.6216 177.182ZM48.1308 81.4362C49.2762 81.0544 49.8694 79.5453 48.9898 78.5453C48.5194 78.018 47.7012 77.7817 46.9853 77.9453C46.3307 78.0726 45.8194 78.4908 45.5126 78.9999C45.2467 79.418 45.2057 79.9453 45.4103 80.3817C45.6762 80.9635 46.2489 81.1271 46.8217 81.3635C47.2717 81.5635 47.7421 81.5635 48.1308 81.4362ZM50.3399 84.8362C51.7512 85.6908 54.349 85.5272 54.2058 83.1817C54.124 81.9817 52.9785 81.1453 51.608 81.3817C50.8103 81.5271 50.0944 82.0908 49.7058 82.709C49.1535 83.5999 49.583 84.3817 50.3399 84.8362ZM41.8921 85.9453C42.0148 86.6181 42.5057 87.2181 43.2626 87.4908C44.2648 87.8363 45.4921 87.4908 46.0648 86.6908C46.7398 85.7453 46.4126 84.4362 45.3489 83.8362C44.2853 83.2544 43.1398 83.5272 42.2398 84.1817C41.6671 84.5817 41.5648 85.3635 41.8921 85.9453ZM28.9852 11.7996C28.5557 10.5269 27.3284 9.47231 26.3057 8.56322C25.0784 7.4723 22.0511 5.79957 21.7443 4.19956C21.6829 3.90865 21.0693 3.83593 20.967 4.12684C20.3125 5.74502 22.1534 7.09048 23.892 8.3814C23.8102 8.36322 23.7284 8.34503 23.667 8.30867C22.9102 8.09049 22.1534 7.89049 21.3966 7.69049C20.8647 7.54503 20.3534 8.25413 20.9466 8.45413C21.8056 8.74504 22.6647 9.03595 23.5443 9.30867C23.9329 9.43595 24.3216 9.59958 24.7307 9.69049C25.0579 9.76322 25.4875 9.69049 25.7738 9.85413C26.1216 10.0723 26.4284 10.5814 26.5511 10.9269C26.6534 11.2178 26.6329 11.4541 26.5307 11.636C24.8738 10.836 22.9716 10.3269 21.2534 9.67231C20.6193 9.43595 20.1897 10.3632 20.8034 10.636C21.5397 10.945 22.2557 11.2905 22.9716 11.6178C23.6057 11.9087 24.5875 12.1632 25.1193 12.5814C24.9148 12.436 24.1784 13.5996 24.1375 13.7451C23.7284 13.5814 23.2988 13.4541 22.9102 13.2905C22.2966 13.036 21.7034 12.7451 21.1306 12.436C20.5375 12.1087 19.9034 12.9451 20.4556 13.2905C21.0897 13.6723 21.7647 14.036 22.4397 14.3632C22.8284 14.5451 23.1966 14.7451 23.6057 14.8905C24.117 15.0723 24.117 15.0905 24.3625 15.5451C24.3011 15.5632 24.2602 15.5814 24.1988 15.5996C24.1375 15.5451 24.0761 15.4905 23.9738 15.4542C22.6852 14.9451 21.3352 14.5632 20.0056 14.1451C19.4125 13.9632 19.0443 14.9269 19.5966 15.1451C20.5579 15.5269 21.4988 15.9451 22.4806 16.3087C22.2761 16.4178 22.0511 16.5451 21.8466 16.6723C21.2329 17.0723 21.7238 18.0542 22.4806 17.7996C23.5852 17.436 24.6693 16.9996 25.8148 16.6905C26.2852 16.5632 26.6739 16.036 26.3466 15.5996C25.2829 14.2178 27.6148 13.3269 28.7602 12.4905C28.9443 12.3632 29.067 12.036 28.9852 11.7996ZM66.8877 13.6723C67.5422 13.9087 69.9763 13.9632 67.9922 15.3996C67.5422 15.7269 67.6854 16.2905 68.0945 16.5814C69.0763 17.3269 69.9763 17.1814 68.8308 18.236C68.524 18.5087 68.6263 19.1633 69.1581 19.1451C69.7513 19.1269 70.3854 18.9996 70.8558 18.6542C71.1013 18.4723 71.2649 18.2542 71.3672 17.9814C71.5513 17.4178 71.6127 17.4905 72.2059 17.236C72.8809 16.9633 72.349 16.0178 71.6945 16.1451C71.4286 16.1996 71.1013 16.3087 70.8149 16.2905C70.4263 16.2542 70.2422 16.036 69.9558 15.8723C70.0172 15.7996 70.0786 15.7269 70.1604 15.6542C71.1422 15.6178 73.1059 15.636 73.6172 14.7269C74.3331 13.436 70.7945 14.3087 70.774 14.4541C70.7945 14.2178 70.774 13.9632 70.6718 13.6905C70.6718 13.6723 70.6718 13.6723 70.6513 13.6723C70.6922 13.7814 72.0013 13.436 72.1445 13.4178C72.799 13.2723 73.474 13.1087 73.7809 12.5269C73.8831 12.3269 73.7809 12.0723 73.5354 11.9996C72.8604 11.8178 72.3695 12.0723 71.7149 12.236C70.999 12.4178 69.649 12.836 68.9331 12.5996C69.424 12.1632 69.9149 11.745 70.4058 11.3087C71.6945 11.2541 73.0036 11.145 74.2513 10.8178C75.3354 10.545 74.3127 9.23595 73.6581 9.65413C73.024 9.76322 72.3899 9.8905 71.7559 10.036C72.9627 8.81776 74.0672 7.52685 74.9672 6.14503C75.315 5.59957 74.4968 5.1632 74.0468 5.58139C71.5718 7.87231 69.3218 10.3087 66.6831 12.4723C66.1308 12.7996 66.2945 13.4541 66.8877 13.6723ZM44.8376 35.5451C44.2444 36.2542 43.508 36.8361 42.6285 37.2724C41.9125 37.6179 40.9307 37.8179 40.358 38.327C39.908 38.727 40.2557 39.3997 40.8694 39.4361C41.8103 39.4906 42.9762 38.7997 43.7739 38.3633C44.7353 37.8361 45.5944 37.1633 46.0239 36.1997C46.3103 35.6179 45.3285 34.9451 44.8376 35.5451ZM63.5535 38.4906C63.9626 38.8724 64.4331 39.1997 64.9035 39.5633C65.3331 39.9088 66.3763 40.2361 66.5399 39.4361C66.7036 38.6179 66.1513 38.3452 65.4558 37.9633C64.8217 37.6361 64.2081 37.1633 64.0854 36.4724C63.9217 35.5997 62.4081 35.7451 62.5104 36.6542C62.5922 37.4179 63.0013 37.9815 63.5535 38.4906ZM43.9785 60.7271C43.5694 60.4361 43.1807 60.1089 42.8126 59.7271C42.6489 59.5452 42.5057 59.3634 42.3626 59.1816C44.3671 58.9816 46.4535 58.7634 48.3967 58.3271C49.1739 58.1452 49.3376 56.7452 48.3353 56.8361C46.0648 57.0725 43.733 57.5089 41.5239 58.0907C41.4421 57.9816 41.3603 57.8725 41.2785 57.7452C40.8694 57.1634 40.4807 56.5452 40.133 55.9452C41.1557 55.9634 42.1989 55.8725 43.2012 55.7998C44.3876 55.727 45.6353 55.8361 46.7194 55.3634C47.2103 55.1452 47.0058 54.4543 46.5558 54.327C45.3489 53.9816 43.8762 54.2907 42.608 54.3634C41.5648 54.4179 40.4807 54.4179 39.458 54.6543C39.1921 54.1089 38.9466 53.5452 38.7216 52.9634C39.9694 52.927 41.2171 52.8907 42.4648 52.8179C43.6103 52.7634 44.8171 52.9452 45.6353 52.1452C45.7785 51.9998 45.8194 51.7634 45.6148 51.6361C44.6126 50.9634 43.4057 51.2907 42.2194 51.3634C40.9103 51.4543 39.5807 51.5634 38.2716 51.6907C38.1284 51.2543 38.0057 50.7997 37.883 50.3452C37.7194 49.7452 36.533 49.7634 36.5943 50.4361C36.8398 53.8361 37.7807 56.9998 39.908 59.8543C41.0739 61.4362 43.1194 64.0907 45.6148 63.5271C46.1467 63.3998 46.5353 62.7271 46.1262 62.3271C45.8603 62.0725 45.5944 61.8543 45.308 61.6543C46.2489 61.5089 47.1489 61.3271 48.0694 61.0725C49.1535 60.7816 50.4626 60.5634 51.2399 59.818C51.608 59.4725 51.3217 58.8725 50.7899 58.8543C49.6649 58.818 48.5398 59.3816 47.4558 59.6907C46.3103 60.0361 45.1444 60.3816 43.9785 60.7271ZM54.1035 45.1634C53.5512 44.7997 52.4876 45.2361 52.8558 45.9088C53.2035 46.527 53.4285 46.7452 53.408 47.5088C53.3876 48.2543 54.7785 48.4725 54.9217 47.6906C55.1058 46.7997 55.0035 45.7634 54.1035 45.1634ZM57.8262 47.5452C57.8058 47.8361 58.0717 48.0906 58.3785 48.1452C58.7467 48.1997 58.9103 47.9816 59.0535 47.727C59.6263 46.6906 59.2172 44.4725 57.6422 44.3815C57.3353 44.3634 57.0694 44.6361 57.0285 44.8906C56.9467 45.3997 57.274 45.6179 57.499 46.0361C57.7444 46.4906 57.8467 47.0361 57.8262 47.5452ZM61.5695 45.127C61.6513 45.727 61.9376 46.327 61.8763 46.9452C61.8354 47.4906 62.7354 47.8179 63.0422 47.2906C63.5535 46.3815 63.6149 45.3634 62.7967 44.5997C62.3467 44.1997 61.4876 44.5634 61.5695 45.127ZM49.1535 39.1633C49.2967 39.5633 49.583 39.9088 49.7876 40.2906C49.9717 40.6724 50.1353 41.0724 50.258 41.4724C50.5035 42.2906 51.9149 42.1088 51.7512 41.2361C51.5876 40.3088 51.2603 39.0543 50.4012 38.4179C49.808 37.9815 48.908 38.4906 49.1535 39.1633ZM54.2058 37.1997C54.1853 37.1997 54.1649 37.1997 54.124 37.1997C53.3467 37.1815 53.5308 38.2179 53.5921 38.6542C53.6535 39.0361 53.633 39.4906 53.7353 39.8724C53.8785 40.4179 54.9012 40.8179 55.1058 40.0906C55.2899 39.4543 55.4535 38.6906 55.2285 38.0542C55.1262 37.7088 54.6353 37.2542 54.2058 37.1997ZM58.9308 39.8179C59.3399 38.7633 60.3422 36.8906 58.6444 36.3088C58.5217 36.2724 57.6422 36.4179 57.8467 36.6179C57.8672 36.6361 57.8876 37.2361 57.9081 37.3452C57.9694 38.0724 57.6831 38.7633 57.499 39.4724C57.2944 40.1633 58.6649 40.527 58.9308 39.8179ZM50.0739 33.1997C50.8717 32.1088 49.5217 30.7815 48.7035 30.0542C48.1103 29.5088 46.9035 30.0906 47.3944 30.836C47.7626 31.3815 48.3558 31.836 48.7035 32.3815C48.9285 32.727 48.6421 33.127 49.0921 33.3997C49.4194 33.5633 49.8694 33.4906 50.0739 33.1997ZM53.1421 31.9633C52.999 32.6906 54.2058 32.8906 54.5331 32.2724C55.0853 31.1815 54.8603 29.9633 54.124 28.9997C53.9194 28.7269 53.449 28.6724 53.1217 28.7997C52.7126 28.9451 52.549 29.3088 52.7126 29.7815C52.774 29.9633 52.958 30.1451 53.0399 30.3451C53.2649 30.836 53.2444 31.4179 53.1421 31.9633ZM59.1149 31.9997C59.5035 32.2179 59.749 32.0179 60.0354 31.7997C61.099 30.9451 62.0195 28.4724 59.9944 28.0906C59.6058 28.0178 59.3399 28.3451 59.299 28.636C59.2376 29.0178 59.5035 29.2906 59.524 29.6542C59.5444 30.1633 59.1353 30.7269 58.849 31.1451C58.6649 31.436 58.8081 31.836 59.1149 31.9997ZM42.3421 23.6542C42.7103 24.0178 43.058 24.3996 43.3853 24.7815C43.7535 25.236 44.0398 25.7451 44.4489 26.1451C44.9807 26.6724 46.0853 26.0542 45.7785 25.3997C45.308 24.3815 44.3671 23.4724 43.5285 22.6542C42.9148 22.0905 41.7285 23.036 42.3421 23.6542ZM48.3558 21.1451C48.5808 22.1087 48.908 23.036 49.2967 23.9815C49.4399 24.3269 49.6853 24.7996 50.1149 24.9087C50.8512 25.0906 51.1376 24.3996 51.0353 23.8906C50.9126 23.2906 50.5444 22.7451 50.2785 22.1815C50.0535 21.6905 49.7876 21.236 49.5217 20.7814C49.2149 20.2724 48.233 20.5814 48.3558 21.1451ZM54.349 20.5996C54.4921 21.1087 54.574 21.636 54.7376 22.1451C54.8603 22.5815 55.024 23.0178 55.0853 23.4724C55.2081 24.4178 56.8853 24.1087 56.7217 23.1633C56.5581 22.1633 56.0672 21.1633 55.5967 20.2542C55.2694 19.5996 54.1649 19.9087 54.349 20.5996ZM60.6081 21.0542C60.4854 21.6724 60.4035 22.3996 60.0967 22.9815C59.974 23.236 59.749 23.3815 59.7899 23.6906C59.8308 23.9815 60.0558 24.2178 60.3626 24.3087C61.8354 24.7087 62.0194 22.1087 62.1217 21.3451C62.2444 20.4905 60.7922 20.1814 60.6081 21.0542ZM41.8716 19.0542C42.2398 19.9451 43.7739 19.2905 43.3853 18.3996C42.9353 17.3814 42.1375 16.5451 41.0944 15.9451C40.358 15.5269 39.6625 16.3996 40.3375 16.8905C41.0535 17.436 41.5444 18.2723 41.8716 19.0542ZM47.0262 14.2723C47.0262 15.2542 47.2717 16.236 47.8853 17.0723C48.1308 17.4178 48.5808 17.5996 49.0103 17.3996C49.3989 17.236 49.6239 16.7451 49.3785 16.3996C48.9285 15.7269 48.6421 15.0542 48.6012 14.2542C48.5603 13.5087 47.0467 13.4723 47.0262 14.2723ZM52.8762 13.2541C52.7126 14.4178 52.9785 15.5632 53.5308 16.6178C53.9808 17.4905 55.4944 16.836 55.0444 15.9632C54.5944 15.1269 54.3899 14.2541 54.3285 13.3269C54.2671 12.5451 52.999 12.4178 52.8762 13.2541ZM59.2376 16.7996C59.3808 16.9087 59.5854 16.9633 59.8308 16.9633C61.324 16.9451 60.9558 14.7632 60.8535 13.9269C60.7308 12.9996 59.1149 13.1632 59.2172 14.1087C59.2785 14.6542 59.2785 15.1814 59.2785 15.7269C58.8285 16.0905 58.8694 16.5632 59.2376 16.7996ZM41.0944 11.0541C41.2375 11.2723 41.4216 11.4905 41.4626 11.745C41.5035 12.0178 41.4012 12.236 41.6057 12.4905C42.0148 13.0178 43.0989 12.9814 43.2012 12.2723C43.3853 11.0723 42.2603 10.4723 41.8307 9.47231C41.483 8.67231 40.0716 8.9814 40.358 9.85413C40.5012 10.2905 40.808 10.636 41.0739 11.0178C41.0739 11.036 41.0944 11.0541 41.0944 11.0541ZM46.1057 10.145C45.9626 9.50868 45.8807 8.85413 45.8398 8.19958C45.7989 7.41776 47.0671 7.4723 47.2512 8.12685C47.4148 8.72685 47.5785 9.32686 47.7421 9.92686C47.8648 10.3996 48.008 10.8178 47.9262 11.3087C47.9262 11.3087 47.9058 11.3087 47.9058 11.2905C47.783 11.7087 47.1489 12.0178 46.7194 11.5996C46.2898 11.1814 46.208 10.6905 46.1057 10.145ZM52.4262 10.6905C52.4467 11.6541 54.1444 11.7269 54.1035 10.7632C54.083 9.87231 53.8785 9.05413 53.4899 8.23594C53.1012 7.39958 51.6899 7.94503 52.0376 8.79958C52.3035 9.39959 52.4262 10.0541 52.4262 10.6905ZM59.7285 11.745C60.9558 11.5269 61.0581 10.1632 61.1808 9.25413C61.2422 8.87231 60.8126 8.52685 60.424 8.50867C59.9535 8.49049 59.6467 8.79958 59.5854 9.1814C59.524 9.59959 59.4422 10.2723 59.074 10.5814C58.5626 11.0178 58.9717 11.8723 59.7285 11.745ZM86.9332 88.3635C87.015 87.5635 86.8923 86.7453 86.6264 85.9999C86.3605 84.0181 86.0741 82.0362 85.7673 80.0544C85.665 79.4544 84.6627 79.6726 84.6832 80.2362C84.7445 81.4362 84.8264 82.6362 84.9286 83.8362C84.0082 83.2908 83.0877 83.7453 82.7195 84.4726C82.3513 84.8181 82.1468 85.2363 81.9218 85.7272C81.4104 86.8544 80.8582 88.2181 81.0832 89.4545C81.3286 90.8726 82.5764 92.8181 84.4786 92.0181C84.9286 91.8363 85.3173 91.5635 85.6445 91.2544C85.8286 93.2545 86.0127 95.2545 86.1355 97.2545C86.3195 100.2 85.8491 103.145 85.3991 106.091C84.1514 104.291 81.8809 102.6 80.2241 104.709C79.7741 105.291 79.6513 106.109 79.6922 106.927C78.9559 109.709 80.1422 113.582 83.3332 114.455C83.8241 114.582 84.3559 114.655 84.8468 114.509C85.215 114.4 85.7468 114.309 85.9105 113.945C86.1559 113.364 86.34 112.782 86.4832 112.164C86.9536 110.145 86.9741 107.964 87.1991 105.964C87.5059 103.073 88.0173 100.145 87.8332 97.2545C87.6082 94.2908 87.3014 91.3272 86.9332 88.3635ZM27.5125 96.0181C30.0284 101.891 32.7489 107.782 35.7353 113.455C38.0262 117.782 41.1557 123.236 45.9012 125.836C46.3717 126.091 46.8626 125.418 46.5967 125.073C45.083 123.018 42.9353 121.345 41.3398 119.327C39.6625 117.182 38.2716 114.873 36.983 112.545C33.9557 107.036 31.3375 101.327 28.3307 95.7999C28.1466 95.4363 27.3489 95.5999 27.5125 96.0181ZM48.3353 122.927C47.4762 121.236 45.9421 119.818 44.7762 118.291C43.4262 116.564 42.1989 114.782 41.0535 112.945C38.783 109.218 37.0239 105.382 35.633 101.327C35.4898 100.873 34.6307 101.145 34.7534 101.582C35.8375 105.6 37.4125 109.527 39.4989 113.218C41.4216 116.618 43.958 121.218 47.5376 123.455C47.8853 123.655 48.5194 123.291 48.3353 122.927ZM50.4626 120.618C50.1149 118.6 48.1512 116.964 46.9035 115.327C44.7353 112.455 42.8126 109.455 41.2375 106.291C40.9716 105.782 40.0716 106.273 40.2762 106.764C42.4648 111.855 45.4717 116.964 49.5217 121.091C49.8694 121.418 50.5239 121.018 50.4626 120.618ZM39.8057 124.364C38.7216 122.055 36.2671 120.109 34.8148 117.927C33.0148 115.218 31.6239 112.364 30.6625 109.327C30.4989 108.8 29.6193 109.2 29.742 109.673C30.417 112.491 31.4602 115.255 32.9534 117.836C34.3239 120.2 36.3693 123.691 39.1103 124.909C39.4171 125.055 39.9489 124.691 39.8057 124.364ZM30.0693 117.345C29.4557 116.455 28.8625 115.564 28.2693 114.673C27.942 114.182 27.0625 114.782 27.3489 115.255C27.8807 116.109 28.4534 116.945 28.9852 117.8C29.4557 118.545 29.8443 119.418 30.5807 120C30.908 120.255 31.5216 119.909 31.3989 119.545C31.1125 118.727 30.5398 118.055 30.0693 117.345ZM35.5921 14.0541C35.8784 14.4723 36.083 15.036 36.5739 15.2905C37.0034 15.5087 37.658 15.3632 37.6784 14.836C37.6784 14.2723 37.2693 13.8541 36.9012 13.436C36.4512 12.9451 35.9807 12.4723 35.4693 12.0178C34.8762 11.4905 33.9966 12.1996 34.5489 12.7632C34.9375 13.1632 35.2852 13.5814 35.5921 14.0541ZM36.7989 21.3269C37.5148 21.9269 38.558 21.0724 37.9239 20.3451C37.2284 19.5451 36.3489 18.9269 35.4489 18.3087C34.7125 17.7996 33.9148 18.7269 34.5898 19.2542C35.3671 19.9087 36.0216 20.6724 36.7989 21.3269ZM65.7013 24.7633C66.6217 24.1815 67.5831 23.5269 68.3604 22.7996C69.0354 22.1815 68.0126 21.1814 67.3376 21.7815C66.5604 22.4542 65.8445 23.1815 65.0467 23.836C64.5967 24.236 65.1081 25.1451 65.7013 24.7633ZM42.7716 42.1633C43.3035 42.0724 43.9171 41.7452 44.2239 41.5634C44.9603 41.127 45.5739 40.5088 46.0444 39.8361C46.1467 39.6906 46.2489 39.5088 46.2285 39.3452C46.208 39.1633 46.0444 39.0179 45.8807 38.9088C45.6967 38.7997 45.4717 38.7088 45.2671 38.7633C45.083 38.8179 44.9603 38.9815 44.858 39.127C44.3262 39.8361 43.5489 40.3997 42.6694 40.7633C42.3421 40.8906 41.9535 41.0179 41.8103 41.3088C41.708 41.5088 41.7285 41.7634 41.8716 41.927C42.0762 42.1815 42.4035 42.2361 42.7716 42.1633ZM65.1899 41.2361C64.5967 40.8906 64.1672 40.727 63.8399 40.127C63.5126 39.527 62.4695 39.9088 62.6945 40.5452C62.9604 41.2906 63.3899 41.9815 64.2081 42.3815C64.6581 42.5997 65.2717 42.6906 65.5376 42.1815C65.6604 41.9634 65.6399 41.6906 65.4967 41.4906C65.4149 41.3633 65.3126 41.3088 65.1899 41.2361ZM36.308 57.7998C35.7557 56.9998 35.4284 56.1998 35.2443 55.2725C35.1012 54.5452 33.8739 54.527 33.9762 55.3089C34.2012 57.1089 35.2034 60.3452 37.4944 60.8725C37.8625 60.9634 38.2716 60.618 38.2103 60.2725C38.0057 59.3452 36.8398 58.5998 36.308 57.7998ZM27.2466 6.81776C28.208 7.2723 29.0875 7.81776 29.9057 8.45413C30.3557 8.81776 31.6239 9.61777 31.5011 10.236C31.4602 10.4541 31.5625 10.7996 31.8898 10.7996C32.5648 10.836 33.1375 10.5269 33.1375 9.87231C33.1375 9.23595 32.5852 8.79958 32.1148 8.39958C30.8466 7.36321 29.3534 6.49048 27.7989 5.85412C27.1239 5.59957 26.6329 6.52685 27.2466 6.81776ZM37.658 28.2724C36.5943 28.8178 35.4898 29.4906 35.1216 30.5815C34.7943 31.5269 35.0807 32.5815 36.2057 32.927C36.5943 33.036 37.0853 32.6542 36.9012 32.2906C36.6762 31.8179 36.4307 31.236 36.6966 30.7269C37.0443 30.0724 37.8216 29.636 38.4557 29.2724C39.1512 28.8542 38.3739 27.9087 37.658 28.2724ZM71.0604 28.5997C70.4672 28.4542 69.7922 28.6542 70.2627 29.3633C70.3854 29.5451 70.5695 29.6724 70.7127 29.836C71.1422 30.3269 71.449 32.8906 72.6354 32.0724C73.0036 31.8179 72.9831 31.3451 72.9013 30.9815C72.7172 30.1815 72.2059 29.3088 71.4899 28.7997C71.3672 28.7088 71.224 28.636 71.0604 28.5997ZM39.8466 128.564C39.7239 129.564 39.458 130.564 39.4171 131.564C39.3966 132.309 40.8489 132.509 40.9512 131.727C41.0739 130.673 40.9103 129.582 40.9307 128.527C40.9103 127.927 39.908 128.036 39.8466 128.564ZM43.6512 129.818C43.4671 130.655 43.2012 131.473 42.9966 132.309C42.8126 133.036 42.5466 133.782 42.6898 134.509C42.7921 135.018 43.6512 135.164 43.9376 134.691C44.7557 133.364 44.5512 131.327 44.6739 129.855C44.7353 129.273 43.7739 129.291 43.6512 129.818ZM46.7194 132.291C45.9217 133.946 44.9603 135.855 44.7966 137.673C44.7148 138.527 46.0035 138.855 46.3103 137.982C46.9239 136.255 47.2717 134.455 47.9058 132.727C48.1308 132.127 47.0262 131.673 46.7194 132.291ZM49.1944 135.746C48.8262 137.818 46.8626 139.582 47.0058 141.746C47.0467 142.491 48.3762 142.673 48.5399 141.891C48.9899 139.818 50.2785 137.964 50.3399 135.818C50.3603 135.109 49.3171 135.055 49.1944 135.746ZM51.9149 139.255C51.649 140.273 51.3012 141.273 50.9126 142.255C50.5649 143.164 49.9717 144.127 49.8285 145.073C49.7467 145.582 50.5853 146.218 51.0149 145.655C52.3649 143.909 52.6308 141.309 52.9171 139.255C53.0194 138.618 52.0376 138.727 51.9149 139.255ZM53.8376 145.418C53.5717 146.182 53.2035 146.909 52.8353 147.637C52.508 148.291 52.0989 148.8 52.4467 149.491C52.508 149.618 52.7126 149.709 52.8762 149.691C53.8171 149.564 53.9603 148.818 54.2262 148.091C54.5126 147.291 54.6967 146.473 54.9012 145.655C55.0649 144.982 54.0831 144.782 53.8376 145.418ZM80.1013 169.546C79.6922 170.491 79.2422 171.418 78.8127 172.346C78.5059 173 78.0968 173.528 78.3218 174.237C78.4241 174.546 78.8332 174.782 79.1809 174.582C80.0195 174.091 80.2036 173.146 80.5104 172.328C80.8173 171.528 81.0422 170.709 81.2468 169.891C81.4104 169.255 80.3672 168.928 80.1013 169.546ZM83.3332 171.837C82.7195 172.709 82.1264 173.6 81.6354 174.546C81.2059 175.364 80.5513 176.146 81.1241 176.982C81.2263 177.128 81.4513 177.146 81.5945 177.109C82.5354 176.928 82.6377 176.109 82.965 175.4C83.415 174.418 83.8445 173.418 84.3354 172.437C84.6218 171.928 83.7423 171.273 83.3332 171.837ZM86.3605 174.328C85.4195 175.146 84.6832 176.018 84.1104 177.091C83.6604 177.946 85.215 178.528 85.6445 177.655C86.0945 176.746 86.6673 175.891 87.3218 175.091C87.7309 174.582 86.8923 173.873 86.3605 174.328ZM90.3696 175.618C89.5105 175.582 88.5286 177.764 89.265 178.2C90.4105 178.891 91.2082 177.037 91.1264 176.328C91.0855 175.964 90.8196 175.637 90.3696 175.618ZM82.6377 164.691C83.9877 158.837 87.4446 153.273 89.7968 147.673C90.0218 147.164 89.1218 146.982 88.8764 147.436C87.2196 150.546 85.6445 153.691 84.09 156.837C82.9241 159.182 80.3877 162.327 81.6968 164.873C81.9013 165.237 82.5764 165.018 82.6377 164.691ZM89.2037 154.455C87.9355 156.6 86.79 158.8 85.9309 161.109C85.3582 162.655 84.6013 164.382 84.7241 166.018C84.765 166.491 85.5014 166.873 85.7877 166.327C86.7695 164.527 87.0355 162.364 87.7105 160.455C88.365 158.546 89.1832 156.709 90.1037 154.891C90.39 154.382 89.5105 153.927 89.2037 154.455ZM90.9014 161.237C91.2491 160.491 90.0014 159.837 89.5923 160.6C89.0809 161.582 88.6309 162.6 88.2627 163.618C87.9355 164.527 87.4241 165.473 87.8332 166.4C87.9559 166.691 88.4468 166.837 88.7127 166.582C89.4082 165.946 89.4491 165.127 89.715 164.291C90.0218 163.255 90.4309 162.237 90.9014 161.237ZM21.3761 111.855C20.742 110.873 20.2716 109.836 19.9034 108.745C19.6579 108.036 18.492 108.236 18.6965 108.982C19.2488 111.091 20.4147 114.491 22.7261 115.6C23.2784 115.855 23.7488 115.327 23.5852 114.873C23.1966 113.782 22.0306 112.855 21.3761 111.855ZM23.2579 110C22.9102 109.382 22.0511 110 22.2966 110.564C22.5829 111.164 22.8488 111.782 23.1761 112.364C23.4625 112.891 23.7693 113.691 24.4852 113.836C24.7102 113.891 24.9557 113.818 25.0784 113.655C25.5693 113.018 24.8534 112.364 24.5057 111.891C24.0966 111.273 23.6466 110.655 23.2579 110ZM57.3149 114.073C57.2535 113.455 56.1694 113.345 56.1285 114.018C56.0467 115.436 56.0876 116.836 56.4967 118.2C56.7217 118.982 58.2558 118.691 58.0922 117.873C57.8263 116.618 57.4581 115.364 57.3149 114.073Z" fill="#A8B6BF"/>
</svg>
