<?xml version="1.0" encoding="utf-8"?>
<!-- Generator: Adobe Illustrator 24.3.0, SVG Export Plug-In . SVG Version: 6.00 Build 0)  -->
<svg version="1.1" id="Camada_1" xmlns="http://www.w3.org/2000/svg" xmlns:xlink="http://www.w3.org/1999/xlink" x="0px" y="0px"
	 viewBox="0 0 267 65" style="enable-background:new 0 0 267 65;" xml:space="preserve">
<style type="text/css">
	.st0{fill:#A8B6BF;}
</style>
<desc  fill="#FFFFFF" id="arv2mcvsv3r5g1is3n1x1l32s5n3uob9">Vecteezy logo</desc>
<path class="st0" d="M41.8,29.9c0.1-1.5,0.1-2.9,0.1-4.3c0-3.2-0.8-6.3-2.9-6.3c-1.6,0-2.4,1.3-2.4,3.7
	C36.5,26.7,39.1,29.1,41.8,29.9z M32.3,53.9c-9.8,0-10.7-8.8-10.7-17.8c0-8.7-0.7-10.6-3.7-10.6h-4.4v-5.7h4.4c8.5,0,9.5,7,9.5,16.4
	c0,8.9,0.7,11.9,4.8,11.9c4.3,0,7.3-7,8.8-12.7c-6.3-1.5-10.2-6-10.2-12.6c0-5.2,3.3-9.5,8.3-9.5c5.5,0,8.6,5.3,8.6,12.2
	c0,1.8-0.1,3.4-0.2,4.7H54V36h-7.5C44.8,44.8,39.9,53.9,32.3,53.9z M32.1,64.3c22.6,0,32.1-14.3,32.1-31.9C64.2,8.1,53.1,0,38.6,0
	C19.9,0,0,15.4,0,32.4C0,50.1,14.4,64.3,32.1,64.3z"/>
<path class="st0" d="M90.5,35.1c0.3,1,0.8,2.4,0.9,3.6h0.1c0.2-1.2,0.6-2.5,0.9-3.6l5.7-18.6h6.8l-10,28.9h-7.2l-10-28.8h6.8
	L90.5,35.1z"/>
<path class="st0" d="M123.7,38.2l3.1,3.6c-1.5,2-4.8,3.9-9.6,3.9c-7.5,0-12-4.7-12-11.5c0-6.7,4.5-11.5,11.4-11.5
	c6.6,0,10.3,4.4,10.3,10.6c0,1.4-0.2,2.4-0.2,2.4h-15.1c0.6,3,2.7,5.1,6.3,5.1C121,40.8,122.7,39.3,123.7,38.2z M111.5,32.3h9.3
	c0-2.7-1.7-4.7-4.3-4.7C113.9,27.7,112,29.4,111.5,32.3z"/>
<path class="st0" d="M150.9,30.6c0,1-0.1,1.7-0.1,1.7l-5.7,0.3c0-0.1,0.1-0.5,0.1-1c0-1.9-1.2-3.6-3.7-3.6c-2.9,0-4.9,2.4-4.9,6
	c0,3.8,1.9,6.3,5.8,6.3c3.5,0,5.4-1.8,6.1-2.6l3.2,4.1c-1.4,1.8-4.7,3.8-9.7,3.8c-7.5,0-11.9-4.7-11.9-11.4
	c0-6.9,4.7-11.6,11.6-11.6C147.4,22.8,150.9,26.3,150.9,30.6z"/>
<path class="st0" d="M171.9,44.1c0,0-2.4,1.6-6.7,1.6c-5.9,0-9-3.2-9-9.5V28h-3.4V23h3.7v-6.5h6.2V23h7.9V28h-7.9v7.9
	c0,3,1.1,4.3,3.7,4.3c2.3,0,3.6-1.2,3.6-1.2L171.9,44.1z"/>
<path class="st0" d="M191.1,38.2l3.1,3.6c-1.5,2-4.8,3.9-9.6,3.9c-7.6,0-12-4.7-12-11.5c0-6.7,4.5-11.5,11.4-11.5
	c6.6,0,10.3,4.4,10.3,10.6c0,1.4-0.2,2.4-0.2,2.4H179c0.6,3,2.7,5.1,6.3,5.1C188.5,40.8,190.2,39.3,191.1,38.2z M179,32.3h9.3
	c0-2.7-1.7-4.7-4.3-4.7C181.4,27.7,179.5,29.4,179,32.3z"/>
<path class="st0" d="M216,38.2l3.1,3.6c-1.5,2-4.8,3.9-9.6,3.9c-7.5,0-12-4.7-12-11.5c0-6.7,4.5-11.5,11.4-11.5
	c6.6,0,10.3,4.4,10.3,10.6c0,1.4-0.2,2.4-0.2,2.4h-15.1c0.6,3,2.7,5.1,6.3,5.1C213.4,40.8,215,39.3,216,38.2z M203.8,32.3h9.3
	c0-2.7-1.7-4.7-4.3-4.7C206.3,27.7,204.3,29.4,203.8,32.3z"/>
<path class="st0" d="M221.8,40.7l10.9-11.6c0.6-0.6,0.8-0.9,1.2-1.2l0-0.1c-0.5,0.1-1.4,0.1-2.6,0.1h-9v-5h19v4.7L230.8,39
	c-0.8,0.9-1.1,1.2-1.4,1.5l0.1,0.1c0.4-0.1,1.1-0.1,2.4-0.1h9.5v4.9h-19.7V40.7z"/>
<path class="st0" d="M248.3,55.4c-2.6,0-4.2-0.9-4.2-0.9l0.9-5c0,0,1.2,0.7,2.7,0.7c2,0,3.1-1,3.9-2.7l0.4-1.1L242.9,23h7l4.6,13.3
	c0.4,1.2,0.5,1.8,0.7,2.9h0.1c0.2-1.2,0.4-1.9,0.7-2.9l4.5-13.3h6.6l-9.5,25.4C256,52.3,253.2,55.4,248.3,55.4z"/>
</svg>
